<?xml version="1.0" encoding="UTF-8" standalone="no"?>
<!-- Created with Inkscape (http://www.inkscape.org/) -->

<svg
   width="26.071774mm"
   height="35.265289mm"
   viewBox="0 0 26.071774 35.265289"
   version="1.1"
   id="svg1"
   xml:space="preserve"
   xmlns="http://www.w3.org/2000/svg"
   xmlns:svg="http://www.w3.org/2000/svg"><defs
     id="defs1" /><g
     id="layer1"
     transform="translate(-40.939109,-91.111107)"><g
       id="g10843"><path
         d="m 53.78172,91.980296 c -0.493889,0.458611 -0.881945,1.164167 -0.881945,1.552222 0,0.599722 -0.176389,0.670278 -1.199444,0.493889 -0.987778,-0.141111 -1.375834,-0.03528 -2.116667,0.705556 l -0.917222,0.917222 v 8.043335 l -0.03528,8.04333 -1.552222,-1.76389 c -1.375834,-1.5875 -1.693334,-1.76389 -2.998611,-1.76389 -1.199445,0 -1.658056,0.21167 -2.328334,0.98778 -1.340555,1.5875 -1.093611,2.64583 1.27,5.78556 8.819445,11.60639 8.537223,11.39472 14.710834,11.39472 5.468055,0 7.267222,-0.77611 8.607778,-3.70417 0.599722,-1.27 0.670277,-2.50472 0.670277,-12.80583 0,-9.41917 -0.105833,-11.571112 -0.529166,-12.417778 -0.564445,-1.128889 -1.5875,-1.5875 -2.786945,-1.27 -0.740833,0.176388 -0.846666,0.03528 -1.058333,-1.199445 -0.282222,-1.693333 -1.446389,-2.610555 -3.069167,-2.398889 -0.811389,0.141111 -1.305278,-0.03528 -1.940278,-0.670278 -1.093611,-1.093611 -2.716388,-1.058333 -3.845277,0.07056 z m 2.928055,0.9525 c 0.282222,0.282222 0.423334,2.363611 0.423334,7.055556 0,6.385278 0.03528,6.632218 0.705555,6.632218 0.670278,0 0.705556,-0.28222 0.776111,-6.0325 0.105834,-5.326941 0.176389,-6.103052 0.740834,-6.45583 0.423333,-0.282222 0.776111,-0.282222 1.234722,0 0.529166,0.352778 0.599722,1.164167 0.705555,7.16139 0.07056,6.42055 0.105834,6.73805 0.776111,6.73805 0.635,0 0.705556,-0.3175 0.776112,-4.97416 0.105833,-4.303891 0.176388,-5.044724 0.740833,-5.397502 0.423333,-0.282222 0.776111,-0.282222 1.234722,0 0.529167,0.352778 0.599722,1.375834 0.705556,11.818052 0.07055,12.59417 0.03528,12.98223 -2.151945,14.56973 -0.881944,0.67027 -1.516944,0.74083 -5.715,0.74083 -4.515555,0 -4.727222,-0.0353 -5.644444,-0.88195 -1.5875,-1.44638 -9.701389,-12.02972 -9.701389,-12.62944 0,-0.77611 1.058333,-1.83444 1.799166,-1.83444 0.352778,0 1.552223,1.05833 2.645834,2.36361 3.175,3.77472 3.104444,3.91583 3.316111,-6.73806 0.141111,-8.184443 0.246944,-9.172221 0.811389,-9.524998 0.423333,-0.282223 0.776111,-0.282223 1.234722,0 0.529167,0.352777 0.599722,1.128888 0.705556,6.103058 0.07055,5.3975 0.141111,5.67972 0.776111,5.67972 0.670278,0 0.705555,-0.24695 0.705555,-6.985 0,-7.16139 0.105834,-7.831667 1.411111,-7.831667 0.3175,0 0.740834,0.176389 0.987778,0.423333 z"
         id="path1"
         style="fill:#000000;stroke:none;stroke-width:0.0352778" /><path
         style="fill:#ffffff;fill-opacity:1;stroke-width:0.298993"
         d="m 201.20724,470.80512 c -2.02325,-0.54568 -3.21183,-1.39797 -5.99252,-4.29707 -6.45173,-6.72644 -29.51063,-36.57288 -34.35181,-44.4635 -0.80788,-1.31676 -0.83624,-2.12373 -0.1244,-3.53962 1.05474,-2.09794 4.23057,-4.69917 5.7372,-4.69917 1.56001,0 5.99948,4.04637 11.48135,10.46474 4.54211,5.31807 6.52343,7.17582 7.65311,7.17582 2.79539,0 3.12936,-3.01002 3.79845,-34.23465 0.68582,-32.00515 0.95997,-34.8948 3.43182,-36.17304 2.04569,-1.05787 4.61988,-0.067 5.31652,2.04645 0.68094,2.0658 0.95557,6.19443 1.25573,18.87797 0.46377,19.59698 0.66002,22.2789 1.7069,23.32577 0.24428,0.24428 0.90544,0.44414 1.46925,0.44414 h 1.02512 v 32.73969 c 0,30.98902 -0.028,32.73861 -0.52324,32.71951 -0.28778,-0.0111 -1.13535,-0.18527 -1.88348,-0.38704 z"
         id="path10839"
         transform="scale(0.26458333)" /><path
         style="fill:#ffffff;fill-opacity:1;stroke-width:0.298993"
         d="m 205.03418,471.29156 -1.42022,-0.11198 v -32.58433 c 0,-29.3673 0.0472,-32.65643 0.47846,-33.31455 0.26314,-0.40162 0.61078,-1.2378 0.77251,-1.85818 0.16733,-0.64186 0.40887,-10.72762 0.56047,-23.40292 0.14653,-12.25123 0.35235,-22.71223 0.45739,-23.24668 l 0.19098,-0.97172 h 4.56028 4.56027 l 0.18722,2.16769 c 0.10297,1.19223 0.26433,10.30777 0.35858,20.25675 0.22547,23.79866 0.33909,24.82174 2.75562,24.81181 0.61288,-0.003 1.27409,-0.10617 1.46936,-0.23033 1.11738,-0.7105 1.46072,-5.05484 1.73001,-21.89055 0.19023,-11.89271 0.56026,-19.4905 1.07261,-22.02391 0.17769,-0.87862 0.62602,-1.88172 1.0413,-2.32982 0.68391,-0.73795 0.87354,-0.78146 3.04904,-0.69952 l 2.18719,-0.0452 0.89559,1.01954 c 0.74147,0.84409 1.13054,6.17748 1.46646,23.14686 0.48299,24.3986 0.62371,26.69915 1.70627,27.89536 0.54096,0.59775 1.91292,0.71528 2.80109,0.23994 1.19328,-0.63862 1.39541,-2.68724 1.78426,-18.08396 0.4535,-17.95666 0.77715,-19.93249 3.45926,-21.11892 1.33582,-0.59089 1.44035,-0.59517 2.70896,-0.11068 2.33169,0.89048 2.63857,2.25037 3.13773,13.90428 0.50873,11.87753 0.52112,66.76882 0.016,71.16024 -0.95793,8.32901 -2.12233,10.7187 -6.98767,14.34072 -2.91823,2.17248 -4.29336,2.62833 -9.06147,3.00376 -3.36449,0.26492 -22.81974,0.32216 -25.9376,0.0763 z"
         id="path10840"
         transform="scale(0.26458333)" /><path
         style="fill:#ffffff;fill-opacity:1;stroke-width:0.298993"
         d="m 201.20724,470.81035 c -2.02834,-0.55485 -3.21591,-1.40746 -5.99252,-4.3023 -6.32314,-6.59237 -29.13963,-36.05038 -33.93578,-43.81394 -1.18032,-1.9106 -1.23357,-2.09324 -0.94353,-3.23591 0.55291,-2.17829 4.32691,-5.65244 6.1403,-5.65244 1.56663,0 5.92963,3.98638 11.63333,10.62913 4.41338,5.13998 6.42894,7.01143 7.55136,7.01143 2.70374,0 3.08332,-3.49242 3.7534,-34.53364 0.57808,-26.77945 0.90879,-32.24757 2.08825,-34.5284 1.37838,-2.66549 5.69514,-2.21091 6.65491,0.7008 0.68059,2.06473 0.95549,6.19214 1.25738,18.87797 0.46444,19.5167 0.66701,22.28753 1.70525,23.32577 0.24428,0.24428 0.90544,0.44414 1.46925,0.44414 h 1.02512 l 0.0658,10.83848 0.0658,10.83848 0.15867,-10.91323 c 0.13622,-9.36885 0.22962,-11.0632 0.66001,-11.97302 0.56928,-1.20342 0.67475,-4.09287 1.15645,-31.6799 0.1565,-8.9623 0.34996,-16.89347 0.42992,-17.62482 0.2616,-2.39267 1.03084,-4.19789 2.05489,-4.82232 2.07729,-1.26666 5.68557,-0.19812 6.38093,1.88961 0.55955,1.68001 0.6443,3.84898 0.97265,24.89293 0.31089,19.92472 0.52743,23.88665 1.37633,25.18224 0.39937,0.60951 0.66809,0.69896 1.86719,0.62155 1.1631,-0.0751 1.46262,-0.22025 1.76584,-0.85579 0.56995,-1.19458 0.94069,-6.51497 1.13425,-16.27722 0.24391,-12.30192 0.36278,-23.58776 0.72683,-25.90908 0.16685,-1.06394 0.49879,-2.44207 0.83216,-2.98148 0.603,-0.97567 0.98931,-1.55268 3.73075,-1.15751 l 2.06949,0.29831 0.58707,1.32718 c 0.91344,2.06497 1.12753,4.75459 1.46516,18.40633 0.46715,18.88902 0.87009,28.98917 1.21669,30.49724 0.17007,0.74001 0.53139,1.51365 0.80293,1.71921 0.54129,0.40977 2.41349,0.49708 2.97689,0.13884 1.00745,-0.6406 1.40044,-4.75586 1.73354,-18.15314 0.25139,-10.11121 0.66294,-16.18613 1.22466,-18.07767 0.80482,-2.71011 2.85258,-3.87858 5.00624,-2.8566 2.12587,1.00879 2.49489,3.5046 2.89632,19.58856 0.34863,13.96895 0.35601,52.08014 0.0118,60.69574 -0.29568,7.39972 -0.78925,10.29649 -2.27695,13.36324 -1.63163,3.36345 -5.65784,6.63573 -9.54858,7.76057 -1.58145,0.45721 -3.61798,0.52777 -17.19207,0.5957 -11.55955,0.0578 -15.73722,-0.0157 -16.75837,-0.29504 z"
         id="path10841"
         transform="scale(0.26458333)" /><path
         style="fill:#ffffff;fill-opacity:1;stroke-width:0.0528549"
         d="m 203.66335,408.06644 -0.01,-2.53704 0.23611,-0.20189 c 0.24845,-0.21244 0.28774,-0.21673 0.15696,-0.0171 -0.17248,0.26325 -0.31916,2.11453 -0.36073,4.55314 -0.007,0.40698 -0.0171,-0.4017 -0.0225,-1.79707 z"
         id="path10842"
         transform="scale(0.26458333)" /><path
         style="fill:#ffffff;fill-opacity:1;stroke-width:0.0110485"
         d="m 224.32963,355.79186 c 0,-0.0166 0.39351,-0.2525 0.60214,-0.36089 1.06522,-0.5534 2.04739,-0.59269 3.15436,-0.12618 0.25503,0.10747 0.75762,0.37024 0.9112,0.47639 0.0184,0.0127 -0.33987,0.0151 -2.32295,0.0151 -1.28962,0 -2.34475,-0.002 -2.34475,-0.004 z"
         id="path10843"
         transform="scale(0.26458333)" /></g></g></svg>
