<?xml version="1.0" encoding="UTF-8" standalone="no"?>
<!-- Created with Inkscape (http://www.inkscape.org/) -->

<svg
   width="23.323074mm"
   height="35.229313mm"
   viewBox="0 0 23.323074 35.229313"
   version="1.1"
   id="svg1"
   xml:space="preserve"
   xmlns="http://www.w3.org/2000/svg"
   xmlns:svg="http://www.w3.org/2000/svg"><defs
     id="defs1" /><g
     id="layer1"
     transform="translate(-80.942626,-102.77076)"><g
       id="g10839"><path
         d="m 92.337349,103.14562 c -1.093611,0.52917 -1.411111,1.55223 -2.328334,7.33778 l -0.811389,5.11528 -1.481666,-4.62139 c -0.9525,-2.96333 -1.799167,-4.90361 -2.293056,-5.36222 -1.658055,-1.5875 -4.480278,-0.52917 -4.480278,1.5875 0,0.56444 0.776111,3.95111 1.728611,7.54944 l 1.728612,6.56167 -0.987778,0.9525 c -2.046111,1.905 -2.151945,3.84528 -0.458611,9.38389 1.834444,6.06778 2.257777,6.31472 10.442222,6.35 7.161388,0 8.713608,-0.56445 10.159998,-3.70417 0.9525,-2.08139 0.9525,-11.14778 -0.0353,-13.93472 -0.38805,-1.05833 -0.67028,-2.54 -0.70555,-3.28083 0,-1.86973 -1.34056,-3.21028 -2.998614,-2.99862 -0.9525,0.10584 -1.27,-0.0353 -1.622778,-0.635 -0.211665,-0.45861 -0.881943,-0.98777 -1.446387,-1.23472 -0.846667,-0.35278 -0.987778,-0.56444 -0.846667,-1.34055 0.105834,-0.49389 0.282222,-2.15195 0.423334,-3.63361 0.211666,-2.57528 0.176388,-2.75167 -0.670278,-3.59834 -0.9525,-0.9525 -2.010834,-1.12889 -3.316111,-0.49389 z m 2.363611,1.51695 c 0.670278,0.81139 -0.141111,7.37305 -1.058334,8.29028 -0.599722,0.59972 -0.705555,1.16416 -0.705555,3.88055 0,1.72861 -0.03528,3.175 -0.07056,3.175 -6.491111,0.9525 -7.055555,0.9525 -7.3025,0.21167 -0.776107,-2.08139 -3.245551,-12.98222 -3.069162,-13.44084 0.282222,-0.74083 1.869722,-0.67027 2.293055,0.0706 0.176389,0.35278 1.128889,3.24556 2.116667,6.45583 1.023055,3.21028 1.975555,5.96195 2.187222,6.13834 0.670278,0.70555 1.023056,-0.49389 2.081389,-7.16139 0.599722,-3.77472 1.234722,-7.12611 1.446389,-7.47889 0.423333,-0.81139 1.481667,-0.88195 2.081389,-0.14111 z m 2.046111,9.06639 c 0.282222,0.28222 0.423333,1.62277 0.423333,3.70416 0,2.96334 -0.282222,3.91584 -0.881944,2.92806 -0.105834,-0.21167 -0.599722,-0.35278 -1.093611,-0.35278 -0.846667,0 -0.846667,-0.0705 -0.846667,-2.92805 0,-2.96334 0.282222,-3.77473 1.411111,-3.77473 0.3175,0 0.740833,0.17639 0.987778,0.42334 z m 4.268609,2.18722 c 0.28222,0.3175 0.38806,1.62278 0.3175,3.56305 -0.0706,2.50473 -0.21167,3.175 -0.70555,3.4925 -0.45862,0.28223 -0.811392,0.28223 -1.234726,0 -0.529166,-0.3175 -0.670278,-0.98777 -0.740833,-3.4925 -0.105833,-3.21027 0.176389,-4.05694 1.340555,-4.05694 0.352774,0 0.811384,0.21167 1.023054,0.49389 z m -4.762498,6.6675 c 0.493889,1.41111 -0.211667,1.905 -4.021667,2.89278 -1.799166,0.45861 -3.421944,0.98777 -3.598333,1.16416 -0.388056,0.38806 0.917222,3.24556 1.516944,3.24556 0.564445,0 0.740834,-0.9525 0.3175,-1.76389 -0.388055,-0.70556 -0.352777,-0.74083 0.3175,-0.35278 0.917223,0.45861 2.363612,2.64584 2.681112,3.98639 0.282222,1.12889 0.811388,1.51695 1.305277,1.02306 0.529167,-0.52917 -0.282222,-2.78695 -1.516944,-4.37445 -0.564445,-0.70555 -1.023056,-1.37583 -1.023056,-1.44639 0,-0.0705 0.846667,-0.3175 1.905,-0.56444 1.799167,-0.38806 3.139723,-1.27 3.457223,-2.18722 0.105833,-0.35278 0.388055,-0.35278 1.234722,0 1.27,0.52916 2.32833,0.28222 3.28083,-0.77611 0.70556,-0.74084 0.70556,-0.70556 0.70556,4.37444 0,5.67972 -0.3175,6.73806 -2.54,8.07861 -1.023057,0.635 -1.799168,0.70556 -6.84389,0.70556 -7.655278,0 -7.62,0.0353 -9.278056,-5.89139 -1.093611,-3.91584 -1.164167,-4.445 -0.776111,-5.75028 0.211667,-0.77611 0.776111,-1.65806 1.234722,-1.94028 0.987778,-0.67028 6.702778,-1.55222 9.383889,-1.48166 1.763889,0.0705 1.940278,0.14111 2.257778,1.05833 z"
         id="path1"
         style="fill:#000000;stroke:none;stroke-width:0.0352778" /><path
         style="fill:#ffffff;fill-opacity:1;stroke-width:0.298993"
         d="m 336.31932,515.76271 c -7.16148,-0.67968 -10.41137,-2.35393 -12.93802,-6.66534 -2.36337,-4.03278 -8.39487,-25.35153 -8.75207,-30.93481 -0.263,-4.11074 0.81536,-7.64866 3.4209,-11.22339 1.71469,-2.35251 4.81221,-3.52308 13.53266,-5.11407 8.79122,-1.60389 13.74302,-2.0885 21.52747,-2.10678 9.08584,-0.0213 9.2849,0.0512 10.5657,3.84822 0.62099,1.84098 0.62478,2.65183 0.0183,3.92977 -1.02865,2.16772 -4.35732,3.63911 -14.47095,6.39667 -7.20059,1.9633 -13.61097,4.00454 -14.25529,4.53929 -0.56076,0.46538 -0.49133,1.67232 0.23214,4.03555 1.32749,4.33629 4.07707,8.47803 5.62831,8.47803 1.38414,0 1.9665,-0.96114 1.9665,-3.24556 0,-1.53288 -0.18408,-2.3796 -0.80569,-3.70602 -0.44313,-0.94556 -0.7405,-1.7192 -0.66082,-1.7192 0.0797,0 0.67395,0.26991 1.32061,0.59982 3.56451,1.81847 8.03927,8.15013 10.20416,14.43859 1.25282,3.63909 1.83375,4.63834 3.04088,5.23049 0.6599,0.32371 0.93039,0.31159 1.6784,-0.0752 1.81289,-0.93748 1.76402,-4.13283 -0.13459,-8.79939 -1.31714,-3.23735 -2.78621,-5.68821 -5.94424,-9.91677 -1.40519,-1.88154 -2.55815,-3.51715 -2.56213,-3.6347 -0.0134,-0.39619 1.02163,-0.75714 5.36981,-1.87256 4.8693,-1.24912 7.58845,-2.20512 9.56945,-3.36445 1.92886,-1.12882 4.30877,-3.47242 4.93383,-4.85856 0.29478,-0.65369 0.77418,-1.26414 1.06535,-1.35656 0.29117,-0.0924 1.31483,0.11825 2.2748,0.46813 6.29207,2.29328 9.24206,1.88043 13.11118,-1.83489 1.17587,-1.12913 2.08364,-1.77615 2.34905,-1.6743 0.72758,0.2792 0.86292,3.8654 0.69266,18.35367 -0.16983,14.45172 -0.36449,16.85654 -1.68586,20.82726 -0.91417,2.74709 -2.81843,5.2171 -5.4579,7.07946 -5.58614,3.94145 -5.48793,3.92609 -25.80126,4.03508 -9.04453,0.0485 -17.60955,-0.0223 -19.03339,-0.15746 z"
         id="path10836"
         transform="scale(0.26458333)" /><path
         style="fill:#ffffff;fill-opacity:1;stroke-width:0.298993"
         d="m 364.24456,455.10368 c -1.17436,-1.18615 -1.6358,-1.35379 -4.63906,-1.68527 -2.627,-0.28995 -2.6959,-0.4732 -2.84983,-7.58047 -0.22943,-10.59262 0.65304,-15.75433 2.8913,-16.91179 1.97169,-1.0196 5.383,-0.12367 6.22714,1.63546 1.48688,3.09856 1.67717,21.26669 0.2583,24.66251 -0.23867,0.57122 -0.50289,1.03859 -0.58714,1.03859 -0.0843,0 -0.66958,-0.52157 -1.30071,-1.15903 z"
         id="path10837"
         transform="scale(0.26458333)" /><path
         style="fill:#ffffff;fill-opacity:1;stroke-width:0.298993"
         d="m 376.53769,465.05398 c -2.48989,-1.22815 -3.0026,-2.99951 -3.44606,-11.90579 -0.63436,-12.74052 0.45591,-16.61899 4.67175,-16.61899 2.41374,0 4.10976,1.32009 4.60982,3.58803 0.55384,2.51192 0.68932,7.60596 0.36179,13.60404 -0.46701,8.55261 -1.01718,10.3304 -3.52802,11.40025 -1.20721,0.51439 -1.50475,0.50686 -2.66928,-0.0675 z"
         id="path10838"
         transform="scale(0.26458333)" /><path
         style="fill:#ffffff;fill-opacity:1;stroke-width:0.298993"
         d="m 325.38466,456.05248 c -1.56043,-0.30141 -2.21686,-2.0346 -5.18606,-13.69293 -3.07308,-12.06621 -6.87784,-29.17593 -7.89865,-35.51971 -0.52339,-3.25257 -0.39843,-3.79923 1.03831,-4.5422 1.08895,-0.56312 3.60001,-0.58456 4.87422,-0.0416 2.12685,0.90624 2.16084,0.98817 7.85547,18.93549 6.71469,21.16216 9.59499,29.31178 10.77753,30.49432 0.84042,0.84042 1.14676,0.85837 1.89412,0.11102 1.36971,-1.36971 2.76565,-7.67905 5.85867,-26.47987 3.43212,-20.86204 4.92293,-28.19216 6.04549,-29.72499 0.71475,-0.97597 2.3482,-1.81912 3.51298,-1.81334 1.4048,0.007 3.20893,1.18555 3.88617,2.53869 0.52584,1.05063 0.59289,1.74754 0.56071,5.82772 -0.0713,9.04415 -2.27673,20.96287 -4.43112,23.94726 -1.60764,2.22699 -2.26819,3.52664 -2.58073,5.07762 -0.17974,0.89202 -0.41617,6.26372 -0.52538,11.9371 l -0.19857,10.31525 -6.57784,0.94863 c -11.41335,1.64599 -16.66924,2.11349 -18.90532,1.68157 z"
         id="path10839"
         transform="scale(0.26458333)" /></g></g></svg>
