<?xml version="1.0" encoding="UTF-8" standalone="no"?>
<!-- Created with Inkscape (http://www.inkscape.org/) -->

<svg
   width="23.912075mm"
   height="25.373549mm"
   viewBox="0 0 23.912075 25.373549"
   version="1.1"
   id="svg1"
   xml:space="preserve"
   xmlns="http://www.w3.org/2000/svg"
   xmlns:svg="http://www.w3.org/2000/svg"><defs
     id="defs1" /><g
     id="layer1"
     transform="translate(-98.779599,-100.68161)"><g
       id="g8"
       transform="translate(-1.0817725,18.870913)"><path
         d="m 109.13317,82.68306 c -0.49389,0.458611 -0.88195,0.987778 -0.88195,1.164167 0,0.141111 -0.52917,0.211666 -1.19944,0.141111 -0.9525,-0.105834 -1.41111,0.07056 -2.11667,0.776111 -0.77611,0.740833 -0.91722,1.234722 -0.91722,2.928056 -0.0353,2.046111 -0.0353,2.046111 -1.48167,2.751666 -1.905,0.9525 -2.857498,2.645834 -2.645828,4.833056 0.176388,2.2225 3.527778,9.172223 5.079998,10.512783 1.44639,1.30527 2.96333,1.51694 9.34861,1.34055 4.83305,-0.10583 5.18583,-0.14111 6.52639,-1.05833 2.46944,-1.62278 2.92805,-3.10445 2.92805,-9.313336 -0.0353,-4.268611 -0.14111,-5.609167 -0.70555,-7.196667 -0.38806,-1.058333 -0.67028,-2.398889 -0.70556,-2.928056 0,-1.516944 -1.51694,-2.822222 -3.06916,-2.645833 -0.98778,0.105833 -1.44639,-0.03528 -2.11667,-0.705556 -0.74083,-0.740833 -1.09361,-0.846667 -2.32833,-0.670278 -0.98778,0.141111 -1.69334,0.03528 -2.15195,-0.3175 -1.05833,-0.776111 -2.61055,-0.599722 -3.56305,0.388056 z m 2.92805,0.9525 c 0.24695,0.246944 0.42333,1.446389 0.42333,2.8575 v 2.398889 l -0.77611,-0.529166 c -0.42333,-0.3175 -1.05833,-0.564445 -1.41111,-0.564445 -0.52916,0 -0.635,-0.3175 -0.635,-1.869723 0,-1.905 0.42334,-2.716388 1.41111,-2.716388 0.3175,0 0.74084,0.176388 0.98778,0.423333 z m 4.26861,0.776111 c 0.28222,0.3175 0.38806,1.622778 0.3175,3.563056 -0.0706,2.504722 -0.21166,3.175 -0.70555,3.4925 -0.45861,0.282222 -0.81139,0.282222 -1.23473,0 -0.52916,-0.3175 -0.67027,-0.987778 -0.74083,-3.4925 -0.10583,-3.210278 0.17639,-4.056945 1.34056,-4.056945 0.35277,0 0.81139,0.211667 1.02305,0.493889 z m -8.50194,1.340556 c 0.24694,0.246944 0.42333,0.881944 0.42333,1.446389 0,0.811389 -0.24694,1.093611 -1.23472,1.516944 -0.67028,0.246945 -1.30528,0.493889 -1.41111,0.493889 -0.10584,0 -0.17639,-0.670278 -0.17639,-1.516944 0,-1.587501 0.45861,-2.363612 1.41111,-2.363612 0.3175,0 0.74083,0.176389 0.98778,0.423334 z m 12.73528,0.07055 c 0.28222,0.3175 0.38805,1.622778 0.3175,3.563056 -0.0706,2.504722 -0.21167,3.175 -0.70556,3.4925 -0.45861,0.282222 -0.81139,0.282222 -1.23472,0 -0.52917,-0.3175 -0.67028,-0.987778 -0.74084,-3.4925 -0.10583,-3.210278 0.17639,-4.056945 1.34056,-4.056945 0.35278,0 0.81139,0.211667 1.02306,0.493889 z m -9.34862,3.951112 c 0.59973,0.564444 0.70556,1.481666 0.28223,2.116666 -0.14111,0.176389 -1.23473,0.9525 -2.43417,1.693334 -1.23472,0.705555 -2.29306,1.446389 -2.39889,1.622777 -0.28222,0.458612 1.65806,4.233334 2.15195,4.233334 0.84666,0 0.88194,-0.670278 0.14111,-2.081389 -0.91723,-1.834445 -0.88195,-1.905 0.28222,-1.305278 1.51694,0.776111 2.8575,2.398889 3.56305,4.303887 0.81139,2.11667 2.04612,2.71639 1.65806,0.81139 -0.38806,-2.010832 -1.65806,-4.198055 -3.06917,-5.326944 l -1.34055,-1.093611 1.37583,-0.987777 c 0.77611,-0.564445 1.41111,-1.199445 1.41111,-1.375834 0,-0.211666 0.38806,-0.105833 0.88195,0.211667 0.52916,0.352778 1.30527,0.493889 1.97555,0.423333 0.81139,-0.141111 1.30528,0.03528 1.94028,0.670278 1.09361,1.093611 2.71639,1.058333 3.88056,-0.07056 l 0.91722,-0.917222 -0.14111,4.938889 c -0.10584,4.303891 -0.21167,5.044721 -0.84667,5.926671 -1.37583,1.905 -2.61056,2.2225 -8.36083,2.2225 -7.19667,0 -7.12611,0.0353 -9.8425,-5.43278 -1.83445,-3.739442 -2.08139,-4.480276 -1.94028,-5.820831 0.10583,-0.846667 0.45861,-1.834445 0.81139,-2.187223 0.67028,-0.635 6.87916,-3.104444 7.97278,-3.104444 0.3175,-0.03528 0.84666,0.211667 1.12888,0.529167 z"
         id="path1"
         style="fill:#000000;stroke:none;stroke-width:0.0352778" /><path
         style="fill:#ffffff;stroke-width:0.454287"
         d="m 412.26588,399.32895 c -11.45805,-0.92021 -14.43593,-4.02286 -24.24632,-25.26217 -4.56466,-9.8824 -4.98018,-11.2726 -4.73955,-15.85713 0.27541,-5.24721 1.93298,-8.5812 5.13578,-10.32995 7.36838,-4.02318 25.66983,-10.61001 28.29581,-10.18387 1.94736,0.31601 4.42675,2.58702 5.12099,4.6906 1.16713,3.53642 -0.46789,5.30018 -10.87437,11.73065 -2.83043,1.74901 -5.8824,3.81297 -6.78215,4.58658 l -1.63591,1.40656 0.59669,2.0006 c 0.78284,2.62475 3.76782,8.70466 5.61703,11.44097 1.69788,2.51238 3.11239,3.1007 4.47977,1.86324 1.28701,-1.16473 0.91647,-3.03989 -1.68657,-8.53495 -1.15215,-2.43221 -1.9607,-4.55632 -1.79679,-4.72024 0.64345,-0.64345 5.63421,2.56317 8.68872,5.5826 3.43459,3.39515 5.41,6.45138 7.91088,12.23919 0.85661,1.98246 2.31943,4.40545 3.25071,5.38443 4.45467,4.68283 4.59511,-2.65996 0.22277,-11.64782 -2.59213,-5.32843 -5.67086,-9.27245 -9.99356,-12.80231 l -3.43645,-2.80615 3.50941,-2.51258 c 1.93018,-1.38193 4.36031,-3.43571 5.4003,-4.56396 l 1.89089,-2.05137 2.64386,1.31661 c 2.26776,1.12932 3.17279,1.31685 6.36215,1.31831 4.37357,0.002 5.59345,0.39311 7.99574,2.56343 2.37544,2.14607 4.5661,3.01942 7.59318,3.02719 3.05449,0.008 5.57892,-1.18756 8.72769,-4.13287 1.97606,-1.84837 2.21134,-1.96331 2.00616,-0.97999 -0.12785,0.61268 -0.35762,6.83798 -0.5106,13.83401 -0.44867,20.51885 -0.86662,22.82711 -4.95179,27.34794 -2.61198,2.89053 -5.82488,4.52786 -10.56041,5.38169 -4.33731,0.78203 -27.25696,1.23111 -34.23406,0.67076 z"
         id="path2"
         transform="scale(0.26458333)" /><path
         style="fill:#ffffff;stroke-width:0.454287"
         d="m 398.82758,334.94984 c -0.40541,-2.70345 0.0435,-7.36448 0.90879,-9.43532 1.50474,-3.60134 6.97794,-3.52398 8.36062,0.11817 0.82097,2.16255 1.01286,4.42994 0.49952,5.90248 -0.58169,1.66864 -2.19091,2.75858 -6.41507,4.34496 l -3.04298,1.1428 z"
         id="path3"
         transform="scale(0.26458333)" /><path
         style="fill:#ffffff;stroke-width:0.454287"
         d="m 421.96028,333.60784 c -1.33685,-0.91199 -3.15004,-1.7073 -4.21942,-1.85073 -2.56323,-0.3438 -2.94743,-1.22464 -2.92871,-6.71442 0.0183,-5.36717 0.67182,-8.01098 2.29597,-9.28854 2.37921,-1.87149 6.14184,-0.67046 7.0034,2.23547 0.61295,2.06741 1.14195,17.28407 0.59955,17.24599 -0.22362,-0.0157 -1.46147,-0.7482 -2.75079,-1.62777 z"
         id="path4"
         transform="scale(0.26458333)" /><path
         style="fill:#ffffff;stroke-width:0.454287"
         d="m 433.50841,345.27026 c -1.57735,-1.24074 -2.11678,-3.8074 -2.45757,-11.69331 -0.50673,-11.72592 0.48398,-15.64479 4.03028,-15.94223 2.37747,-0.1994 4.24688,0.91876 4.9667,2.97076 0.7512,2.14143 0.68676,17.14433 -0.0897,20.88451 -0.88246,4.25076 -3.72989,5.91969 -6.44971,3.78027 z"
         id="path5"
         transform="scale(0.26458333)" /><path
         style="fill:#ffffff;stroke-width:0.454287"
         d="m 449.86816,350.90961 c -1.794,-0.97353 -2.52149,-4.13568 -2.86782,-12.46544 -0.43649,-10.49798 0.49013,-14.54297 3.56636,-15.56838 1.64143,-0.54715 4.41875,0.81463 5.2551,2.57669 1.40007,2.94972 0.97789,20.79348 -0.56244,23.77215 -0.64275,1.24295 -2.42162,2.41509 -3.60542,2.37568 -0.30056,-0.01 -1.10416,-0.32082 -1.78578,-0.6907 z"
         id="path6"
         transform="scale(0.26458333)" /></g></g></svg>
