<?xml version="1.0" encoding="UTF-8" standalone="no"?>
<!-- Created with Inkscape (http://www.inkscape.org/) -->

<svg
   width="116.74093mm"
   height="165.57704mm"
   viewBox="0 0 116.74093 165.57704"
   version="1.1"
   id="svg1"
   xml:space="preserve"
   xmlns="http://www.w3.org/2000/svg"
   xmlns:svg="http://www.w3.org/2000/svg"><defs
     id="defs1" /><g
     id="layer1"
     transform="translate(-39.88605,-6.435574)"><g
       id="g65"><path
         style="fill:#655b34"
         d="m 94.886403,171.69109 c -0.50438,-0.50438 -0.44231,-0.2728 -1.87896,-7.00989 -0.66719,-3.1287 -1.38682,-6.16479 -1.5992,-6.74688 -0.21238,-0.58208 -0.62412,-2.48839 -0.91498,-4.23623 -0.57555,-3.45859 -1.20061,-5.83802 -1.59814,-6.08371 -0.13902,-0.0859 -7.36897,1.11882 -16.06656,2.67718 -12.818158,2.29666 -16.289952,2.83318 -18.327347,2.83227 -9.123814,-0.004 -13.68124,-5.37689 -14.458114,-17.04492 -0.208894,-3.13744 -1.872336,-2.4459 13.060199,-5.42947 6.953489,-1.38933 12.747796,-2.6269 12.876238,-2.75016 0.333772,-0.3203 -3.831268,-24.09878 -4.249238,-24.25917 -0.180524,-0.0693 -1.405859,0.59487 -2.722968,1.47587 -3.563775,2.38377 -5.299867,2.70397 -5.299867,0.97751 0,-0.80953 0.760304,-1.54191 3.30469,-3.18331 3.854278,-2.48643 3.530115,-3.112316 -3.569273,-6.891426 C 42.57811,90.235274 41.29967,85.484634 48.335529,77.039974 55.155894,68.853954 55.748999,63.142207 51.730921,44.341529 48.305603,28.31439 49.530847,22.443603 56.989648,19.144221 59.67794,17.955061 127.35573,6.120762 129.35905,6.489535 c 7.21915,1.328904 9.32452,4.458014 11.6483,17.312288 0.86702,4.796004 2.58622,14.137351 3.82046,20.758549 1.23424,6.621198 3.03043,16.443854 3.99154,21.828125 0.96112,5.38427 2.4628,13.540047 3.33707,18.123957 5.15021,27.003046 5.60637,34.054246 2.61641,40.443636 -2.65135,5.66581 -7.63091,9.83693 -14.87048,12.45622 -4.79905,1.7363 -4.78157,1.72594 -4.6414,2.75213 0.0628,0.4601 1.13578,5.3014 2.3843,10.75843 1.24853,5.45703 2.46708,10.84411 2.70789,11.9713 0.57584,2.69532 0.85235,2.95658 2.90066,2.74067 7.38047,-0.77797 8.86949,-0.50369 8.11002,1.49387 -0.33298,0.87579 -0.42215,0.89471 -5.85112,1.2418 -7.45362,0.47653 -6.81145,0.86511 -7.94132,-4.80536 -0.41411,-2.07831 -0.88017,-4.13593 -1.03568,-4.57249 -0.15552,-0.43656 -1.16112,-4.88186 -2.23467,-9.87845 -1.07355,-4.99658 -2.08317,-9.21594 -2.24358,-9.37636 -0.28677,-0.28677 -39.509157,6.65183 -39.919187,7.06186 -0.26497,0.26497 0.30498,3.18106 2.03137,10.39343 0.87173,3.64182 1.78597,7.67968 2.03164,8.97301 0.62227,3.2758 0.28896,3.11482 5.399407,2.60765 5.23306,-0.51934 6.67849,-0.0284 5.59848,1.90147 -0.5219,0.93258 -11.491027,1.83755 -12.312757,1.01582 z M 57.441666,150.12944 c 6.531086,-1.21103 10.226681,-6.62018 9.977915,-14.60444 -0.143416,-4.603 1.24911,-4.37142 -12.530711,-2.08387 -13.56376,2.25169 -12.464205,1.73963 -11.756869,5.47514 1.801011,9.51131 5.950793,12.76311 14.309665,11.21317 z M 100.671,142.33303 c 40.71922,-7.20448 42.00771,-7.5673 47.89463,-13.48628 6.1911,-6.22483 6.4509,-11.03302 1.98807,-36.793666 -0.85715,-4.94771 -2.58409,-15.36568 -3.83763,-23.151046 -7.86436,-48.842914 -9.73292,-56.120541 -15.08571,-58.755714 -3.14921,-1.550347 -1.31572,-1.783417 -38.661687,4.914606 -39.605348,7.103242 -37.450026,6.481501 -39.732135,11.461435 -1.434605,3.130543 -1.832232,0.311166 8.029279,56.931759 10.508906,60.337646 10.003286,55.767646 6.860815,62.010796 -1.21804,2.41988 -1.277332,2.95468 -0.301239,2.71714 0.311546,-0.0758 15.09207,-2.70789 32.845607,-5.84903 z m -6.191727,-19.51965 c -3.69717,-1.93863 1.58643,-3.45392 22.463607,-6.44236 9.80883,-1.40407 15.36308,-2.35284 18.58958,-3.17545 1.92557,-0.49093 2.57709,-0.22216 2.57709,1.06313 0,0.70123 -0.12524,0.91881 -0.59532,1.03428 -0.32742,0.0804 -9.76312,1.82638 -20.96822,3.87989 -11.20511,2.05351 -20.611047,3.78767 -20.902087,3.85369 -0.29104,0.066 -0.81513,-0.0299 -1.16465,-0.21318 z m -11.82916,-8.51606 c -0.7544,-1.96593 -2.119,-1.63496 31.718027,-7.69293 31.55999,-5.6503 31.15651,-5.59397 31.5347,-4.40241 0.4961,1.56308 2.8434,1.0262 -31.34994,7.17038 -29.590507,5.3171 -31.631407,5.63216 -31.902787,4.92496 z m -1.43028,-9.8914 c -0.69284,-0.56102 -0.56935,-1.31692 0.30428,-1.86251 0.62177,-0.3883 59.967507,-11.151786 61.486687,-11.151786 1.90202,0 1.84065,2.1041 -0.0769,2.63726 -1.1204,0.31151 -60.096777,10.856486 -60.718617,10.856486 -0.22184,0 -0.66978,-0.21575 -0.99543,-0.47945 z m -1.50162,-9.626166 c -4.05885,-1.96141 4.93179,-4.24619 32.065297,-8.14873 12.60191,-1.8125 19.64568,-3.03478 25.26479,-4.3841 4.16961,-1.00125 5.06988,-0.97593 5.42808,0.15267 0.21063,0.66365 -0.40485,1.46162 -1.3008,1.68649 -0.65611,0.16467 -60.725017,11.02085 -60.819347,10.9918 -0.032,-0.01 -0.31909,-0.14401 -0.63802,-0.29813 z m -2.2036,-10.27729 c -0.37726,-0.70493 -0.0942,-1.54727 0.62361,-1.85571 1.34626,-0.5785 61.169027,-11.144949 61.823407,-10.919827 0.75785,0.26072 1.03805,1.405485 0.46119,1.884231 -0.66136,0.54888 -31.87696,6.329736 -55.937997,10.359226 -7.53323,1.26159 -6.61721,1.19166 -6.97021,0.53208 z m 25.405347,-27.67363 c -4.238167,-0.810908 -7.408327,-4.036943 -7.408327,-7.538913 0,-2.475007 1.50736,-2.360143 2.57659,0.196342 3.026917,7.237219 14.341657,5.739759 14.360637,-1.900572 0.008,-3.265484 2.17709,-4.368508 2.63658,-1.34082 0.94277,6.21216 -5.5395,11.851738 -12.16548,10.583963 z M 80.365813,47.96908 c -1.93122,-1.080767 0.0299,-6.401263 2.82793,-7.67217 3.44399,-1.564307 8.34914,1.186611 8.34914,4.682382 0,1.942199 -1.65657,1.859416 -2.7432,-0.137085 -2.02869,-3.727372 -5.70398,-3.128051 -6.38436,1.041081 -0.31662,1.940106 -1.0238,2.659807 -2.04951,2.085792 z m 37.257817,-6.734501 c -0.97254,-0.972544 -0.8521,-3.79464 0.23185,-5.432599 2.96119,-4.474661 10.99365,-2.746352 10.99365,2.365455 0,2.247612 -1.63838,2.224306 -2.71661,-0.03864 -1.71244,-3.594017 -5.54151,-3.028066 -6.37074,0.941621 -0.51742,2.476991 -1.16742,3.134898 -2.13815,2.164168 z M 60.574871,95.823394 c -0.03149,-1.59372 -4.391451,-24.905413 -4.67576,-25.000182 -0.177468,-0.05916 -0.683091,0.646603 -1.151506,1.607294 -0.45931,0.942018 -2.065013,3.29738 -3.568228,5.234138 -6.49608,8.36962 -6.110908,10.29646 3.124408,15.62998 5.631206,3.2521 6.29063,3.518 6.271086,2.52877 z"
         id="path17" /><path
         style="fill:#595542"
         d="m 95.709973,171.90747 c -0.99738,-0.1613 -1.05644,-0.32009 -2.29397,-6.16794 -0.6005,-2.83765 -1.38484,-6.11187 -1.74298,-7.27604 -0.35813,-1.16417 -0.93722,-3.73933 -1.28687,-5.72259 -0.67238,-3.81394 -1.10034,-5.06869 -1.77296,-5.19822 -0.22667,-0.0436 -7.46119,1.17528 -16.07671,2.70874 -12.439177,2.21403 -16.169609,2.78811 -18.117258,2.78811 -8.994038,0 -13.485401,-5.33742 -14.341407,-17.04296 -0.20985,-2.86963 -1.257941,-2.44124 12.910896,-5.27714 13.704463,-2.74295 13.154169,-2.60114 13.154169,-3.3899 0,-1.29564 -4.024231,-23.40138 -4.313159,-23.69288 -0.251138,-0.25336 -0.688918,-0.0621 -2.038233,0.89053 -2.586961,1.8264 -4.861375,2.84599 -5.539278,2.48319 -1.230564,-0.65858 -0.449557,-1.94952 2.196664,-3.63092 4.612409,-2.9307 4.417767,-3.435536 -2.830325,-7.340966 C 42.552777,90.075994 41.342607,85.531454 48.519493,76.890034 55.063755,69.010329 55.769545,62.891785 52.11146,45.750997 48.377187,28.253214 49.315471,22.865233 56.698532,19.410282 58.528918,18.553741 125.09391,6.428453 127.92662,6.435577 c 7.48472,0.01882 10.62843,4.164706 12.95921,17.09042 0.81345,4.511146 2.47752,13.559896 3.69792,20.108333 1.22041,6.548438 2.88876,15.656719 3.70745,20.240625 0.81869,4.583906 2.14826,11.846719 2.9546,16.139579 6.39051,34.022206 6.68813,38.611886 2.9696,45.796446 -2.79781,5.40567 -7.39587,9.04508 -14.76697,11.68823 -5.0981,1.82808 -4.79105,0.57504 -2.53825,10.35852 0.94107,4.08692 2.13213,9.47798 2.6468,11.98014 1.36644,6.6433 0.84489,6.02333 4.84503,5.75924 6.34701,-0.41904 6.79169,-0.3842 6.88221,0.5393 0.15592,1.59073 -0.0817,1.6728 -6.03092,2.08321 -7.01356,0.48384 -6.46466,0.83654 -7.56567,-4.86134 -0.35149,-1.81901 -0.87066,-4.02166 -1.15372,-4.89479 -0.28306,-0.87312 -1.29853,-5.27844 -2.2566,-9.78958 -2.11325,-9.95039 -1.86718,-9.12813 -2.73174,-9.12813 -1.607,0 -39.086887,6.95878 -39.370627,7.30982 -0.36809,0.45542 -0.42397,0.15158 1.89147,10.28497 1.06403,4.65667 2.06305,9.17553 2.22006,10.04192 0.39939,2.20397 0.17341,2.13171 5.421887,1.73363 5.18647,-0.39337 5.53843,-0.31823 5.3923,1.15126 -0.0964,0.96997 -0.31948,1.03582 -4.97445,1.46895 -4.950597,0.46063 -5.622567,0.4995 -6.416237,0.37114 z M 57.188452,150.27853 c 6.16088,-1.09878 10.017209,-5.76806 10.442346,-12.64368 0.148841,-2.40718 -0.191952,-5.63019 -0.643016,-6.08125 -0.220811,-0.22081 -23.556944,3.53807 -24.117997,3.88482 -0.654547,0.40453 0.559184,6.87333 1.778533,9.47902 2.122185,4.53501 6.552401,6.42899 12.540134,5.36109 z m 43.385298,-7.82579 c 39.3004,-6.95617 40.14015,-7.17035 46.14449,-11.7693 8.02808,-6.14901 8.56951,-11.59472 3.84078,-38.630356 -0.73813,-4.22011 -2.47606,-14.69761 -3.86208,-23.283337 -5.46539,-33.855594 -8.7337,-50.24921 -10.83852,-54.365201 -1.54708,-3.025315 -4.37892,-4.968504 -7.61982,-5.228652 -2.73072,-0.219197 -68.142934,11.569807 -70.508322,12.707457 -2.061239,0.991368 -4.044065,3.07828 -4.771161,5.021618 -1.163671,3.110188 -1.60128,0.08615 8.14052,56.253975 10.499776,60.538066 10.005476,56.159086 7.012091,62.119386 -1.252607,2.49414 -1.388785,2.9987 -0.809328,2.9987 0.201172,0 15.173283,-2.62093 33.27135,-5.82429 z m -6.094477,-19.63936 c -3.69717,-1.93863 1.58643,-3.45392 22.463607,-6.44236 9.80883,-1.40407 15.36308,-2.35284 18.58958,-3.17545 1.92557,-0.49093 2.57709,-0.22216 2.57709,1.06313 0,0.70123 -0.12524,0.91881 -0.59532,1.03428 -0.32742,0.0804 -9.76312,1.82638 -20.96822,3.87989 -11.20511,2.05351 -20.611047,3.78767 -20.902087,3.85369 -0.29104,0.066 -0.81513,-0.0299 -1.16465,-0.21318 z m -11.82916,-8.51606 c -0.7544,-1.96593 -2.119,-1.63496 31.718027,-7.69293 31.55999,-5.6503 31.15651,-5.59397 31.5347,-4.40241 0.4961,1.56308 2.8434,1.0262 -31.34994,7.17038 -29.590507,5.3171 -31.631407,5.63216 -31.902787,4.92496 z m -1.43028,-9.8914 c -0.69284,-0.56102 -0.56935,-1.31692 0.30428,-1.86251 0.62177,-0.3883 59.967507,-11.151786 61.486687,-11.151786 1.90202,0 1.84065,2.1041 -0.0769,2.63726 -1.1204,0.31151 -60.096777,10.856486 -60.718617,10.856486 -0.22184,0 -0.66978,-0.21575 -0.99543,-0.47945 z m -1.50162,-9.626166 c -4.05885,-1.96141 4.93179,-4.24619 32.065297,-8.14873 12.60191,-1.8125 19.64568,-3.03478 25.26479,-4.3841 4.16961,-1.00125 5.06988,-0.97593 5.42808,0.15267 0.21063,0.66365 -0.40485,1.46162 -1.3008,1.68649 -0.65611,0.16467 -60.725017,11.02085 -60.819347,10.9918 -0.032,-0.01 -0.31909,-0.14401 -0.63802,-0.29813 z m -2.2036,-10.27729 c -0.37726,-0.70493 -0.0942,-1.54727 0.62361,-1.85571 1.34626,-0.5785 61.169027,-11.144949 61.823407,-10.919827 0.75785,0.26072 1.03805,1.405485 0.46119,1.884231 -0.66136,0.54888 -31.87696,6.329736 -55.937997,10.359226 -7.53323,1.26159 -6.61721,1.19166 -6.97021,0.53208 z m 25.405347,-27.67363 c -4.238167,-0.810908 -7.408327,-4.036943 -7.408327,-7.538913 0,-2.475007 1.50736,-2.360143 2.57659,0.196342 3.026917,7.237219 14.341657,5.739759 14.360637,-1.900572 0.008,-3.265484 2.17709,-4.368508 2.63658,-1.34082 0.94277,6.21216 -5.5395,11.851738 -12.16548,10.583963 z M 80.365813,47.96908 c -1.93122,-1.080767 0.0299,-6.401263 2.82793,-7.67217 3.44399,-1.564307 8.34914,1.186611 8.34914,4.682382 0,1.942199 -1.65657,1.859416 -2.7432,-0.137085 -2.02869,-3.727372 -5.70398,-3.128051 -6.38436,1.041081 -0.31662,1.940106 -1.0238,2.659807 -2.04951,2.085792 z m 37.257817,-6.734501 c -0.97254,-0.972544 -0.8521,-3.79464 0.23185,-5.432599 2.96119,-4.474661 10.99365,-2.746352 10.99365,2.365455 0,2.247612 -1.63838,2.224306 -2.71661,-0.03864 -1.71244,-3.594017 -5.54151,-3.028066 -6.37074,0.941621 -0.51742,2.476991 -1.16742,3.134898 -2.13815,2.164168 z M 60.128005,92.518284 c -2.73085,-15.53586 -3.945586,-21.866646 -4.212677,-21.955011 -0.168123,-0.05562 -0.729353,0.768236 -1.247177,1.830796 -0.517825,1.06256 -2.144947,3.470715 -3.615828,5.351465 -6.550149,8.37536 -6.090585,10.34885 3.696169,15.87234 6.521312,3.68053 6.230207,3.74003 5.379513,-1.09959 z"
         id="path16" /><path
         style="fill:#4d4836"
         d="m 95.709973,171.90747 c -1.0055,-0.16261 -1.04656,-0.27702 -2.45114,-6.8294 -0.68628,-3.20145 -1.41207,-6.22094 -1.61287,-6.70997 -0.20081,-0.48903 -0.60951,-2.3345 -0.90824,-4.10104 -0.94452,-5.58557 -1.34447,-6.78378 -2.26436,-6.78378 -0.34324,0 -7.64789,1.25016 -16.23256,2.77813 -16.666827,2.9665 -18.367427,3.15243 -21.683713,2.37072 -6.432462,-1.51624 -9.594746,-6.57785 -10.494916,-16.79836 -0.231726,-2.63101 -1.252507,-2.22952 12.71925,-5.00272 13.610103,-2.70142 13.361459,-2.63423 13.361459,-3.61065 0,-1.19387 -3.98607,-23.5121 -4.246154,-23.77445 -0.153485,-0.15483 -0.972122,0.25631 -2.167432,1.08854 -3.516504,2.44834 -5.517473,3.11066 -5.886367,1.94837 -0.268251,-0.84518 0.317687,-1.56005 2.330539,-2.84336 4.8525,-3.09373 4.661046,-3.890766 -1.73135,-7.207776 -12.149328,-6.30428 -13.262712,-10.67922 -5.188041,-20.38594 5.954143,-7.157586 6.495107,-13.605291 2.641631,-31.485412 -3.457958,-16.044922 -2.377835,-21.692473 4.801995,-25.107794 1.70145,-0.809351 68.497246,-12.99679 71.189276,-12.989065 6.60516,0.01895 10.80261,4.648901 12.35033,13.622901 0.45176,2.619375 2.29799,12.706231 4.10273,22.415236 1.80475,9.709006 3.88333,21.079474 4.61906,25.267708 0.73574,4.188235 2.11278,11.663096 3.0601,16.610806 6.82448,35.643396 6.08181,42.064726 -5.76797,49.871276 -2.29746,1.51354 -3.24821,1.94449 -8.21742,3.72475 -2.49888,0.89523 -3.19307,1.3743 -2.98577,2.06049 0.20709,0.68552 3.20506,13.83801 3.98911,17.50077 1.97107,9.20798 0.87899,8.27313 9.25886,7.92583 2.91041,-0.12062 2.91041,-0.12062 2.98821,0.67313 0.15592,1.59073 -0.0817,1.6728 -6.03092,2.08321 -7.0062,0.48334 -6.46598,0.82632 -7.55392,-4.79585 -0.34502,-1.783 -0.85484,-3.98565 -1.13294,-4.8948 -0.27809,-0.90914 -1.32458,-5.50437 -2.32553,-10.21163 -1.26452,-5.94678 -1.94102,-8.61979 -2.21678,-8.759 -0.4815,-0.24307 -39.556097,6.87827 -39.949377,7.28077 -0.3241,0.33171 0.0812,2.41734 2.21858,11.41614 0.80233,3.37797 1.64529,7.12498 1.87325,8.32669 0.54875,2.89278 0.18683,2.74034 5.541777,2.33418 5.18647,-0.39337 5.53843,-0.31823 5.3923,1.15126 -0.0964,0.96997 -0.31948,1.03582 -4.97445,1.46895 -4.950597,0.46063 -5.622567,0.4995 -6.416237,0.37114 z M 57.188452,150.27853 c 6.16088,-1.09878 10.017209,-5.76806 10.442346,-12.64368 0.148841,-2.40718 -0.191952,-5.63019 -0.643016,-6.08125 -0.220811,-0.22081 -23.556944,3.53807 -24.117997,3.88482 -0.654547,0.40453 0.559184,6.87333 1.778533,9.47902 2.122185,4.53501 6.552401,6.42899 12.540134,5.36109 z m 39.778391,-7.17094 c 16.007287,-2.84299 30.830567,-5.47191 32.940617,-5.84206 11.34246,-1.98972 19.00502,-6.47722 22.08405,-12.93329 2.49951,-5.24094 2.37694,-10.41886 -0.67018,-28.310406 -0.86743,-5.09323 -2.29344,-13.66573 -3.16891,-19.05 C 137.82703,13.469186 137.00043,10.567268 128.81717,9.092303 126.56776,8.686865 60.300033,20.456195 57.690629,21.724572 c -2.849597,1.38513 -4.770654,4.048629 -5.34787,7.414693 -0.339694,1.980946 -0.615447,0.131114 3.876467,26.00444 0.92214,5.31151 2.470755,14.241198 3.441365,19.84375 0.97061,5.602549 2.518423,14.532239 3.439583,19.843749 0.921161,5.311506 2.468646,14.241196 3.438857,19.843746 0.97021,5.60255 2.17095,12.52072 2.66831,15.3737 1.375752,7.89163 1.172782,10.71294 -1.095613,15.22968 -1.295742,2.58003 -1.395189,2.99879 -0.712074,2.99851 0.254661,-1e-4 13.559899,-2.32627 29.567189,-5.16925 z m -2.84427,-20.50093 c -2.84631,-1.75248 3.18452,-3.32342 24.286747,-6.32633 5.0994,-0.72566 11.05253,-1.68654 13.22916,-2.13529 5.68275,-1.17159 5.62684,-1.16427 6.07195,-0.79486 0.41464,0.34412 0.54791,1.46616 0.1997,1.68137 -1.15692,0.71501 -43.134747,7.97704 -43.787557,7.57511 z m -11.24479,-8.10694 c -0.47298,-0.19085 -0.40812,-0.99647 0.13229,-1.64308 0.42921,-0.51357 59.165227,-11.41086 61.504117,-11.41086 1.28998,0 1.80339,1.62447 0.67296,2.12928 -0.68459,0.30571 -60.591787,11.11062 -61.426917,11.079 -0.30345,-0.0115 -0.70055,-0.0809 -0.88245,-0.15434 z m -1.76652,-10.29419 c -0.47307,-0.47306 -0.20099,-1.2522 0.58195,-1.66651 0.99511,-0.52659 61.510417,-11.234726 61.944347,-10.961006 0.68267,0.43062 0.539,1.71888 -0.23635,2.11926 -0.74976,0.38717 -59.549097,10.923506 -60.959987,10.923506 -0.50309,0 -1.10157,-0.18686 -1.32996,-0.41525 z m -1.58512,-9.722546 c -2.51638,-1.84002 6.75773,-4.08523 31.331317,-7.58514 13.82729,-1.96937 21.39361,-3.29552 27.29617,-4.78421 3.06469,-0.77294 4.18925,-0.62298 4.18925,0.55865 0,1.09665 -0.53328,1.21204 -31.06564,6.72212 -32.022887,5.77907 -31.025417,5.61921 -31.751097,5.08858 z m -1.82979,-9.88233 c -0.31204,-0.31205 -0.18804,-1.33665 0.20083,-1.65939 0.36723,-0.30477 59.478037,-11.095581 61.217877,-11.17546 1.49677,-0.06872 2.24845,1.606596 0.89918,2.004082 -2.87323,0.84644 -59.737917,11.007148 -61.601807,11.007148 -0.29683,0 -0.61906,-0.0794 -0.71608,-0.17638 z M 101.13875,56.213875 c -2.549847,-0.917723 -4.171017,-2.489911 -5.084187,-4.930576 -1.3584,-3.63065 0.53916,-5.092496 2.02597,-1.560775 3.143577,7.467125 13.975957,5.647935 14.605857,-2.452907 0.21077,-2.710672 0.74391,-3.311412 1.90676,-2.148554 0.76594,0.765934 0.61424,4.244452 -0.26527,6.08305 -2.06076,4.307941 -8.42378,6.724871 -13.18913,5.009762 z M 80.175113,47.488183 c -0.89148,-1.665741 0.23553,-5.211404 2.04997,-6.449391 3.26487,-2.227612 7.18635,-1.088316 8.79849,2.556201 1.24981,2.825407 -0.64028,3.771899 -2.15888,1.08109 -2.14798,-3.806015 -5.76118,-3.122135 -6.58983,1.247272 -0.38404,2.025072 -1.43448,2.807903 -2.09975,1.564828 z m 37.570277,-6.358638 c -0.69484,-0.694838 -0.90733,-2.073795 -0.53508,-3.472357 1.37157,-5.153 8.96872,-5.961502 11.13801,-1.185325 1.46234,3.219666 -0.62019,4.554184 -2.21601,1.420056 -1.62736,-3.196062 -5.86974,-2.800378 -6.39768,0.596708 -0.4333,2.788183 -1.03851,3.591653 -1.98924,2.640918 z M 60.695462,96.456664 c 0.128486,-0.20789 -4.156972,-24.838313 -4.458217,-25.623346 -0.252067,-0.656873 -0.83803,-0.338049 -1.1917,0.648408 -0.500444,1.395836 -1.81618,3.391532 -4.497675,6.822028 -6.018797,7.69999 -5.427366,9.89526 4.138332,15.36064 5.213076,2.9785 5.74221,3.22437 6.00926,2.79227 z"
         id="path15" /><path
         style="fill:#413e33"
         d="m 95.003663,171.45361 c -0.1695,-0.20423 -0.89396,-3.07575 -1.60991,-6.38115 -0.71596,-3.30541 -1.48113,-6.50182 -1.7004,-7.10315 -0.21926,-0.60132 -0.64381,-2.52207 -0.94345,-4.26832 -0.65571,-3.82141 -1.18979,-5.7772 -1.69126,-6.19339 -0.29042,-0.24102 -3.84657,0.31619 -16.07611,2.51896 -17.766857,3.20015 -19.551311,3.3747 -23.167177,2.2661 -5.336395,-1.6361 -7.770769,-5.04051 -9.086348,-12.70702 -0.877688,-5.11471 -0.771154,-6.02694 0.741479,-6.34906 0.691224,-0.14721 6.435989,-1.30753 12.766146,-2.57851 6.330156,-1.27097 11.672272,-2.45864 11.871368,-2.63926 0.309333,-0.28064 -3.030933,-21.38597 -3.839215,-24.25792 -0.208217,-0.73983 -1.038233,-0.54254 -2.536682,0.60295 -3.019043,2.3079 -5.536418,3.142 -5.714219,1.89332 -0.118985,-0.83561 0.280916,-1.24683 2.78964,-2.86859 4.480959,-2.89671 4.161899,-3.657066 -3.160057,-7.530776 C 43.143397,90.300574 41.627058,85.379574 48.06834,77.751774 55.311359,69.174549 56.040485,63.530035 52.231242,45.52478 48.621395,28.462021 49.475833,23.247505 56.462635,19.701191 59.091973,18.366609 126.48592,6.304524 129.08204,6.703861 c 7.38179,1.135473 9.3225,4.132275 11.92198,18.409636 1.00681,5.529792 2.72898,14.876198 3.82706,20.769791 1.09807,5.893594 2.83677,15.418594 3.86377,21.166667 1.027,5.748073 2.46509,13.546669 3.19575,17.330209 4.22816,21.894456 5.28485,31.682596 3.97031,36.777076 -1.91148,7.40794 -7.35773,12.87138 -15.9371,15.98741 -4.5086,1.63753 -4.98906,1.86643 -4.99022,2.37746 -5.3e-4,0.2313 1.07043,5.18305 2.37992,11.00388 1.30949,5.82083 2.58281,11.52029 2.82959,12.66545 0.59495,2.76082 0.77395,2.91707 3.11049,2.71505 7.76885,-0.67168 8.43227,-0.5853 7.82248,1.01858 -0.30858,0.81162 -0.42467,0.83442 -6.15649,1.20903 -6.59067,0.43075 -6.1931,0.72176 -7.2117,-5.27881 -0.23223,-1.36806 -0.59576,-2.9754 -0.80784,-3.57188 -0.21208,-0.59648 -1.28285,-5.25169 -2.37947,-10.34492 -1.09663,-5.09323 -2.1087,-9.37528 -2.24905,-9.51566 -0.23859,-0.23866 -38.398577,6.4947 -39.868737,7.03488 -0.8583,0.31535 -0.80016,0.80455 1.01811,8.5662 0.88635,3.78354 1.93706,8.46013 2.33492,10.39243 0.92473,4.49114 0.4228,4.17368 5.774467,3.65227 5.24905,-0.51141 6.28885,-0.23853 5.36712,1.4085 -0.47047,0.84068 -11.270557,1.7274 -11.893737,0.9765 z M 57.729339,150.36679 c 6.489745,-1.34922 10.228434,-6.90948 9.937487,-14.77925 -0.188846,-5.10808 1.415994,-4.82336 -13.249055,-2.35056 -13.364119,2.25343 -12.244057,1.77525 -11.701129,4.99547 1.721443,10.21023 6.334207,13.9386 15.012697,12.13434 z m 42.827291,-7.76109 c 26.40857,-4.6861 34.03681,-6.12764 36.23,-6.8465 11.22262,-3.67846 16.52368,-9.47352 17.11019,-18.70466 0.27065,-4.25976 -0.16544,-7.46528 -4.76905,-35.055626 -1.23833,-7.421563 -3.09949,-18.672969 -4.13591,-25.003126 -3.70501,-22.629041 -6.99197,-38.55775 -8.7182,-42.248562 -1.59708,-3.414694 -4.66174,-5.604618 -8.14977,-5.823616 -2.76524,-0.173617 -68.500915,11.710119 -70.572173,12.75808 -1.964909,0.994153 -3.504828,2.585603 -4.461137,4.610423 -1.580722,3.346903 -2.043682,0.005 7.918791,57.162011 10.623742,60.950816 10.256942,57.089706 6.035425,63.532846 -0.373929,0.57071 -0.39444,1.55465 -0.03241,1.55465 0.0508,0 15.145707,-2.67116 33.544244,-5.93592 z m -6.352687,-20.1923 c -2.05272,-1.66219 3.80217,-3.16228 22.474357,-5.75818 7.74094,-1.07619 14.82771,-2.27063 18.1417,-3.0577 2.70805,-0.64316 3.08956,-0.56568 2.97572,0.60436 -0.0774,0.79565 -18.68967,4.58878 -42.026297,8.56487 -0.69794,0.11891 -1.09214,0.0299 -1.56548,-0.35335 z m -11.07996,-8.01512 c -0.65981,-0.26776 -0.61599,-1.15802 0.0845,-1.71734 0.1889,-0.15083 6.45742,-1.37318 13.93006,-2.71635 7.472627,-1.34317 21.206597,-3.81354 30.519937,-5.48973 17.91858,-3.22492 18.27076,-3.26215 18.07587,-1.91088 -0.0463,0.32115 -0.38186,0.73621 -0.74567,0.92234 -0.47581,0.24345 -43.25644,8.043 -60.589577,11.04639 -0.3638,0.063 -0.93762,0.003 -1.27515,-0.13443 z m -1.78313,-10.15887 c -0.61525,-0.45687 -0.31621,-1.15696 0.70144,-1.64216 0.80464,-0.38365 59.559837,-10.944646 60.878067,-10.942576 0.75926,0.001 1.01362,0.12521 1.15218,0.56179 0.4397,1.38538 1.12379,1.23137 -31.06575,6.99416 -32.834817,5.878306 -30.929397,5.575716 -31.665937,5.028786 z m -1.71704,-9.917926 c -2.07599,-1.75585 6.64031,-3.77759 32.027397,-7.42872 12.15967,-1.74879 19.33247,-2.98933 24.73855,-4.27857 5.16734,-1.2323 6.17835,-1.18643 5.89832,0.26763 -0.17353,0.90108 -4.43952,1.72658 -61.209067,11.84451 -0.58147,0.10364 -0.98759,-0.009 -1.4552,-0.40485 z m -1.95973,-10.03634 c -0.47868,-1.50821 -3.76301,-0.76408 31.067907,-7.03905 32.40317,-5.8376 31.34738,-5.673238 31.73925,-4.941022 0.6936,1.296011 -2.83594,2.090427 -33.58253,7.558632 -25.749207,4.57944 -29.017537,5.07391 -29.224627,4.42144 z M 101.86163,56.308686 c -4.138927,-1.102686 -8.370987,-7.54766 -5.545077,-8.444567 0.73652,-0.233763 0.8847,-0.07341 1.59792,1.729252 2.916807,7.372206 14.759317,5.845239 14.789267,-1.906921 0.0115,-2.97216 1.4795,-4.159498 2.14763,-1.737016 1.71793,6.228743 -5.84744,12.26209 -12.98974,10.359252 z M 80.159253,47.321273 c -1.24462,-3.273593 1.75675,-7.269436 5.44789,-7.253007 2.43636,0.01084 5.16929,2.032168 5.55944,4.111863 0.49562,2.641899 -1.09763,2.689369 -2.42384,0.07222 -1.81403,-3.579822 -5.57713,-2.634421 -6.57718,1.652378 -0.50039,2.144996 -1.46927,2.82907 -2.00631,1.416549 z m 37.470277,-6.509391 c -0.24141,-0.34466 -0.42207,-1.136265 -0.42207,-1.849407 0,-6.343542 9.67406,-7.723727 11.35921,-1.620604 0.69879,2.530816 -1.12641,3.065474 -2.28744,0.670063 -1.61055,-3.322831 -6.01712,-3.212519 -6.57169,0.164513 -0.47782,2.909717 -1.2235,3.855418 -2.07801,2.635435 z M 60.851216,96.110804 c 0,-0.45396 -3.800111,-22.215298 -4.393303,-25.158245 -0.260268,-1.291244 -0.973363,-0.89249 -1.800886,1.007035 -0.41563,0.954052 -1.696987,2.948348 -2.847461,4.43177 -7.547631,9.73193 -7.260236,11.66912 2.559358,17.25146 5.456815,3.10214 6.482292,3.49257 6.482292,2.46798 z"
         id="path14" /><path
         style="fill:#3a3832"
         d="m 95.045793,171.22964 c -0.14633,-0.1819 -0.87686,-3.17793 -1.6234,-6.65785 -0.74655,-3.47991 -1.4646,-6.45647 -1.59567,-6.61458 -0.13107,-0.15811 -0.5419,-2.01387 -0.91297,-4.12393 -1.004,-5.70924 -1.31863,-6.61458 -2.29876,-6.61458 -0.43489,0 -7.81453,1.25016 -16.3992,2.77812 -16.635964,2.96101 -18.481428,3.16413 -21.561593,2.3732 -5.481568,-1.40757 -8.142688,-4.56882 -9.503485,-11.28957 -1.593523,-7.87013 -2.426436,-7.16152 11.776454,-10.01895 14.558586,-2.92899 13.480297,-2.63254 13.480297,-3.70617 0,-0.77378 -3.843579,-23.26442 -4.100039,-23.99132 -0.215309,-0.61026 -1.080993,-0.3391 -2.663309,0.83423 -3.029739,2.24663 -5.21579,3.08204 -5.58017,2.13248 -0.218952,-0.57058 0.53813,-1.33571 2.686226,-2.71477 4.729824,-3.03652 4.423373,-3.952576 -2.549275,-7.620456 C 43.004798,90.105914 41.69924,85.668514 48.681663,77.236414 55.377939,69.149865 56.15014,62.802791 52.480068,46.01558 48.672638,28.600078 49.551529,23.205143 56.754295,19.778913 58.649441,18.877425 124.92944,6.724956 127.95104,6.724956 c 6.37047,0 10.47107,4.561998 12.0101,13.361458 0.45813,2.619375 2.30957,12.706231 4.11432,22.415236 1.80475,9.709006 3.88333,21.079474 4.61906,25.267708 0.73574,4.188235 2.10189,11.609076 3.03589,16.490746 5.81927,30.414956 5.94531,36.233686 0.94171,43.471656 -3.18399,4.60579 -6.86193,7.12964 -14.34306,9.84236 -4.16836,1.51149 -4.00948,0.38959 -1.563,11.03646 1.14491,4.98254 2.3394,10.36885 2.65443,11.96958 1.19921,6.09348 0.75109,5.75204 6.83438,5.20744 4.7995,-0.42967 5.64193,-0.16383 4.61218,1.45544 -0.20511,0.32254 -10.68888,1.20881 -11.34063,0.95871 -0.49707,-0.19074 -1.06435,-1.98204 -1.67304,-5.28292 -0.2995,-1.62414 -0.76441,-3.6482 -1.03313,-4.49791 -0.26872,-0.84971 -1.30302,-5.39454 -2.29845,-10.09961 -0.99542,-4.70508 -1.93713,-8.72874 -2.09268,-8.94147 -0.32609,-0.44595 -39.909607,6.55735 -40.579587,7.17954 -0.42397,0.39373 -0.23557,1.42343 2.08124,11.37494 0.84696,3.63803 1.73063,7.62526 1.9637,8.86053 0.57645,3.05515 0.33706,2.93725 5.041117,2.48256 5.29497,-0.51182 5.82083,-0.46183 5.82083,0.55324 0,0.91874 -0.20722,0.98334 -4.63021,1.44362 -3.759987,0.39128 -6.744887,0.37247 -7.080417,-0.0446 z M 58.98463,150.15404 c 6.501738,-2.02357 10.073553,-8.9917 8.750501,-17.07104 -0.378363,-2.31051 0.48249,-2.30001 -12.49702,-0.15246 -13.609505,2.25178 -12.907729,2.07384 -12.907729,3.27281 0,10.85144 7.209185,16.89032 16.654248,13.95069 z m 41.63756,-7.42497 c 36.78563,-6.52539 36.80735,-6.53012 42.0597,-9.17316 12.25383,-6.16626 13.39038,-12.04065 8.13212,-42.031996 -0.71437,-4.07458 -2.38248,-14.13537 -3.7069,-22.357292 C 138.40314,15.132939 136.89757,10.16238 128.84023,8.85956 126.70322,8.514018 60.400022,20.222493 57.750811,21.413233 c -2.030222,0.912524 -3.814373,2.711045 -4.78544,4.823985 -1.59495,3.470444 -2.148724,-0.545534 7.889781,57.216906 10.617611,61.094656 10.161401,56.643296 6.434109,62.779076 -1.818428,2.99346 -5.445456,3.37475 33.332929,-3.50413 z m -6.367327,-20.29185 c -0.43666,-0.1762 -0.42289,-1.00641 0.0228,-1.37632 1.01544,-0.84274 9.977267,-2.53898 23.855817,-4.51529 5.09322,-0.72527 11.10588,-1.70106 13.36145,-2.16842 5.37049,-1.11278 6.18994,-1.13427 6.30143,-0.16526 0.046,0.40018 0.0371,0.7276 -0.0198,0.7276 -0.0569,0 -9.49778,1.72641 -20.9797,3.83646 -19.978977,3.67157 -21.788197,3.96542 -22.542057,3.66123 z m -11.26684,-8.20324 c -0.30339,-0.30339 -0.19304,-1.06792 0.20137,-1.39525 0.4683,-0.38865 60.305757,-11.17953 61.402447,-11.0731 0.95884,0.093 1.31463,1.32387 0.47733,1.6513 -0.69319,0.27108 -60.401297,10.99344 -61.217627,10.99344 -0.37792,0 -0.76651,-0.0794 -0.86352,-0.17639 z m -1.70671,-10.10142 c -0.42628,-0.27049 -0.20653,-0.87872 0.47016,-1.30132 0.6037,-0.37702 60.661667,-11.240466 61.489167,-11.122326 0.84083,0.12004 0.92287,1.4424 0.11179,1.8018 -0.84917,0.37627 -59.504677,10.846446 -60.735397,10.841436 -0.54781,-0.002 -1.14889,-0.10105 -1.33572,-0.21959 z m -1.61709,-9.807866 c -2.33956,-1.4814 7.57321,-3.80328 29.981457,-7.02257 15.55269,-2.23439 21.55682,-3.27109 27.85938,-4.81031 3.16574,-0.77315 4.40323,-0.75688 4.51986,0.0594 0.14599,1.02176 -0.62728,1.18839 -30.67014,6.60883 -30.275397,5.4624 -31.026877,5.58487 -31.690557,5.16463 z m -1.8311,-10.53497 c 0.11362,-0.9809 -2.25031,-0.4895 31.533127,-6.55484 30.53555,-5.482224 31.12455,-5.56775 31.12455,-4.519475 0,0.793999 -3.49473,1.558668 -25.4,5.557675 -31.084637,5.67479 -37.384047,6.60753 -37.257677,5.51664 z M 101.33246,56.056591 c -2.891217,-0.906185 -5.374387,-3.975295 -5.408387,-6.684585 -0.0249,-1.984103 0.98922,-1.797165 1.88646,0.347741 3.200787,7.651705 14.500427,5.991264 15.089797,-2.217392 0.18426,-2.566446 0.59306,-3.178678 1.51011,-2.261626 0.48781,0.487808 0.56852,3.124683 0.14259,4.658223 -1.31835,4.746605 -7.91688,7.819953 -13.22057,6.157639 z M 80.342193,47.558983 c -0.097,-0.09701 -0.17639,-0.882692 -0.17639,-1.745951 0,-5.946627 7.77164,-7.852994 10.41219,-2.55409 1.47223,2.954383 0.0581,4.084376 -1.56634,1.25166 -2.1963,-3.829815 -6.23216,-3.158278 -6.89019,1.146475 -0.27937,1.827643 -1.04023,2.640946 -1.77927,1.901906 z m 37.764777,-6.373571 c -1.6172,-1.093881 -0.75051,-5.068683 1.42799,-6.54901 3.64673,-2.478015 9.01079,-0.338196 9.04378,3.607719 0.0153,1.831756 -1.27958,1.599747 -2.19176,-0.392702 -1.68675,-3.68435 -6.4379,-3.014304 -6.93674,0.978277 -0.19664,1.573825 -0.83754,2.697792 -1.34327,2.355716 z M 60.990777,96.617144 c 0.385212,-1.03618 -4.547295,-26.524481 -5.133028,-26.524481 -0.468417,0 -0.714223,0.305698 -1.192983,1.483663 -0.701055,1.724907 -1.09077,2.313934 -4.007442,6.056958 -4.608591,5.91431 -5.203314,8.65225 -2.616178,12.04416 1.416235,1.85678 12.609304,7.85514 12.949631,6.9397 z"
         id="path13" /><path
         style="fill:#ef81b2;fill-opacity:1;stroke-width:0.341286"
         d="m 78.563096,61.727913 c -1.506506,-0.745702 -3.138921,-2.715446 -3.138921,-3.787558 0,-0.860931 2.268759,-3.255053 3.901506,-4.117089 2.156388,-1.138502 5.66258,-1.049488 7.784144,0.19762 2.575095,1.513708 2.621685,3.505054 0.137451,5.874689 -1.54515,1.473872 -4.108709,2.564289 -6.021241,2.561156 -0.656977,-0.0011 -1.855298,-0.329044 -2.662939,-0.728818 z"
         id="path41" /><path
         style="fill:#ef81b2;fill-opacity:1;stroke-width:0.341286"
         d="m 126.07618,53.119813 c -1.34146,-0.613431 -2.5307,-2.117754 -2.5307,-3.201204 0,-4.844362 8.14295,-7.374049 11.83907,-3.677925 2.08973,2.089726 1.29226,4.841538 -1.82813,6.308293 -2.03837,0.958144 -5.97613,1.258644 -7.48024,0.570836 z"
         id="path42" /><path
         style="fill:#fbee9c;fill-opacity:1;stroke-width:0.341286"
         d="M 95.15659,130.2013 C 85.194673,128.5249 79.197646,123.89432 74.266892,114.07139 68.142974,101.87147 61.842665,79.386797 58.560641,58.018597 56.55197,44.940786 55.520407,35.708251 55.489548,30.532191 c -0.03404,-5.709319 0.190154,-6.462392 2.23932,-7.522056 2.353199,-1.216888 66.052082,-12.771559 70.407372,-12.771559 2.09644,0 4.7883,1.471874 6.16833,3.372769 2.70212,3.721976 4.67009,13.32373 12.98391,63.348617 3.05764,18.398045 5.05388,31.355328 5.1528,33.446008 0.14852,3.13896 0.0979,3.51164 -0.63041,4.64362 -0.87925,1.36655 -3.4706,3.74517 -5.90429,5.41959 -6.42514,4.42061 -20.38734,8.52976 -33.57437,9.88112 -4.69294,0.48091 -13.907428,0.40098 -17.17562,-0.149 z m 17.04949,-9.22747 c 26.16806,-4.78003 26.69727,-4.90743 26.69727,-6.4271 0,-2.19965 -0.91679,-2.37184 -6.67535,-1.25375 -1.88822,0.36662 -9.41358,1.59528 -16.72301,2.73036 -14.59019,2.26569 -20.351011,3.43618 -21.651377,4.39914 -1.745221,1.29239 -0.957943,3.46429 1.255747,3.46429 0.632473,0 8.326,-1.31082 17.09672,-2.91294 z m -10.26158,-8.34175 c 9.41835,-1.68511 22.9702,-4.14237 30.11523,-5.46058 7.14503,-1.31821 13.14005,-2.39674 13.32228,-2.39674 0.64846,0 1.45166,-1.67951 1.22847,-2.56876 -0.37887,-1.50957 -1.31822,-1.64228 -6.01147,-0.84932 -6.32834,1.06922 -56.722343,10.23632 -57.379761,10.43787 -0.840168,0.25757 -1.395965,1.06352 -1.395965,2.02429 0,1.21095 0.682844,1.87707 1.924206,1.87707 0.590002,0 8.778655,-1.37873 18.19701,-3.06383 z m -7.237675,-8.92249 c 28.785965,-5.063648 48.705855,-8.834622 49.571775,-9.384281 0.9428,-0.598458 1.02832,-2.177936 0.16045,-2.963346 -0.76336,-0.690833 0.0692,-0.807736 -23.7945,3.341161 -29.752601,5.172725 -37.799096,6.672346 -39.077229,7.282786 -0.992876,0.47419 -1.211779,0.77643 -1.296861,1.79056 -0.08298,0.98907 0.04625,1.29365 0.68257,1.60874 1.013224,0.50172 2.193263,0.35796 13.753795,-1.67562 z m -3.02519,-9.677458 c 45.339865,-8.045682 49.949695,-8.930814 50.832725,-9.760368 1.09114,-1.025077 0.98762,-2.326473 -0.23962,-3.012119 -0.79087,-0.441849 -1.20668,-0.434922 -3.5835,0.0597 -1.47885,0.307756 -4.53177,0.943864 -6.78426,1.413576 -4.03439,0.841301 -7.38137,1.38361 -27.64415,4.47919 -19.972915,3.051296 -26.108367,4.652145 -26.108367,6.812142 0,0.784527 1.268529,1.877073 2.179415,1.877073 0.447852,0 5.554342,-0.841137 11.347757,-1.869194 z m 5.720837,-11.311911 c 27.611008,-4.843203 42.311348,-7.65775 43.600878,-8.347887 0.93987,-0.503002 0.82925,-2.214914 -0.18612,-2.880209 -0.74096,-0.485497 -1.12726,-0.48564 -4.18075,-0.0016 -10.83382,1.717609 -58.437736,10.552303 -59.079269,10.964371 -0.968325,0.621977 -1.076997,2.650252 -0.170643,3.184885 0.771713,0.455205 0.797433,0.451455 20.015904,-2.919627 z M 83.979699,62.246813 c 1.336553,-0.396406 2.29897,-0.994703 3.449785,-2.144585 2.628789,-2.626662 2.609162,-4.537932 -0.06506,-6.334961 -1.373114,-0.922708 -1.795055,-1.02706 -4.090678,-1.011674 -1.951583,0.01307 -2.947824,0.204705 -4.19368,0.806667 -1.709912,0.826177 -3.997182,3.259526 -3.997182,4.252468 0,1.501987 1.748022,3.567186 3.75658,4.438208 1.548715,0.67161 2.86041,0.670047 5.14023,-0.0061 z m 23.013421,-4.748979 c 4.11674,-0.659818 8.54135,-4.68434 9.21708,-8.383648 0.38368,-2.10048 -0.95475,-5.429597 -2.18292,-5.429597 -0.98177,0 -1.76735,1.343824 -2.23368,3.82098 -0.27195,1.444564 -0.73243,2.989691 -1.02331,3.433622 -1.20488,1.838886 -5.12044,2.996534 -7.74496,2.289824 -1.79501,-0.483347 -2.88108,-1.505366 -4.160779,-3.915397 -0.902568,-1.699787 -1.255305,-2.064795 -2.086914,-2.159524 -1.172417,-0.133543 -2.223717,0.965745 -2.230533,2.332355 -0.0113,2.264119 2.71708,5.924576 5.481466,7.354099 1.19338,0.617122 3.82855,1.141484 4.91683,0.978387 0.37542,-0.05627 1.29689,-0.200758 2.04772,-0.321101 z m 26.35998,-4.431078 c 3.29932,-1.321829 4.55641,-4.664469 2.61977,-6.966032 -1.70224,-2.023007 -6.29394,-2.60636 -9.15322,-1.162878 -4.25385,2.147517 -4.84935,6.590678 -1.1185,8.345339 1.71915,0.808538 5.34994,0.705843 7.65195,-0.216429 z M 82.205109,48.507377 c 0.350782,-0.350785 0.828686,-1.433542 1.062006,-2.406132 0.788252,-3.285802 2.848184,-3.597798 4.899784,-0.742121 1.32052,1.838065 2.219193,2.315532 3.284821,1.745226 0.524605,-0.280763 0.695462,-0.712923 0.695462,-1.75908 0,-5.2397 -6.643285,-7.951372 -10.717085,-4.374528 -1.528622,1.342146 -2.288053,3.033654 -2.304309,5.132472 -0.02066,2.667058 1.57254,3.910941 3.079321,2.404163 z M 119.6098,41.892839 c 0.29686,-0.422342 0.70202,-1.382208 0.90035,-2.133037 0.56127,-2.124813 1.19699,-2.900928 2.37614,-2.900928 1.0409,0 1.67577,0.5155 3.33012,2.703983 0.54531,0.721381 1.0849,1.05016 1.72349,1.05016 1.27173,0 1.74873,-0.581787 1.74873,-2.13292 0,-5.293555 -7.55928,-7.71326 -11.70156,-3.745637 -1.25739,1.204381 -2.06461,3.947231 -1.61896,5.501111 0.66399,2.315199 2.22008,3.110727 3.24169,1.657268 z"
         id="path43" /><path
         style="fill:#f9db57;fill-opacity:1;stroke-width:1.17214"
         d="m 191.6445,564.72823 c -12.04223,-4.20939 -20.65888,-16.22878 -25.19296,-35.14172 -3.11058,-12.97508 -3.04463,-13.67854 1.45717,-15.5449 5.51984,-2.28842 77.57655,-13.95955 80.95311,-13.11209 2.01383,0.50544 3.06423,1.79288 3.58428,4.39311 1.9632,9.816 -0.49507,27.12941 -5.1466,36.24717 -3.415,6.69395 -12.32705,16.04082 -18.11774,19.0017 -2.59457,1.32665 -7.35472,3.11658 -10.57809,3.97762 -6.87687,1.83697 -21.93024,1.93698 -26.95917,0.17911 z"
         id="path44"
         transform="scale(0.26458333)" /><path
         style="fill:#f9db57;fill-opacity:1;stroke-width:1.17214"
         d="m 256.69814,557.18215 c 0,-0.29474 2.24171,-4.83371 4.98158,-10.0866 l 4.98159,-9.55072 -0.10685,-13.53944 c -0.1476,-18.70544 -2.61282,-34.42823 -31.0686,-198.15113 -20.63274,-118.71229 -32.15164,-187.22619 -33.94209,-201.88594 -1.67995,-13.75504 -0.57152,-19.6366 5.41481,-28.732138 4.4735,-6.796971 7.27845,-8.330647 4.28747,-2.344276 -5.3853,10.778514 1.34025,82.618174 14.51236,155.015204 10.04184,55.1923 26.22457,114.77813 42.33884,155.8943 24.27695,61.94355 50.59191,85.15316 101.67388,89.6757 41.65863,3.68824 91.60555,-2.74566 136.91433,-17.63659 30.57458,-10.04848 47.11489,-19.2625 61.44355,-34.22802 7.46044,-7.79206 8.24582,-9.41691 8.9279,-18.47082 0.21856,-2.90104 0.48952,1.61738 0.60215,10.04093 0.39871,29.81905 -4.84252,42.43304 -24.091,57.97951 -21.15711,17.08802 -27.49441,18.65384 -196.65215,48.58907 -52.86341,9.35505 -97.03835,17.22465 -98.16653,17.48802 -1.12818,0.26335 -2.05124,0.23768 -2.05124,-0.0571 z"
         id="path45"
         transform="scale(0.26458333)" /><path
         style="fill:#fbee9c;fill-opacity:1;stroke-width:0.312315"
         d="m 445.42393,160.32019 c -2.68438,-1.32296 -5.3507,-6.17296 -5.85782,-10.6553 -0.52621,-4.65107 1.84497,-12.44841 5.05375,-16.61866 2.61006,-3.39214 8.16381,-6.82228 13.23406,-8.17371 3.58391,-0.95525 10.24891,-1.01948 13.74186,-0.13241 10.80958,2.74521 17.69959,10.09482 18.33183,19.55467 0.42257,6.32262 -1.81431,9.38535 -6.5668,8.99124 -2.66902,-0.22134 -4.14994,-1.3099 -7.49459,-5.50896 -5.48647,-6.88803 -7.61767,-8.47562 -11.38564,-8.48148 -2.47917,-0.004 -3.66039,0.49311 -5.18331,2.18074 -1.45077,1.60768 -2.62218,4.11581 -3.78991,8.11463 -2.73574,9.36838 -5.93576,12.77335 -10.08343,10.72924 z m 3.96158,-3.63925 c 1.05638,-0.96373 2.02325,-3.2939 3.00853,-7.25057 1.54377,-6.19944 2.82776,-8.80332 5.59024,-11.33685 2.21715,-2.0334 3.90611,-2.69467 6.89673,-2.70026 2.13143,-0.004 2.77383,0.12943 4.37241,0.90809 2.65512,1.2933 5.26429,4.07912 7.18324,7.66957 2.56513,4.79946 5.33448,7.23006 7.65662,6.72003 3.49376,-0.76735 4.12048,-8.19944 1.19823,-14.20926 -2.09139,-4.30106 -7.40445,-8.36414 -13.07965,-10.00244 -3.27552,-0.94557 -9.31279,-1.18476 -12.68048,-0.50238 -6.92058,1.40229 -12.3698,5.34332 -15.10457,10.92403 -1.84888,3.77292 -2.32988,5.9356 -2.33793,10.51182 -0.008,4.42727 0.52237,6.45189 2.17485,8.30544 1.84685,2.07156 3.55454,2.39257 5.12178,0.96278 z"
         id="path49"
         transform="scale(0.26458333)" /><path
         style="fill:#fbee9c;fill-opacity:1;stroke-width:0.312315"
         d="m 391.64312,218.29155 c -5.456,-0.65493 -11.52569,-2.43401 -14.74617,-4.32223 -8.59929,-5.0419 -17.02653,-15.57869 -18.97425,-23.72398 -0.54211,-2.26709 -0.28447,-5.79582 0.53918,-7.38486 1.31788,-2.5425 4.12443,-4.53067 6.39019,-4.52682 3.32732,0.006 4.99279,1.47831 8.17662,7.23005 3.17212,5.73058 4.73012,7.97105 7.37395,10.60409 3.82821,3.81258 7.87129,5.47986 14.08653,5.80895 8.69329,0.46031 18.45553,-2.87674 23.01732,-7.86806 2.20273,-2.41015 2.63633,-3.69961 5.83018,-17.33835 0.88741,-3.78951 2.62387,-7.93128 4.01076,-9.56638 1.1301,-1.33236 2.82026,-2.09678 4.10367,-1.85601 3.60889,0.67703 7.74269,9.75363 7.76246,17.04406 0.01,3.68891 -0.58605,6.02808 -2.5917,10.17098 -1.99876,4.12866 -4.63912,7.66941 -8.71809,11.69108 -3.99359,3.93748 -8.0451,6.87556 -12.68086,9.19593 -4.47558,2.24019 -7.22844,3.09656 -13.03574,4.0552 -6.13503,1.01273 -7.69124,1.12879 -10.54405,0.78635 z m 11.12435,-3.27283 c 8.26174,-1.42584 16.00562,-5.40718 21.83665,-11.2268 5.99336,-5.98164 8.87706,-11.21415 10.29254,-18.67596 0.92581,-4.88048 0.49012,-11.49417 -0.95411,-14.48313 -1.00373,-2.07733 -1.97856,-2.72738 -3.78471,-2.5238 -1.62872,0.18358 -2.2283,0.66799 -3.32825,2.68896 -1.2019,2.20828 -1.72936,4.65449 -2.06278,9.56649 -0.33367,4.91575 -1.02533,7.64095 -2.71285,10.68887 -5.01801,9.06326 -14.19586,13.90877 -25.4138,13.41741 -8.05309,-0.35274 -14.65116,-3.26899 -20.02018,-8.84861 -2.46275,-2.55936 -3.89459,-4.72999 -5.73316,-8.69128 -2.25416,-4.85673 -4.13391,-7.09646 -6.32339,-7.53436 -1.30019,-0.26003 -2.61193,1.02479 -3.4852,3.41368 -0.8813,2.41089 -0.84211,3.7346 0.23813,8.0421 1.48381,5.91677 3.94161,10.13989 8.34735,14.34287 5.63485,5.37552 12.86551,8.79445 21.35478,10.09735 2.12797,0.3266 9.22901,0.16112 11.74898,-0.27379 z"
         id="path50"
         transform="scale(0.26458333)" /><path
         style="fill:#fbee9c;fill-opacity:1;stroke-width:0.312315"
         d="m 303.3722,184.91595 c -1.35331,-0.82521 -2.48958,-2.40562 -3.29555,-4.58371 -0.97001,-2.62143 -0.96939,-9.45489 0.001,-13.0209 2.17669,-7.99737 8.5572,-14.67136 16.52209,-17.28205 2.54489,-0.83415 3.09066,-0.8987 7.58314,-0.89695 4.6642,0.002 4.94917,0.0394 7.80788,1.03098 4.03702,1.40024 6.8966,3.16766 9.68176,5.984 3.7067,3.7482 5.55483,7.45481 6.25143,12.53785 0.62432,4.55564 -0.0815,7.63955 -2.05841,8.99417 -1.30174,0.89197 -3.65815,1.18985 -5.2518,0.6639 -1.5768,-0.52039 -4.15605,-2.9743 -7.0383,-6.69626 -1.34719,-1.73968 -3.07185,-3.73677 -3.83258,-4.43798 -4.25011,-3.91763 -8.37593,-4.24772 -11.44714,-0.91584 -1.68718,1.83037 -2.31574,3.1546 -3.65714,7.70475 -1.98568,6.73565 -3.74204,9.70016 -6.53108,11.02365 -1.41699,0.6724 -3.53711,0.62512 -4.73548,-0.10561 z m 5.31122,-3.91014 c 1.30449,-1.30449 2.10227,-3.35082 2.99197,-7.67456 0.76874,-3.73588 2.45183,-7.57192 4.20633,-9.58695 0.67895,-0.77976 1.9938,-1.73234 3.2332,-2.34236 1.73856,-0.85571 2.43203,-1.02534 4.13495,-1.01141 4.14103,0.0339 8.36751,3.01999 11.54039,8.15366 2.45342,3.96959 3.59981,5.27997 5.40709,6.18057 1.95437,0.97391 3.00079,1.00415 4.12576,0.11925 1.25221,-0.98499 1.72291,-2.40328 1.71542,-5.16881 -0.019,-7.02678 -5.6343,-13.9454 -14.20375,-17.50061 -3.78866,-1.57181 -10.33467,-2.1142 -14.06664,-1.16555 -6.10737,1.55247 -10.86696,5.9798 -14.36328,13.36061 -1.76635,3.7288 -2.64595,7.11795 -2.64369,10.18636 0.002,2.89816 0.38973,4.38783 1.47827,5.68149 1.02963,1.22364 2.33729,1.81404 4.05317,1.82997 1.09268,0.0101 1.49979,-0.17064 2.39081,-1.06166 z"
         id="path51"
         transform="scale(0.26458333)" /><path
         style="fill:#fbee9c;fill-opacity:1;stroke-width:0.312315"
         d="m 302.43467,236.58072 c -4.7085,-1.02399 -8.61236,-3.30904 -12.79103,-7.48702 -2.31906,-2.31866 -3.08987,-3.34434 -4.20588,-5.59653 -2.35401,-4.7506 -1.96313,-6.5361 2.63759,-12.04828 4.67195,-5.59752 11.09887,-9.73339 17.32419,-11.14853 2.89776,-0.65871 13.87349,-0.93082 16.90702,-0.41914 5.57445,0.94025 13.32991,6.80467 14.8331,11.21629 1.49917,4.39981 -0.49279,9.31159 -6.17781,15.23323 -4.51309,4.70095 -8.3007,7.11675 -13.80588,8.80564 -5.95552,1.82705 -10.78346,2.30073 -14.7213,1.44434 z m 11.91046,-1.55136 c 6.5593,-1.92977 11.59921,-4.80128 15.91807,-9.0694 4.62244,-4.56812 6.38273,-7.79602 6.40227,-11.74001 0.0185,-3.74148 -2.40937,-7.20081 -6.96261,-9.92048 -8.12986,-4.856 -21.168,-5.37299 -29.50294,-1.16986 -4.20433,2.12015 -9.54972,6.76227 -12.88771,11.19211 -1.93329,2.56567 -2.63353,4.32751 -2.29351,5.77064 0.57299,2.43194 2.49075,5.29166 5.73413,8.55055 2.79518,2.80856 3.70397,3.5112 6.02363,4.65723 4.36024,2.15419 7.21216,2.82938 11.32237,2.68057 2.5141,-0.091 4.18931,-0.34617 6.2463,-0.95135 z"
         id="path52"
         transform="scale(0.26458333)" /><path
         style="fill:#fbee9c;fill-opacity:1;stroke-width:0.312315"
         d="m 481.74602,202.96133 c -5.77241,-0.73077 -10.23976,-3.08688 -13.13927,-6.92973 -7.57967,-10.04567 1.94007,-25.07698 17.9787,-28.38768 4.27083,-0.88159 11.67902,-0.6638 15.97085,0.46953 7.09759,1.87422 11.74826,5.41269 13.74208,10.45568 0.95569,2.41724 1.01507,6.88166 0.12769,9.60071 -1.4331,4.39122 -5.67266,8.94287 -10.60599,11.38672 -5.94839,2.94669 -16.21885,4.39924 -24.07406,3.40477 z m 12.96108,-1.3692 c 8.22239,-1.31826 14.48896,-4.3676 18.26588,-8.88828 3.49961,-4.18876 4.16663,-9.3127 1.82366,-14.00909 -1.07905,-2.16291 -4.59362,-5.73825 -7.08727,-7.20982 -4.29278,-2.53327 -9.28645,-3.63797 -15.26313,-3.37648 -10.57844,0.46281 -20.13644,5.75611 -23.80194,13.18171 -2.84981,5.77316 -2.24543,10.53899 1.92026,15.14222 2.9847,3.2982 6.20703,5.03541 10.45103,5.63431 2.63687,0.37211 10.00305,0.11678 13.69151,-0.47457 z"
         id="path53"
         transform="scale(0.26458333)" /><path
         style="fill:#f9db57;fill-opacity:1;stroke-width:0.312315"
         d="m 244.11711,386.568 c -0.10055,-0.55827 -5.31152,-30.45853 -11.57995,-66.44504 -26.20556,-150.44385 -30.02625,-173.05715 -32.83397,-194.33287 -0.93129,-7.05689 -1.33538,-16.7367 -0.80243,-19.22176 0.56671,-2.64249 4.0337,-9.975801 5.88744,-12.45301 2.5898,-3.460813 7.72318,-8.104717 10.55305,-9.546794 1.47654,-0.752433 7.10417,-2.578205 11.71182,-3.799669 5.10208,-1.352534 18.41946,-4.098377 40.14864,-8.27804 23.87199,-4.591837 25.17418,-4.830343 81.02961,-14.841093 71.48705,-12.812345 79.65363,-14.252718 96.66152,-17.04859 31.06201,-5.106182 38.99129,-6.079099 43.18573,-5.298862 8.55443,1.591271 16.27135,6.534975 20.76299,13.301433 5.85932,8.826843 10.87167,23.270053 15.81081,45.559293 7.18612,32.429342 16.07132,82.313702 30.65119,172.085612 4.30167,26.48637 10.21836,62.07435 15.42143,92.75758 2.01506,11.88287 4.5594,27.65057 4.5594,28.25515 0,0.17692 -0.67342,0.32168 -1.49649,0.32168 h -1.49649 l -0.55292,-3.82586 C 567.74035,356.0927 547.02568,230.98456 536.69118,172.08561 522.36263,90.423559 515.90173,63.262433 508.13123,52.022017 c -3.0257,-4.376832 -7.77461,-8.25743 -13.23844,-10.817866 -5.62505,-2.635985 -9.46161,-3.022677 -18.45613,-1.860212 -35.65511,4.608122 -185.84806,31.542328 -239.70183,42.985897 -16.93629,3.59885 -20.00505,4.596797 -23.03264,7.490093 l -1.33795,1.278602 0.19592,-1.044366 c 0.46965,-2.503433 -2.09019,-0.263771 -5.51326,4.823669 -2.5583,3.802206 -4.37455,7.455216 -5.31236,10.684666 -0.95464,3.28743 -1.17162,11.00535 -0.47853,17.02117 1.50344,13.04944 10.37077,66.24365 28.74292,172.4258 3.86109,22.3152 9.001,52.02725 11.42204,66.02677 2.42104,13.99952 4.47468,25.69963 4.56365,26.00023 0.12837,0.43374 -0.0288,0.54655 -0.76147,0.54655 -0.79589,0 -0.94845,-0.14001 -1.10604,-1.01502 z"
         id="path54"
         transform="scale(0.26458333)" /><path
         style="fill:#f9db57;fill-opacity:1;stroke-width:0.174289"
         d="m 199.47377,568.59184 c -0.28758,-0.0335 -1.26796,-0.1446 -2.17862,-0.24683 -0.91066,-0.10223 -2.5328,-0.37952 -3.60477,-0.6162 -8.98764,-1.9844 -15.6714,-6.82368 -21.03857,-15.23267 -0.45887,-0.71894 -1.53311,-2.71741 -2.38719,-4.44105 l -1.55286,-3.13388 0.0108,-3.4891 0.0109,-3.4891 0.6035,1.5686 c 1.54215,4.00828 3.50675,8.07735 5.21983,10.81126 5.10888,8.1533 12.53762,13.8521 19.63072,15.05931 6.11386,1.04054 16.06931,0.88094 22.62802,-0.36277 3.47003,-0.65801 10.58337,-3.26644 13.30312,-4.87818 2.32222,-1.37618 4.77533,-3.40016 7.88423,-6.50504 5.72754,-5.72015 8.9745,-10.36259 10.95482,-15.663 2.62811,-7.03424 4.15897,-16.00252 4.17023,-24.43064 0.0105,-7.8463 -0.76925,-10.94554 -3.07401,-12.21829 -0.83572,-0.46151 -1.03218,-0.49781 -2.47496,-0.45733 -7.96913,0.22357 -66.122,9.5654 -77.32763,12.42212 -0.73492,0.18735 -1.38196,0.34065 -1.43789,0.34065 -0.0559,0 -0.10167,-0.50611 -0.10167,-1.12469 v -1.12469 l 0.65358,-0.18344 c 1.2676,-0.35577 6.271,-1.39321 9.62947,-1.99664 4.78767,-0.86021 55.05964,-9.22353 58.64825,-9.75681 6.28071,-0.93334 10.97313,-1.21486 13.01952,-0.78111 1.89997,0.40271 3.0385,1.3589 3.55131,2.98255 0.41607,1.31738 0.69183,12.78894 0.42415,17.64461 -1.33947,24.29775 -12.72705,40.82058 -32.20216,46.72375 -3.63009,1.10033 -9.55556,2.13826 -14.32608,2.50941 -2.1678,0.16866 -7.42174,0.21076 -8.63603,0.0692 z"
         id="path55"
         transform="scale(0.26458333)" /><path
         style="fill:#f9db57;fill-opacity:1;stroke-width:0.174289"
         d="m 254.1918,559.86982 c -0.44637,-0.44638 -0.23782,-1.96387 0.53689,-3.90645 0.82059,-2.05761 3.32726,-7.1128 4.44855,-8.97138 1.38058,-2.28833 3.52479,-7.00638 4.31052,-9.4847 1.40273,-4.4245 1.7456,-8.54767 1.44931,-17.4289 -0.20205,-6.05646 -0.46511,-9.40299 -1.16452,-14.81457 -0.49331,-3.81697 -0.57875,-4.38133 -1.89962,-12.5488 -0.51934,-3.21128 -1.42248,-8.93667 -2.00698,-12.7231 -1.46257,-9.47459 -4.8696,-30.02946 -8.01669,-48.3652 -3.11318,-18.13819 -7.45028,-43.18112 -7.60591,-43.91741 -0.0979,-0.46308 -0.0793,-0.49416 0.17103,-0.28639 0.1687,0.14001 0.56048,0.20639 0.98126,0.16627 0.38524,-0.0367 0.70043,-0.0563 0.70043,-0.0435 0,0.0128 1.36808,7.97554 3.04018,17.69494 11.59813,67.41645 15.46121,91.95635 16.73341,106.2976 0.45115,5.08581 0.60814,9.63579 0.62343,18.06882 l 0.0146,8.04721 -3.17245,6.0702 c -1.74485,3.33861 -3.98583,7.71316 -4.97996,9.72122 -1.60618,3.24434 -1.77841,3.68011 -1.54624,3.91229 0.23217,0.23216 0.60619,0.19911 3.35789,-0.29677 16.81282,-3.0298 29.23284,-5.23864 119.34739,-21.22542 43.29398,-7.68057 90.41813,-16.26965 91.71959,-16.71726 0.16031,-0.0551 0.21786,0.23906 0.21786,1.11386 v 1.18879 l -1.08931,0.18632 c -0.59912,0.10247 -4.85395,0.89523 -9.45518,1.76169 -17.88487,3.3679 -35.00103,6.43912 -110.8478,19.88987 -58.76235,10.42099 -91.5182,16.26288 -93.36374,16.6511 -1.5714,0.33056 -2.14223,0.32136 -2.50393,-0.0403 z"
         id="path56"
         transform="scale(0.26458333)" /><path
         style="fill:#fbee9c;fill-opacity:1;stroke-width:0.381005"
         d="m 471.68481,520.16686 8.2e-4,-1.04776 6.57152,-1.2749 c 38.37067,-7.44402 56.20657,-12.86015 67.36014,-20.45488 10.91227,-7.43041 20.33328,-16.62403 24.70399,-24.10773 5.76626,-9.8732 8.09958,-23.50122 7.43291,-43.41287 -0.24393,-7.28584 -0.69691,-9.92449 -1.01381,-5.90558 -0.0785,0.99538 -0.17361,0.0261 -0.21137,-2.1539 -0.0818,-4.7192 -0.76879,-10.904 -2.67746,-24.10344 l -1.41405,-9.77887 1.41395,-0.13485 c 1.65599,-0.15792 1.37665,-1.04989 2.76658,8.83396 3.82186,27.1774 4.56292,47.87942 2.13921,59.76059 -1.83802,9.01009 -5.39227,16.40489 -11.49904,23.92433 -2.57083,3.16553 -12.66973,13.21616 -15.20049,15.12783 -5.46464,4.12784 -16.38978,9.98596 -22.75606,12.20191 -9.01122,3.1366 -23.49154,6.70087 -44.97323,11.06996 -6.77127,1.37718 -12.38633,2.50397 -12.47791,2.50397 -0.0916,0 -0.16615,-0.4715 -0.1657,-1.04777 z"
         id="path57"
         transform="scale(0.26458333)" /><path
         style="fill:#fbee9c;fill-opacity:1;stroke-width:0.381005"
         d="m 292.68404,323.46335 c -2.92466,-1.78312 -3.18736,-7.47248 -0.4923,-10.66178 0.95548,-1.1307 1.36503,-1.24931 11.27862,-3.2664 39.40982,-8.01864 168.0294,-31.73614 207.37427,-38.23989 12.95652,-2.14173 17.12276,-2.57218 19.11583,-1.97505 4.99967,1.49794 7.03765,8.7244 3.19045,11.31305 -4.05429,2.728 -59.89632,13.42741 -177.67339,34.04245 -56.44198,9.8793 -60.15145,10.39841 -62.79348,8.78762 z m 29.78094,-6.45105 c 90.38178,-15.20186 200.67378,-35.58882 207.9661,-38.44156 2.04621,-0.80047 2.10724,-4.76935 0.10414,-6.77245 -0.676,-0.676 -1.32456,-0.90385 -2.57277,-0.90385 -1.66974,0 -11.45143,1.53623 -25.41706,3.99177 -4.08628,0.71849 -15.57357,2.69553 -25.52733,4.39344 -59.73411,10.18942 -157.08926,27.66994 -176.35048,31.66445 -3.0084,0.6239 -5.88898,1.40902 -6.40131,1.7447 -1.99382,1.30641 -2.56612,4.10882 -1.42268,6.96655 0.61144,1.52814 0.61779,1.53173 2.70667,1.53173 1.15158,0 13.26321,-1.87865 26.91472,-4.17478 z"
         id="path58"
         transform="scale(0.26458333)" /><path
         style="fill:#fbee9c;fill-opacity:1;stroke-width:0.381005"
         d="m 301.15942,361.63766 c -1.93657,-0.90748 -4.22279,-2.8911 -4.94762,-4.29275 -3.71334,-7.18082 10.73931,-12.663 53.55065,-20.31282 13.32673,-2.38132 23.52947,-4.02056 58.29374,-9.36585 70.33555,-10.81467 75.9693,-11.76819 103.65506,-17.54383 20.24478,-4.22334 22.72165,-4.53013 25.35115,-3.1401 2.06072,1.08935 3.86592,3.19536 4.18167,4.87844 0.50492,2.69146 -1.79595,6.41617 -4.71754,7.63689 -6.18626,2.58479 -31.92044,7.54883 -128.08934,24.70804 -71.50283,12.7581 -98.30356,17.39849 -103.63331,17.94352 -1.60018,0.16363 -2.46167,0.0427 -3.64446,-0.51154 z m 11.45505,-3.66242 c 7.97557,-1.38378 69.19724,-12.3932 114.49196,-20.58895 99.89921,-18.07603 106.52078,-19.30773 108.20482,-20.12746 3.13117,-1.52415 4.29874,-4.73826 2.68354,-7.38728 -1.64175,-2.69256 -5.48077,-2.55881 -19.6377,0.68418 -25.83536,5.91821 -45.25536,9.27765 -98.87076,17.10352 -80.29701,11.7204 -115.85072,19.13794 -120.98635,25.24129 -1.14461,1.3603 -1.17591,2.1682 -0.13525,3.49119 0.99634,1.26663 4.84356,3.27512 5.86764,3.06327 0.4191,-0.0867 4.19105,-0.75259 8.3821,-1.47976 z"
         id="path59"
         transform="scale(0.26458333)" /><path
         style="fill:#fbee9c;fill-opacity:1;stroke-width:0.381005"
         d="m 306.10073,398.13893 c -2.16703,-1.07268 -2.55122,-1.98062 -2.38518,-5.63682 0.28058,-6.17848 1.86745,-6.96443 22.4246,-11.1065 9.98995,-2.01288 24.93012,-4.79217 48.00661,-8.93057 4.08627,-0.73281 24.57481,-4.33279 45.53008,-7.99997 104.87879,-18.35382 119.69111,-20.79164 123.3494,-20.30096 1.7376,0.23306 3.53634,1.72123 4.33414,3.58582 1.18747,2.7753 0.3332,6.64615 -1.81393,8.21922 -1.35242,0.99085 -7.19188,2.38208 -25.09383,5.97855 -44.35173,8.91018 -178.69695,33.15528 -200.50085,36.18412 -7.42643,1.03162 -11.77681,1.03386 -13.85104,0.007 z m 23.50828,-4.72818 c 32.82431,-5.72374 88.03806,-15.56332 159.60121,-28.44233 33.58397,-6.04401 50.13265,-9.14388 51.81666,-9.70621 5.45548,-1.82169 6.74168,-7.74618 2.06909,-9.53066 -1.67128,-0.63827 -1.97431,-0.63908 -6.19944,-0.0167 -19.61502,2.88952 -164.71119,29.03963 -211.7089,38.15545 -18.60311,3.60832 -16.97033,3.18854 -18.57398,4.77528 -1.16673,1.15442 -1.42722,1.68397 -1.4203,2.88729 0.005,0.81048 0.3047,1.84931 0.66676,2.30852 0.76743,0.97335 3.80971,2.77336 4.69866,2.78003 0.33623,0.003 8.90884,-1.44229 19.05024,-3.2107 z"
         id="path60"
         transform="scale(0.26458333)" /><path
         style="fill:#fbee9c;fill-opacity:1;stroke-width:0.381005"
         d="m 313.56699,436.76397 c -4.45589,-1.87952 -5.5735,-7.95063 -2.17595,-11.82023 0.66634,-0.75892 1.72964,-1.59634 2.36289,-1.86093 1.67347,-0.69922 45.90147,-8.8776 142.88038,-26.42059 82.93304,-15.00217 83.03822,-15.0199 89.34563,-15.06027 3.52245,-0.0225 4.16671,0.0777 5.39088,0.83898 2.52074,1.56753 3.276,5.18567 1.86023,8.91168 -0.83297,2.19219 -2.83727,4.51142 -3.89882,4.51142 -0.37911,0 -24.64882,4.36549 -53.9327,9.70108 -151.41644,27.58845 -179.12201,32.34217 -181.83254,31.19886 z m 10.66813,-4.33599 c 16.5347,-2.43702 38.00135,-6.15591 108.77689,-18.84454 100.26864,-17.97615 114.16118,-20.68294 118.1115,-23.01261 0.94416,-0.55681 1.13626,-0.90816 1.10421,-2.01953 -0.0213,-0.73999 -0.36425,-2.00818 -0.76201,-2.81819 -0.91661,-1.86658 -2.97921,-2.58399 -6.62878,-2.3056 -5.6702,0.43251 -35.53695,5.48419 -88.20262,14.91864 -9.84898,1.76433 -30.42324,5.44806 -45.72059,8.18607 -75.35693,13.48785 -90.80486,16.5814 -96.7924,19.3833 -2.74579,1.28491 -3.242,2.18602 -2.5106,4.55922 0.62133,2.01607 0.94596,2.3875 2.38327,2.72682 1.93297,0.45633 1.85798,0.462 10.24113,-0.77358 z"
         id="path61"
         transform="scale(0.26458333)" /><path
         style="fill:#f9db57;fill-opacity:1;stroke-width:0.381005"
         d="m 355.24279,467.14504 c -0.86254,-0.39169 -2.06271,-1.36043 -2.66704,-2.15275 -0.91147,-1.195 -1.09878,-1.80763 -1.09878,-3.59368 0,-2.60909 1.06206,-4.42092 3.57943,-6.10632 5.83359,-3.90563 24.48179,-7.64967 87.29022,-17.52546 24.41425,-3.83882 47.37183,-7.62383 64.58033,-10.64736 7.26058,-1.27568 12.72892,-1.49918 14.86308,-0.60747 2.0109,0.8402 2.85052,2.5474 2.85222,5.79938 10e-4,2.56146 -0.0682,2.78696 -1.13565,3.6852 -3.48376,2.93138 -15.46275,5.59788 -72.01586,16.03054 -56.59247,10.43993 -88.06884,15.84606 -92.20317,15.83607 -1.59422,-0.004 -3.03526,-0.2597 -4.04478,-0.71815 z m 13.39779,-3.28441 c 3.97138,-0.74046 27.21733,-5.0232 51.65767,-9.5172 103.94387,-19.11282 100.22567,-18.40556 101.05925,-19.22315 0.96315,-0.94466 1.01175,-5.26237 0.0753,-6.69153 -1.45328,-2.21798 -2.94469,-2.19758 -13.64435,0.18668 -13.64291,3.04013 -29.84764,5.76564 -63.34633,10.65439 -39.21458,5.72291 -56.25512,8.55457 -70.4859,11.71279 -11.24742,2.49613 -19.06548,5.32776 -20.54606,7.44158 -1.54599,2.20721 0.15396,4.5554 4.54386,6.2766 1.77335,0.69529 2.94548,0.60314 10.68653,-0.84016 z"
         id="path62"
         transform="scale(0.26458333)" /><path
         style="fill:#fbee9c;fill-opacity:1;stroke-width:0.199709"
         d="m 167.68892,542.06758 c -1.03203,-2.81879 -2.04624,-6.134 -2.82553,-9.23601 -1.17696,-4.68494 -3.09952,-14.33727 -3.09492,-15.53828 0.01,-2.56161 1.3605,-3.95568 5.15002,-5.3154 0.80288,-0.28809 1.49105,-0.52379 1.52926,-0.52379 0.0382,0 0.10025,0.48808 0.13788,1.08463 l 0.0684,1.08463 -1.44385,0.63414 c -2.93398,1.28862 -3.41107,2.52861 -2.66911,6.93723 0.55208,3.28032 2.18657,10.16343 3.23345,13.61658 l 0.82,2.70478 -0.0319,3.19043 c -0.0175,1.75474 -0.0602,3.21877 -0.0949,3.25339 -0.0346,0.0346 -0.3851,-0.81692 -0.77884,-1.89233 z"
         id="path63"
         transform="scale(0.26458333)" /><path
         style="fill:#fbee9c;fill-opacity:1;stroke-width:0.365566"
         d="m 355.51266,467.03899 c -0.60318,-0.27003 -1.65849,-1.08083 -2.34513,-1.80179 -2.37525,-2.49399 -1.81822,-6.90276 1.15367,-9.13103 5.81788,-4.36214 21.36688,-7.57838 86.91662,-17.97832 12.1642,-1.92994 32.89178,-5.32411 46.06129,-7.54261 18.90871,-3.1853 24.86715,-4.06109 28.33134,-4.16423 3.87938,-0.1155 4.0908,-0.0928 1.82783,0.19599 -1.40743,0.17963 -6.17806,1.09056 -10.60141,2.02428 -16.13835,3.40665 -24.76754,4.83667 -69.45749,11.51048 -53.73178,8.02407 -70.8931,11.38597 -80.10565,15.69268 -3.63646,1.69998 -4.52281,2.52354 -4.52281,4.20242 0,1.67186 1.93347,3.56698 4.70819,4.61479 1.89058,0.71394 2.29708,0.74256 5.087,0.35815 2.48857,-0.34288 35.44224,-6.35124 78.30615,-14.27735 4.32281,-0.79935 17.72994,-3.27176 29.79361,-5.49425 27.20492,-5.01197 42.65932,-7.90277 45.95595,-8.59624 3.2024,-0.67364 3.21263,-0.67305 3.21263,0.18621 0,1.00522 -0.50992,1.20858 -7.31131,2.91578 -10.46961,2.62796 -31.09699,6.63792 -79.87611,15.52792 -63.68113,11.60589 -73.96922,13.17404 -77.13437,11.75712 z"
         id="path64"
         transform="scale(0.26458333)" /><path
         style="fill:#f9db57;fill-opacity:1;stroke-width:0.201897"
         d="m 167.42823,540.9839 c -1.06548,-3.02558 -2.08456,-6.51748 -2.85771,-9.79202 -1.02053,-4.32222 -2.46902,-11.74276 -2.59051,-13.27101 -0.23651,-2.97515 0.89859,-4.31394 4.95081,-5.83919 0.71559,-0.26935 1.33454,-0.45626 1.37545,-0.41535 0.0409,0.0409 0.13051,0.484 0.19914,0.98466 l 0.12477,0.91029 -1.13812,0.46193 c -2.74345,1.11349 -3.49885,2.2794 -3.28379,5.06829 0.22235,2.88339 2.90345,14.73831 3.36835,14.89371 0.11142,0.0372 0.15113,0.15096 0.0883,0.2527 -0.0629,0.10174 0.11676,0.94258 0.3992,1.86854 0.48619,1.59399 0.50564,1.83295 0.36543,4.49189 l -0.14807,2.80833 z"
         id="path65"
         transform="scale(0.26458333)" /></g></g></svg>
