<?xml version="1.0" encoding="UTF-8" standalone="no"?>
<!-- Created with Inkscape (http://www.inkscape.org/) -->

<svg
   width="72.584778mm"
   height="55.845074mm"
   viewBox="0 0 72.584778 55.845074"
   version="1.1"
   id="svg1"
   xml:space="preserve"
   xmlns="http://www.w3.org/2000/svg"
   xmlns:svg="http://www.w3.org/2000/svg"><defs
     id="defs1" /><g
     id="layer1"
     transform="translate(-32.372209,-60.734592)"><g
       id="g11308"><path
         style="fill:#101010"
         d="m 78.224736,115.98472 c -4.183506,-0.67502 -7.698388,-1.4586 -10.943076,-2.43956 -2.186273,-0.66097 -2.235934,-0.66384 -4.298588,-0.24822 -9.600705,1.9345 -15.978499,0.44291 -19.682715,-4.60324 -0.882025,-1.20156 -0.990081,-1.26259 -2.547487,-1.43879 -4.749995,-0.5374 -6.983811,-2.77807 -8.052513,-8.077219 -1.082282,-5.36648 0.600678,-12.71493 3.752274,-16.383865 1.794024,-2.088517 4.686283,-2.93442 6.887915,-2.01452 0.522421,0.218282 0.988354,0.396875 1.035408,0.396875 0.04705,0 0.510124,-0.807959 1.029043,-1.795465 1.364054,-2.595799 2.178244,-3.462309 5.087002,-5.413893 2.981884,-2.000646 3.200499,-2.303931 4.279996,-5.937656 1.002177,-3.373457 1.578214,-4.50212 2.913377,-5.70836 2.265003,-2.046294 6.57689,-2.126348 8.668964,-0.160947 0.812216,0.763037 1.958488,3.45094 2.284186,5.356205 0.337473,1.974149 -0.185838,4.712101 -1.385464,7.248709 -0.425405,0.899518 -0.681733,1.69218 -0.569619,1.76147 0.112115,0.06929 0.856457,-0.04444 1.654095,-0.25273 2.525625,-0.659532 14.004595,-3.233211 16.978238,-3.806659 5.24094,-1.010683 8.094219,-0.648243 10.319918,1.310895 1.653932,1.45585 2.404142,3.29598 2.199683,5.395429 -0.339459,3.485669 -0.451047,3.109204 1.026863,3.464345 1.989074,0.477973 2.643954,0.800065 3.859514,1.898251 3.86801,3.494516 2.53728,9.565086 -2.6137,11.923276 -1.230168,0.56319 -1.399361,0.72902 -1.242079,1.21739 0.931411,2.892019 1.022359,3.537189 0.699089,4.959209 -0.754574,3.31926 -3.159333,5.12021 -7.251261,5.43053 -1.273308,0.0966 -2.319832,0.2473 -2.32561,0.33498 -0.299852,4.54969 -1.782674,6.91211 -4.933793,7.86045 -1.58157,0.47599 -2.35901,0.44447 -6.82966,-0.27689 z m 6.905625,-4.2227 c 0.962583,-0.96258 1.267668,-2.71387 0.568854,-3.2654 -0.181901,-0.14356 -2.176198,-0.33719 -4.43177,-0.43027 -4.447784,-0.18356 -11.223534,-0.80786 -11.979746,-1.10378 -1.108594,-0.4338 -1.305785,-2.1093 -0.353535,-3.00389 0.631303,-0.59308 0.631303,-0.59308 5.093229,-0.16656 5.858999,0.56005 14.379951,0.78123 17.67749,0.45884 2.470459,-0.24153 2.677783,-0.30833 3.373438,-1.0869 1.093718,-1.22409 1.038357,-2.69364 -0.146094,-3.878089 -0.887301,-0.8873 -0.887301,-0.8873 -11.910126,-0.72482 -11.022824,0.16249 -11.022824,0.16249 -11.680407,-0.45527 -0.36167,-0.33977 -0.657583,-0.90009 -0.657583,-1.24514 0,-0.73852 1.093643,-1.92616 1.773911,-1.92638 1.921402,-6.2e-4 17.81848,-0.9702 22.038589,-1.34416 3.729805,-0.33051 4.436412,-0.54301 5.518719,-1.65967 1.57417,-1.62413 1.36954,-3.86297 -0.45662,-4.9959 -0.813937,-0.50495 -1.406587,-0.60954 -3.871474,-0.68321 -3.316637,-0.0991 -5.793364,0.24345 -11.81038,1.63361 -5.910735,1.36559 -11.989187,2.3291 -12.784931,2.02656 -1.186791,-0.45122 -1.555778,-1.89543 -0.738543,-2.89065 0.356771,-0.43447 1.039808,-0.6548 2.976563,-0.96014 7.046911,-1.111016 15.939093,-3.275748 18.980287,-4.620609 1.586725,-0.701672 2.183584,-1.968508 1.645286,-3.492125 -1.132178,-3.204561 -3.119327,-3.078188 -22.080782,1.404239 -7.194023,1.700644 -6.746875,1.486504 -6.746875,3.231088 0,3.413527 -1.709619,7.725867 -3.962636,9.995347 -2.753412,2.77353 -5.445823,3.82048 -6.61039,2.57047 -1.057161,-1.13473 -0.616477,-2.20283 1.372726,-3.32713 3.569223,-2.01733 4.958736,-4.66708 5.235774,-9.984441 0.18354,-3.522782 0.52178,-4.836612 1.805298,-7.012331 2.745136,-4.65334 2.412848,-9.821214 -0.657975,-10.233098 -0.971577,-0.130316 -1.198511,-0.04824 -2.057785,0.744272 -0.814336,0.751063 -1.089326,1.318651 -1.753651,3.619583 -1.338894,4.637348 -2.524358,6.30001 -5.845508,8.198562 -2.727198,1.559017 -4.292189,3.879555 -5.137233,7.617387 -0.541247,2.394066 -0.90573,3.090466 -1.778066,3.397246 -1.021407,0.35921 -2.142625,-0.49788 -2.259962,-1.72757 -0.116274,-1.218557 -0.974092,-2.09051 -2.05662,-2.09051 -3.806466,0 -6.685568,10.53042 -4.424274,16.181949 0.82041,2.05041 3.524052,3.53109 3.524052,1.92999 0,-0.73587 1.062808,-1.97235 1.695316,-1.97235 1.077165,0 1.682596,0.63617 2.650355,2.78494 2.799985,6.21696 8.670956,8.26202 17.849381,6.21756 2.433622,-0.54208 2.433622,-0.54208 5.440857,0.36957 4.920668,1.4917 11.235745,2.6939 14.525445,2.76521 1.427842,0.031 1.617539,-0.0362 2.447396,-0.86603 z"
         id="path11235" /><path
         style="fill:#ffffff;fill-opacity:1;stroke-width:0.109574;stroke-linecap:round;stroke-dasharray:none"
         d="m 310.41988,425.45369 c -14.24616,-0.99358 -33.13433,-4.74702 -53.38657,-10.60891 -10.46713,-3.02966 -11.01042,-3.06365 -19.84244,-1.24142 -11.28109,2.32753 -14.3269,2.67684 -23.46785,2.69146 -9.08576,0.0145 -13.09375,-0.54619 -19.18481,-2.68394 -11.53318,-4.04774 -18.55636,-10.7629 -25.10881,-24.0076 -3.05715,-6.17952 -4.45047,-8.13052 -6.52293,-9.13378 -2.31983,-1.12301 -4.13692,-0.99852 -5.98967,0.41036 -1.8659,1.41888 -3.6632,4.31097 -3.93406,6.33044 -0.34076,2.54052 -1.67071,2.97064 -4.75104,1.53652 -7.25693,-3.37862 -11.08126,-12.59034 -11.10352,-26.74522 -0.0121,-7.70592 0.63404,-12.78746 2.54765,-20.0354 3.16573,-11.9904 8.62997,-20.50728 14.44804,-22.51956 2.70347,-0.93504 4.97,-0.47602 7.08516,1.43489 1.62092,1.46442 2.37606,2.95485 2.88101,5.68637 0.91613,4.95585 3.9607,7.61585 8.02858,7.01449 1.34723,-0.19917 1.94707,-0.54922 3.24386,-1.89303 1.84548,-1.91238 2.47855,-3.54156 4.55559,-11.72354 2.74477,-10.81235 5.96145,-16.98842 11.78793,-22.63297 1.35454,-1.31225 3.57055,-3.08085 4.92446,-3.93022 10.52492,-6.60275 13.56012,-9.12584 16.75592,-13.92884 3.2793,-4.92847 4.17534,-7.15285 9.17456,-22.77535 1.63234,-5.10103 2.30679,-6.41291 4.47624,-8.70679 2.95395,-3.12336 4.18101,-3.7967 6.83645,-3.75145 6.98414,0.11901 10.93064,5.72521 10.87242,15.44476 -0.0473,7.89325 -1.92628,13.74663 -8.11484,25.27907 -3.78334,7.05029 -4.64325,10.66867 -5.58749,23.5113 -0.87329,11.87756 -2.04718,17.41456 -4.94711,23.33453 -3.01142,6.14753 -7.23682,10.52178 -14.14135,14.63949 -6.32315,3.77099 -8.18738,5.97497 -7.86773,9.30162 0.1164,1.21144 0.4734,2.10013 1.2085,3.00838 1.75569,2.16921 2.72906,2.70161 5.23045,2.86088 5.54901,0.35334 12.89918,-3.72784 20.53135,-11.40002 8.9505,-8.99741 15.34972,-25.35561 15.36598,-39.27972 0.006,-5.01091 -0.75852,-4.70427 29.3869,-11.78906 42.03907,-9.88005 55.54416,-12.48145 65.19153,-12.55743 3.78289,-0.0298 5.41543,0.10526 6.92511,0.57288 2.82269,0.87431 4.86744,2.80539 6.34295,5.99031 1.01964,2.2009 1.20208,2.98877 1.21382,5.24187 0.0118,2.26169 -0.12718,2.89149 -0.94495,4.28254 -1.94398,3.30681 -4.37141,4.74348 -12.72337,7.53033 -13.00549,4.33962 -37.60439,10.16716 -57.55887,13.63585 -9.61108,1.67069 -13.1044,2.33639 -14.89084,2.83763 -5.72523,1.60639 -7.14979,8.91502 -2.40729,12.35048 1.36296,0.98732 1.73668,1.08247 4.25159,1.08247 6.78571,0 24.75553,-3.06432 46.63411,-7.95232 24.4308,-5.45821 33.59368,-6.60883 46.591,-5.85059 7.28327,0.42488 9.4151,0.90921 12.07491,2.74328 6.56748,4.52859 6.99921,12.46864 1.00394,18.4639 -4.39475,4.39476 -7.49932,5.09931 -29.61781,6.72145 -21.47428,1.5749 -57.53433,3.75582 -68.04919,4.11564 -7.49726,0.25656 -8.61009,0.60568 -10.81275,3.39225 -1.81236,2.29281 -2.3305,4.0025 -1.74795,5.76766 0.56425,1.70969 2.66031,4.02883 4.23826,4.68933 2.01278,0.8425 9.22764,0.91935 43.02095,0.45828 40.54127,-0.55314 41.12883,-0.5112 44.45769,3.17346 1.93101,2.13739 3.02749,4.70152 3.03167,7.08954 0.007,4.02713 -3.35776,8.58726 -7.12882,9.66131 -8.83512,2.51637 -41.35524,2.35266 -73.12435,-0.36812 -12.63953,-1.08247 -17.65604,-1.3642 -18.86927,-1.0597 -1.34038,0.33641 -3.41954,2.30046 -4.15944,3.92915 -1.31721,2.8995 -0.48016,7.03043 1.74574,8.61541 0.59032,0.42034 1.88413,0.91803 2.87515,1.10597 5.65696,1.07282 25.51065,2.82402 42.0959,3.71308 11.58187,0.62085 16.77423,1.1142 18.03122,1.71322 2.00726,0.95656 2.17191,4.84658 0.36419,8.60426 -1.07659,2.23788 -4.16413,5.50092 -5.77775,6.10616 -1.18429,0.4442 -4.95878,0.69166 -7.66791,0.50271 z"
         id="path11236"
         transform="scale(0.26458333)" /><path
         style="fill:#ffffff;fill-opacity:1;stroke-width:0.00684836;stroke-linecap:round;stroke-dasharray:none"
         d="m 352.71224,372.84409 c -1.27312,-0.16287 -3.05475,-0.27978 -5.39023,-0.3537 -3.33673,-0.1056 -10.04049,-0.11348 -18.07542,-0.0212 -3.01662,0.0346 -8.86091,0.1077 -10.49611,0.13123 -0.82036,0.0118 -2.03597,0.0282 -2.70137,0.0365 l -1.20982,0.0151 v -0.0672 -0.0672 l 0.53586,-0.0135 c 0.94432,-0.0238 12.32966,-0.18051 17.05343,-0.23475 7.34582,-0.0844 13.16024,-0.0684 16.2524,0.0446 1.75142,0.064 3.36897,0.17593 4.40652,0.30487 l 0.12339,0.0153 0.007,0.1381 c 0.004,0.0759 -0.001,0.13688 -0.011,0.13539 -0.01,-10e-4 -0.23208,-0.0301 -0.49418,-0.0636 z"
         id="path11237"
         transform="scale(0.26458333)" /><path
         style="fill:#ffffff;fill-opacity:1;stroke-width:0.00968504;stroke-linecap:round;stroke-dasharray:none"
         d="m 323.45312,394.52579 c -1.18593,-0.0144 -2.20195,-0.0338 -2.25781,-0.0431 -0.0827,-0.0137 -0.10156,-0.0311 -0.10156,-0.0942 v -0.0774 l 0.91406,0.0165 c 0.50274,0.009 1.27969,0.0236 1.72656,0.0322 1.43666,0.0277 9.10086,0.0166 10.84375,-0.0157 6.60347,-0.12249 11.27931,-0.37774 15.20313,-0.82995 2.37276,-0.27345 4.40301,-0.65333 5.5,-1.02909 3.00567,-1.02956 5.7973,-4.33818 6.56597,-7.78197 0.37145,-1.66414 0.21968,-3.33752 -0.462,-5.09375 -0.47357,-1.22009 -1.21666,-2.44106 -2.14914,-3.53125 -0.40805,-0.47706 -1.12753,-1.21697 -1.43125,-1.47188 -0.98474,-0.82652 -2.15363,-1.29812 -3.99046,-1.60998 l -0.59562,-0.10113 v -0.12374 -0.12375 l 0.17969,0.0202 c 0.42088,0.0473 1.18582,0.19128 1.67973,0.31607 1.09675,0.27709 1.83012,0.62668 2.5937,1.23637 0.33152,0.26471 1.62326,1.5573 1.95029,1.95157 1.28173,1.54529 2.09127,3.10891 2.45116,4.73438 0.14378,0.64939 0.18204,0.98619 0.19879,1.75 0.0227,1.0357 -0.0722,1.78412 -0.34773,2.74129 -0.482,1.6746 -1.38416,3.18622 -2.86808,4.80558 -1.07394,1.17198 -1.69799,1.6775 -2.6188,2.12142 -1.45277,0.70036 -3.34658,1.03613 -9,1.59564 -3.62639,0.3589 -6.9109,0.52013 -12.45313,0.61129 -2.14703,0.0353 -8.42088,0.0322 -11.53125,-0.006 z"
         id="path11238"
         transform="scale(0.26458333)" /><path
         style="fill:#ffffff;fill-opacity:1;stroke-width:0.00968504;stroke-linecap:round;stroke-dasharray:none"
         d="m 318.6875,394.43518 c -3.55309,-0.0883 -7.3765,-0.2079 -9.92188,-0.31022 -11.53201,-0.46359 -20.09518,-1.02138 -30.05468,-1.95771 l -0.92969,-0.0874 v -0.0911 -0.0911 l 0.19531,0.0196 c 0.94392,0.0946 8.65579,0.71936 11.03906,0.89433 10.59602,0.77792 20.23188,1.23814 31.16407,1.48843 l 0.91406,0.0209 v 0.0739 0.0739 l -0.72656,-0.005 c -0.39961,-0.003 -1.15547,-0.0156 -1.67969,-0.0286 z"
         id="path11239"
         transform="scale(0.26458333)" /><path
         style="fill:#ffffff;fill-opacity:1;stroke-width:0.00968504;stroke-linecap:round;stroke-dasharray:none"
         d="m 283.84375,407.02688 c -0.16328,-0.0149 -0.88047,-0.0767 -1.59375,-0.13731 -9.39188,-0.79791 -17.1541,-1.67618 -19.23407,-2.17628 -0.86789,-0.20867 -1.85065,-0.59767 -2.39256,-0.94703 -0.99516,-0.64156 -1.79818,-1.89454 -2.20235,-3.43641 -0.21055,-0.80324 -0.24687,-1.1146 -0.24807,-2.12673 -0.001,-0.99137 0.025,-1.24196 0.20463,-1.96002 0.27975,-1.11821 0.72501,-1.92297 1.63562,-2.95619 0.83623,-0.94884 1.91855,-1.76636 2.70555,-2.04361 0.30402,-0.10711 0.68087,-0.15135 1.45312,-0.17061 1.73127,-0.0432 4.98918,0.14449 11.76563,0.67774 1.95825,0.1541 1.84375,0.13945 1.84375,0.23586 0,0.0605 -0.0161,0.0762 -0.0782,0.0762 -0.043,0 -0.74264,-0.0629 -1.55469,-0.13987 -8.24831,-0.78139 -10.92696,-0.92727 -12.58582,-0.6854 -0.87537,0.12764 -1.45677,0.35697 -2.0625,0.81356 -0.37302,0.28117 -1.14061,0.98956 -1.42253,1.31281 -0.96275,1.10388 -1.55321,2.39904 -1.78604,3.91765 -0.0775,0.50579 -0.0766,1.65572 0.002,2.15625 0.27322,1.74498 1.07128,3.18751 2.27658,4.11496 0.46803,0.36014 1.09649,0.68239 1.63336,0.83753 1.54348,0.446 6.69373,1.12493 13.98438,1.84349 2.33649,0.23028 7.95204,0.73527 8.1763,0.73527 0.0447,0 0.0737,0.0185 0.0737,0.0469 0,0.0536 -0.10829,0.0556 -0.59375,0.0113 z"
         id="path11241"
         transform="scale(0.26458333)" /><path
         style="fill:#ffffff;fill-opacity:1;stroke-width:0.00968504;stroke-linecap:round;stroke-dasharray:none"
         d="m 305.17187,408.49845 c -6.71542,-0.38272 -11.82857,-0.72453 -17.73437,-1.18552 -0.86797,-0.0677 -1.86641,-0.14555 -2.21875,-0.17288 -0.74184,-0.0576 -0.78125,-0.0638 -0.78125,-0.12306 0,-0.0321 0.028,-0.0404 0.10156,-0.0301 0.26069,0.0366 5.10169,0.41149 7.82031,0.60562 3.20033,0.22852 5.21233,0.35804 8.75,0.56327 1.46707,0.0851 6.1008,0.31292 6.36484,0.31292 0.04,0 0.057,0.0233 0.057,0.0781 0,0.0958 0.2681,0.10132 -2.35938,-0.0484 z"
         id="path11242"
         transform="scale(0.26458333)" /><path
         style="fill:#ffffff;fill-opacity:1;stroke-width:0.00171209;stroke-linecap:round;stroke-dasharray:none"
         d="m 315.02436,409.11318 c -1.21148,-0.0921 -3.19942,-0.22337 -5.13481,-0.33903 -0.89245,-0.0533 -2.55376,-0.1488 -2.7553,-0.15833 -0.0433,-0.002 -0.0777,-0.005 -0.0764,-0.006 0.001,-0.001 0.0853,5.5e-4 0.18651,0.004 0.19211,0.007 0.27414,0.003 0.28979,-0.0122 0.007,-0.007 0.007,-0.015 10e-4,-0.0517 -0.0124,-0.0849 -0.008,-0.0826 -0.16784,-0.0875 -0.25055,-0.008 -1.6827,-0.0739 -1.68692,-0.0781 -10e-4,-10e-4 -0.002,-0.003 -2.9e-4,-0.005 0.001,-0.001 0.12784,0.004 0.28128,0.0108 0.26681,0.0122 0.51168,0.0228 1.52194,0.0658 2.12153,0.0904 4.1866,0.20365 6.19547,0.33985 0.62225,0.0422 1.52863,0.10753 1.57303,0.11341 l 0.0235,0.003 v 0.11015 c 0,0.0606 -0.002,0.10983 -0.004,0.10943 -0.002,-3.9e-4 -0.11353,-0.009 -0.24721,-0.0192 z"
         id="path11245"
         transform="scale(0.26458333)" /><path
         style="fill:#ffffff;fill-opacity:1;stroke-width:0.00121063;stroke-linecap:round;stroke-dasharray:none"
         d="m 319.68945,409.52695 c -0.85224,-0.0964 -2.08276,-0.21086 -3.39648,-0.31588 -0.33863,-0.0271 -1.00044,-0.0783 -1.01172,-0.0783 -0.005,1e-5 -0.006,-0.0143 -0.005,-0.11035 7.3e-4,-0.0607 0.002,-0.1108 0.002,-0.11135 0.002,-0.002 0.78377,0.0596 1.30106,0.10269 1.18064,0.0984 2.19433,0.19516 3.21777,0.30712 l 0.0811,0.009 v 0.10854 0.10854 l -0.0108,-4.6e-4 c -0.006,-2.5e-4 -0.0863,-0.009 -0.17871,-0.0195 z"
         id="path11246"
         transform="scale(0.26458333)" /><path
         style="fill:#ffffff;fill-opacity:1;stroke-width:0.00121063;stroke-linecap:round;stroke-dasharray:none"
         d="m 324.02502,410.58933 c -0.0305,-0.0341 -0.1783,-0.148 -0.26916,-0.2074 -0.24424,-0.15966 -0.48603,-0.25508 -0.92774,-0.3661 -0.6136,-0.15423 -1.59471,-0.31249 -2.77343,-0.44737 -0.087,-0.01 -0.16216,-0.0189 -0.16699,-0.0199 l -0.009,-0.002 v -0.10735 -0.10735 h 0.0101 c 0.0229,0 0.57158,0.0644 0.91759,0.10765 1.71485,0.21446 2.78708,0.42698 3.06445,0.60737 0.0264,0.0172 0.0907,0.0689 0.13965,0.11236 l 0.0283,0.0251 v 0.20655 c 0,0.11361 -0.001,0.20656 -0.003,0.20656 -0.002,0 -0.007,-0.004 -0.0107,-0.008 z"
         id="path11247"
         transform="scale(0.26458333)" /><path
         style="fill:#ffffff;fill-opacity:1;stroke-width:0.00684836;stroke-linecap:round;stroke-dasharray:none"
         d="m 194.37702,413.81953 c -0.0851,-0.0311 -0.38835,-0.14099 -0.67396,-0.24428 -4.88049,-1.76491 -9.27475,-4.3624 -13.03728,-7.70647 -1.15395,-1.0256 -2.46058,-2.34449 -3.50562,-3.5385 -1.84212,-2.1047 -3.5271,-4.46374 -5.01733,-7.02444 -0.94497,-1.62378 -1.72562,-3.15575 -2.70242,-5.30331 -0.14925,-0.32814 -0.38431,-0.835 -0.52236,-1.12636 -0.13804,-0.29137 -0.25099,-0.53747 -0.25099,-0.54691 0,-0.009 0.0224,-0.0171 0.0499,-0.0171 0.0435,0 0.10162,0.10371 0.45512,0.81207 1.07232,2.14878 1.95325,3.8054 2.80095,5.26728 1.99938,3.448 4.0245,6.27595 6.28021,8.76989 0.43699,0.48314 1.88896,1.94738 2.34698,2.3668 3.80626,3.48551 8.21468,6.06499 13.67188,7.99977 l 0.27069,0.096 v 0.12727 c 0,0.07 -0.002,0.12673 -0.006,0.12607 -0.003,-6.6e-4 -0.0751,-0.0266 -0.16021,-0.0577 z"
         id="path11251"
         transform="scale(0.26458333)" /><path
         style="fill:#ffffff;fill-opacity:1;stroke-width:0.00684836;stroke-linecap:round;stroke-dasharray:none"
         d="m 211.53541,416.69214 c -6.14985,-0.16271 -11.55728,-1.03331 -16.51345,-2.65868 l -0.47921,-0.15716 v -0.12047 c 0,-0.0663 0.004,-0.12046 0.009,-0.12046 0.005,0 0.44008,0.14364 0.96674,0.3192 4.16596,1.38871 7.33104,1.97916 11.90667,2.2212 1.84073,0.0974 3.12587,0.12114 6.50207,0.12027 l 3.17646,-8.2e-4 v 0.16947 0.16947 l -0.43642,0.0152 c -1.3325,0.0465 -1.95319,0.0562 -3.36428,0.0524 -0.85681,-0.002 -1.65231,-0.007 -1.76777,-0.01 z"
         id="path11252"
         transform="scale(0.26458333)" /><path
         style="fill:#ffffff;fill-opacity:1;stroke-width:0.00684836;stroke-linecap:round;stroke-dasharray:none"
         d="m 217.10388,416.45317 c 0,-0.15372 0.003,-0.16601 0.0497,-0.17538 0.0273,-0.006 0.39239,-0.0159 0.81121,-0.0229 2.93414,-0.0496 5.8209,-0.27648 8.60767,-0.6764 2.66631,-0.38263 5.10658,-0.83528 10.9933,-2.0392 2.35744,-0.48212 2.8855,-0.58394 3.95756,-0.76303 0.88319,-0.14753 0.81541,-0.13979 0.81541,-0.0932 0,0.0333 -0.0522,0.0484 -0.34803,0.10008 -0.93641,0.16373 -1.94316,0.37259 -4.21874,0.87523 -1.84826,0.40826 -1.96751,0.43401 -3.01253,0.65057 -5.45883,1.13126 -10.7951,1.88442 -15.65579,2.20964 -0.77078,0.0516 -1.66023,0.0999 -1.83958,0.0999 l -0.1602,3e-5 z"
         id="path11253"
         transform="scale(0.26458333)" /><path
         style="fill:#ffffff;fill-opacity:1;stroke-width:0.00684836;stroke-linecap:round;stroke-dasharray:none"
         d="m 267.68411,418.04086 c -2.01472,-0.53319 -2.55964,-0.67832 -3.23722,-0.86218 -2.50791,-0.68051 -4.51676,-1.25913 -7.46882,-2.1513 -4.44364,-1.34296 -5.95603,-1.76831 -7.50196,-2.1099 -1.59412,-0.35224 -2.66696,-0.4832 -3.95538,-0.48285 -0.71753,2e-4 -1.11378,0.0217 -1.80091,0.0976 -0.4179,0.0462 -1.29466,0.16805 -1.36985,0.19046 -0.037,0.011 -0.0396,0.008 -0.0168,-0.0197 0.015,-0.0181 0.0207,-0.0394 0.0127,-0.0474 -0.008,-0.008 -0.01,-0.0145 -0.004,-0.0145 0.006,0 0.11951,-0.0153 0.25228,-0.034 2.71197,-0.38148 4.6662,-0.28126 7.59972,0.38975 1.47918,0.33835 2.91065,0.72734 6.86114,1.86447 3.87983,1.11679 7.08449,1.99643 10.48507,2.87803 l 0.66291,0.17186 0.007,0.12705 c 0.006,0.11074 0.002,0.12677 -0.0331,0.1248 -0.0219,-10e-4 -0.24361,-0.0562 -0.49276,-0.12215 z"
         id="path11254"
         transform="scale(0.26458333)" /><path
         style="fill:#ffffff;fill-opacity:1;stroke-width:0.00684836;stroke-linecap:round;stroke-dasharray:none"
         d="m 297.32735,424.1625 c -9.10217,-1.40112 -17.78551,-3.15784 -27.15179,-5.49305 l -1.96112,-0.48895 v -0.12915 c 0,-0.071 0.005,-0.12915 0.0106,-0.12915 0.006,0 0.77898,0.19363 1.71805,0.43028 9.02015,2.27315 17.47715,4.04506 25.3071,5.30234 0.62003,0.0996 2.18244,0.34056 2.52459,0.38943 l 0.1823,0.026 v 0.0858 c 0,0.0826 -0.003,0.0858 -0.0718,0.0835 -0.0395,-0.001 -0.29057,-0.036 -0.55795,-0.0771 z"
         id="path11255"
         transform="scale(0.26458333)" /><path
         style="fill:#ffffff;fill-opacity:1;stroke-width:0.00684836;stroke-linecap:round;stroke-dasharray:none"
         d="m 313.2704,425.68683 c -3.85705,-0.0607 -8.25333,-0.44823 -13.76648,-1.2135 -0.56514,-0.0784 -1.14436,-0.15984 -1.28716,-0.18088 l -0.25964,-0.0383 v -0.0949 c 0,-0.0872 0.004,-0.094 0.0497,-0.0832 0.10097,0.0238 1.99013,0.2886 3.06597,0.42979 3.36158,0.44116 6.42433,0.75252 9.62328,0.9783 0.53253,0.0376 2.92617,0.0373 3.57973,-4.1e-4 1.73979,-0.10041 3.03758,-0.26947 3.69758,-0.48169 0.82367,-0.26485 2.13854,-1.30847 3.43888,-2.72948 1.17796,-1.28727 2.06143,-2.54048 2.56077,-3.63247 0.62031,-1.35657 1.00793,-2.75688 1.1213,-4.05089 l 0.0274,-0.31303 h 0.0991 0.0991 l -0.0144,0.25303 c -0.0213,0.3721 -0.0946,0.92083 -0.18187,1.36006 -0.43745,2.20246 -1.44952,4.30692 -2.85863,5.94412 -0.23986,0.27868 -1.33742,1.37526 -1.7579,1.75633 -1.47568,1.33736 -2.48254,1.82312 -4.1653,2.00956 -0.62771,0.0695 -1.90409,0.10592 -3.0715,0.0875 z"
         id="path11256"
         transform="scale(0.26458333)" /><path
         style="fill:#ffffff;fill-opacity:1;stroke-width:0.00684836;stroke-linecap:round;stroke-dasharray:none"
         d="m 325.12949,414.0055 c 0.0136,-0.29778 -0.0204,-0.87663 -0.0717,-1.22087 -0.12774,-0.85713 -0.43754,-1.58171 -0.88116,-2.06086 l -0.12281,-0.13266 v -0.17865 c 0,-0.2189 0.008,-0.21835 0.21144,0.0152 0.61003,0.69907 0.95893,1.67218 1.04712,2.92049 0.0251,0.35585 0.0304,0.83916 0.01,0.89312 -0.009,0.0244 -0.0422,0.035 -0.10913,0.035 h -0.0957 z"
         id="path11257"
         transform="scale(0.26458333)" /><path
         style="fill:#ffffff;fill-opacity:1;stroke-width:0.00684836;stroke-linecap:round;stroke-dasharray:none"
         d="m 150.68004,389.8004 c -0.91716,-0.0859 -1.87613,-0.4048 -2.92328,-0.97225 -2.99862,-1.62492 -5.87437,-4.64325 -7.42875,-7.79703 -0.26176,-0.53112 -0.36636,-0.77066 -0.6104,-1.39785 -0.87048,-2.23716 -1.58523,-4.87133 -2.05199,-7.56252 -0.0495,-0.28561 -0.0939,-0.53668 -0.0986,-0.55795 -0.007,-0.0333 0.009,-0.0387 0.11673,-0.0387 h 0.12525 l 0.0857,0.51375 c 0.75166,4.50471 2.17021,8.40532 4.10705,11.29321 1.84069,2.74454 4.18946,4.69292 7.00992,5.81496 1.47481,0.58672 2.5118,0.62196 3.13289,0.10648 0.4263,-0.35382 0.67026,-0.91135 0.83438,-1.90689 0.0846,-0.51307 0.15022,-0.78492 0.29074,-1.20418 0.4068,-1.21379 1.18646,-2.56442 2.16296,-3.747 0.29503,-0.3573 1.02574,-1.08634 1.3351,-1.33205 0.45773,-0.36356 0.95246,-0.67191 1.4057,-0.87612 0.21993,-0.0991 0.62556,-0.24369 0.67909,-0.24207 0.0201,6.1e-4 -0.053,0.0337 -0.16234,0.0735 -2.10371,0.76628 -4.80312,3.92445 -5.41391,6.33399 -0.0843,0.3327 -0.11869,0.59457 -0.14201,1.08228 -0.0316,0.66001 -0.10553,0.98896 -0.31307,1.39212 -0.30304,0.58866 -0.83737,0.9327 -1.57773,1.01586 -0.18908,0.0212 -0.39367,0.0243 -0.56347,0.008 z"
         id="path11258"
         transform="scale(0.26458333)" /><path
         style="fill:#ffffff;fill-opacity:1;stroke-width:0.00684836;stroke-linecap:round;stroke-dasharray:none"
         d="m 137.55437,371.45473 c 0,-0.0107 -0.0399,-0.28383 -0.0887,-0.60704 -0.49302,-3.26611 -0.71142,-7.02893 -0.61901,-10.66517 0.0116,-0.45576 0.0275,-0.94548 0.0354,-1.08829 l 0.0143,-0.25964 h 0.13187 0.13187 l -0.0174,0.43642 c -0.0275,0.68808 -0.0203,4.21656 0.0102,5.01052 0.0977,2.54532 0.27297,4.59873 0.55744,6.52968 0.0367,0.24915 0.0727,0.50023 0.08,0.55796 l 0.0133,0.10496 h -0.12461 c -0.0685,0 -0.12461,-0.009 -0.12461,-0.0194 z"
         id="path11259"
         transform="scale(0.26458333)" /><path
         style="fill:#ffffff;fill-opacity:1;stroke-width:0.00684836;stroke-linecap:round;stroke-dasharray:none"
         d="m 136.90045,358.57495 c 0.1251,-2.34092 0.25766,-3.92248 0.48943,-5.83915 0.41858,-3.46165 1.11809,-7.17069 1.96079,-10.39668 l 0.13854,-0.53033 0.10429,-0.007 c 0.0636,-0.004 0.10428,0.002 0.10428,0.017 0,0.013 -0.0502,0.21419 -0.11161,0.44704 -0.45856,1.73948 -0.9306,3.78362 -1.23644,5.35428 -0.70228,3.60671 -1.03546,6.6454 -1.18416,10.79995 l -0.0148,0.41432 h -0.13208 -0.13209 z"
         id="path11260"
         transform="scale(0.26458333)" /><path
         style="fill:#ffffff;fill-opacity:1;stroke-width:0.00684836;stroke-linecap:round;stroke-dasharray:none"
         d="m 139.49891,341.78565 c 0,-0.007 0.0552,-0.21298 0.12259,-0.45851 1.5175,-5.52618 3.56893,-10.46686 5.90594,-14.22396 1.10928,-1.78333 2.26039,-3.28267 3.45042,-4.49421 1.06115,-1.08033 1.95978,-1.80629 3.02076,-2.44032 0.54181,-0.32378 0.51412,-0.31332 0.82945,-0.31332 h 0.27124 l -0.0993,0.0516 c -0.69344,0.36047 -1.01995,0.55406 -1.51904,0.90068 -4.68204,3.25168 -8.86227,10.5541 -11.54767,20.17254 -0.0899,0.32206 -0.17661,0.63777 -0.19265,0.70158 l -0.0292,0.11601 h -0.10631 c -0.0585,0 -0.10631,-0.005 -0.10631,-0.0121 z"
         id="path11261"
         transform="scale(0.26458333)" /><path
         style="fill:#ffffff;fill-opacity:1;stroke-width:0.00684836;stroke-linecap:round;stroke-dasharray:none"
         d="m 170.64475,333.64244 c -1.52166,-0.0787 -2.86308,-0.66295 -3.95191,-1.72133 -0.65309,-0.63482 -1.12703,-1.29735 -1.57336,-2.19943 -0.4776,-0.9653 -0.7566,-1.8431 -1.04647,-3.29246 -0.16081,-0.80406 -0.29778,-1.35697 -0.45982,-1.85616 -0.43525,-1.3408 -0.99012,-2.28093 -1.89557,-3.21171 -1.87346,-1.92587 -3.84259,-2.66484 -6.12925,-2.30019 -0.70071,0.11175 -1.53483,0.36505 -2.2228,0.67503 l -0.26443,0.11914 -0.2659,-10e-4 -0.2659,-10e-4 0.21429,-0.10899 c 0.86465,-0.43977 1.88652,-0.75046 2.8793,-0.87543 0.42477,-0.0535 1.36237,-0.0535 1.76777,-1e-4 1.40527,0.1852 2.60874,0.69585 3.71231,1.5752 0.3204,0.2553 0.92133,0.85857 1.18579,1.1904 1.11947,1.40466 1.76223,3.03957 1.98509,5.04918 0.0783,0.70602 0.19989,1.28509 0.38776,1.84662 0.81589,2.43862 2.72629,4.30162 4.98188,4.85829 0.51846,0.12795 0.76329,0.15577 1.37002,0.15563 0.59247,-1.3e-4 0.81995,-0.0252 1.29924,-0.14344 0.75577,-0.18637 1.62723,-0.58157 2.19822,-0.99688 0.0839,-0.061 0.15673,-0.10675 0.16186,-0.10162 0.009,0.009 -0.30264,0.28272 -0.49944,0.43826 -0.5909,0.46702 -1.25367,0.71991 -2.22075,0.84736 -0.23932,0.0315 -0.38789,0.0423 -0.88389,0.0641 -0.0851,0.004 -0.29389,-4e-4 -0.46404,-0.009 z"
         id="path11262"
         transform="scale(0.26458333)" /><path
         style="fill:#ffffff;fill-opacity:1;stroke-width:0.00684836;stroke-linecap:round;stroke-dasharray:none"
         d="m 176.18007,330.69595 c 0,-0.006 0.0434,-0.0791 0.0965,-0.16151 0.37429,-0.58107 0.82271,-1.50342 1.16862,-2.40375 0.67193,-1.74887 1.25577,-3.82899 2.09324,-7.45777 0.65786,-2.85048 1.16852,-4.71202 1.87613,-6.83911 0.30929,-0.92972 0.78498,-2.23841 1.03611,-2.85046 l 0.0635,-0.15468 0.12542,-0.007 c 0.069,-0.004 0.12542,4.9e-4 0.12542,0.009 0,0.009 -0.0935,0.26027 -0.2077,0.55905 -0.92272,2.41338 -1.75021,5.07841 -2.58725,8.33246 -0.73221,2.84651 -0.97293,3.75794 -1.30646,4.94652 -0.60359,2.15098 -1.06914,3.4986 -1.5571,4.50729 -0.24718,0.51098 -0.36739,0.72361 -0.65443,1.1576 -0.20512,0.31013 -0.272,0.39908 -0.272,0.36179 z"
         id="path11264"
         transform="scale(0.26458333)" /><path
         style="fill:#ffffff;fill-opacity:1;stroke-width:0.00684836;stroke-linecap:round;stroke-dasharray:none"
         d="m 182.52194,310.80866 c 0,-0.0179 0.37528,-0.91853 0.55792,-1.33896 0.47874,-1.10207 1.16923,-2.51448 1.71764,-3.51344 3.08308,-5.61602 7.17586,-9.95324 12.62892,-13.38317 0.54034,-0.33986 0.96265,-0.59247 1.82301,-1.09042 2.04634,-1.18436 3.39086,-2.03269 5.13122,-3.23754 0.0816,-0.0565 0.16411,-0.0994 0.18341,-0.0954 0.0539,0.0112 -1.32316,0.9643 -2.91709,2.01886 -1.36004,0.89982 -2.4311,1.58936 -4.26474,2.74563 -1.51659,0.95634 -2.08755,1.36207 -3.3919,2.41034 -0.98963,0.79534 -1.73708,1.45655 -2.53858,2.24568 -2.19531,2.16142 -3.89758,4.26747 -5.42082,6.70662 -1.11985,1.79318 -2.23252,4.00687 -3.11265,6.1927 l -0.14014,0.34803 h -0.1281 c -0.0705,0 -0.1281,-0.004 -0.1281,-0.009 z"
         id="path11265"
         transform="scale(0.26458333)" /><path
         style="fill:#ffffff;fill-opacity:1;stroke-width:0.00684836;stroke-linecap:round;stroke-dasharray:none"
         d="m 204.559,288.14988 c -0.0148,-0.009 0.0386,-0.0599 0.13236,-0.12562 0.31789,-0.22294 1.38649,-1.02858 1.77277,-1.33654 1.10579,-0.88156 1.92173,-1.60416 2.88061,-2.55107 4.35259,-4.29825 7.27919,-9.55755 10.13275,-18.20926 0.17236,-0.52259 0.38747,-1.18625 0.47801,-1.47478 0.13232,-0.42166 0.17222,-0.52465 0.2033,-0.52481 0.0213,-1.1e-4 0.0387,0.008 0.0387,0.0181 0,0.0353 -1.05937,3.18309 -1.37887,4.09719 -1.68106,4.80955 -2.73186,7.14165 -4.47298,9.92717 -0.34016,0.54421 -1.17871,1.81536 -1.49764,2.27027 -1.40035,1.99743 -2.8131,3.55257 -4.69522,5.16846 -0.95706,0.82168 -1.95979,1.59759 -3.46846,2.68389 -0.0552,0.0398 -0.11163,0.0654 -0.1253,0.057 z"
         id="path11266"
         transform="scale(0.26458333)" /><path
         style="fill:#ffffff;fill-opacity:1;stroke-width:0.00684836;stroke-linecap:round;stroke-dasharray:none"
         d="m 220.13118,263.91376 c 0,-0.008 0.069,-0.23881 0.15323,-0.51376 0.25969,-0.84725 0.46793,-1.54772 0.90738,-3.05212 1.43153,-4.90063 2.16865,-7.02188 3.08298,-8.87198 0.61266,-1.23971 1.19588,-2.12069 2.05909,-3.11034 0.6362,-0.7294 2.14508,-2.13713 3.1276,-2.91795 1.12909,-0.8973 1.92097,-1.28441 2.9557,-1.44493 0.35066,-0.0544 1.39771,-0.0542 1.93349,3.4e-4 1.35712,0.13818 1.99293,0.25268 2.81186,0.50639 l 0.29279,0.0907 v 0.12753 0.12754 l -0.16021,-0.055 c -0.79545,-0.27303 -1.77264,-0.46653 -2.72308,-0.53922 -0.46684,-0.0357 -1.48757,-0.0298 -1.87279,0.0109 -1.85987,0.19624 -3.10704,1.00469 -5.57404,3.61328 -1.38448,1.46394 -2.00982,2.32295 -2.66226,3.65707 -0.6045,1.23609 -1.01043,2.35048 -2.16923,5.95516 -0.61956,1.92727 -1.32821,4.11723 -1.87877,5.80601 -0.16745,0.51363 -0.21062,0.62425 -0.24362,0.62425 -0.0221,0 -0.0401,-0.006 -0.0401,-0.0138 z"
         id="path11267"
         transform="scale(0.26458333)" /><path
         style="fill:#ffffff;fill-opacity:1;stroke-width:0.00684836;stroke-linecap:round;stroke-dasharray:none"
         d="m 214.85388,361.05222 c 0.005,-0.0259 0.1118,-0.0692 0.37175,-0.15084 3.35786,-1.05506 7.31209,-3.40287 11.29161,-6.70437 2.22404,-1.84511 4.61464,-4.1283 6.12255,-5.84748 2.11323,-2.40931 4.14742,-5.38176 5.95808,-8.70626 0.36801,-0.67568 0.90385,-1.70873 1.14904,-2.21523 0.19929,-0.41168 0.20804,-0.42537 0.27199,-0.42537 h 0.0661 l -0.37835,0.75683 c -2.10365,4.20798 -4.57139,7.93638 -7.24252,10.94241 -1.19568,1.34559 -3.08606,3.19213 -4.83853,4.72632 -4.19007,3.66817 -8.28276,6.21345 -11.90276,7.40243 -0.39472,0.12964 -0.81993,0.25784 -0.85523,0.25784 -0.0115,0 -0.0176,-0.0163 -0.0137,-0.0363 z"
         id="path11269"
         transform="scale(0.26458333)" /><path
         style="fill:#ffffff;fill-opacity:1;stroke-width:0.00684836;stroke-linecap:round;stroke-dasharray:none"
         d="m 204.08082,354.72742 c 0.027,-0.83421 0.28512,-1.67897 0.75538,-2.47248 0.31751,-0.53578 0.7053,-1.01837 1.28417,-1.59809 1.21706,-1.21885 2.85545,-2.39807 5.79069,-4.16779 1.85948,-1.12112 3.12874,-1.96748 4.49038,-2.99427 1.40038,-1.05599 2.48361,-1.99566 3.68712,-3.19848 1.07516,-1.07453 1.82651,-1.92583 2.65827,-3.0119 l 0.21577,-0.28174 h 0.17673 0.17673 l -0.1829,0.23755 c -1.84378,2.39473 -3.941,4.4491 -6.52647,6.39309 -1.59135,1.19652 -3.12179,2.1908 -5.23701,3.40233 -1.68658,0.96602 -2.98599,1.83708 -3.98852,2.67371 -2.11688,1.76657 -3.15917,3.40578 -3.30129,5.19196 -0.004,0.0547 -0.004,-0.0236 9.5e-4,-0.17389 z"
         id="path11270"
         transform="scale(0.26458333)" /><path
         style="fill:#ffffff;fill-opacity:1;stroke-width:0.00684836;stroke-linecap:round;stroke-dasharray:none"
         d="m 210.88355,361.62658 c -0.33059,-0.0116 -0.86082,-0.0547 -1.20429,-0.0977 -1.76975,-0.22187 -2.70246,-0.78142 -4.11922,-2.47121 -0.48441,-0.57776 -0.7096,-0.90508 -0.93634,-1.36104 -0.23473,-0.472 -0.43232,-1.12983 -0.47789,-1.59099 -0.0114,-0.11558 -0.006,-0.10414 0.0399,0.0892 0.2734,1.1442 0.86264,2.17814 1.88711,3.31135 1.02185,1.1303 2.25883,1.77477 3.86056,2.01134 0.88395,0.13056 2.04943,0.0986 3.15069,-0.0864 0.48791,-0.082 1.32431,-0.27564 1.72725,-0.39996 0.0273,-0.008 0.0387,2.3e-4 0.0387,0.0295 0,0.0355 -0.061,0.0564 -0.42537,0.14562 -0.82481,0.20194 -1.51998,0.31917 -2.23733,0.37729 -0.41981,0.034 -1.00787,0.0534 -1.30373,0.043 z"
         id="path11271"
         transform="scale(0.26458333)" /><path
         style="fill:#ffffff;fill-opacity:1;stroke-width:0.00684836;stroke-linecap:round;stroke-dasharray:none"
         d="m 223.05295,336.87654 c 0.93532,-1.22968 2.06194,-3.07971 2.91863,-4.7927 2.3322,-4.66338 3.56854,-9.18726 4.37461,-16.00711 l 0.0718,-0.60767 0.12875,-0.007 0.12875,-0.007 -0.0122,0.0619 c -0.007,0.0341 -0.0231,0.16136 -0.0364,0.2829 -0.0918,0.83877 -0.30037,2.37012 -0.45452,3.33666 -1.16565,7.30866 -3.30161,12.97613 -6.59991,17.51194 l -0.24906,0.3425 -0.18388,0.006 -0.18389,0.006 z"
         id="path11272"
         transform="scale(0.26458333)" /><path
         style="fill:#ffffff;fill-opacity:1;stroke-width:0.00684836;stroke-linecap:round;stroke-dasharray:none"
         d="m 230.43554,315.33095 c 0.007,-0.0699 0.0483,-0.4552 0.0909,-0.85626 0.17153,-1.614 0.31255,-3.20142 0.48682,-5.48008 0.29619,-3.87267 0.43233,-5.45229 0.62044,-7.19899 0.0298,-0.27697 0.0542,-0.50816 0.0542,-0.51376 0,-0.006 0.0196,-0.0102 0.0436,-0.0102 0.0355,0 0.0416,0.0113 0.0329,0.0608 -0.0144,0.0809 -0.10901,1.00332 -0.16384,1.59651 -0.16256,1.75894 -0.28106,3.45096 -0.43177,6.16509 -0.0429,0.77174 -0.098,1.69651 -0.12257,2.05503 -0.14,2.04365 -0.34834,4.25629 -0.4041,4.29176 -0.0143,0.009 -0.0696,0.0167 -0.12299,0.0168 l -0.0971,3.4e-4 z"
         id="path11273"
         transform="scale(0.26458333)" /><path
         style="fill:#ffffff;fill-opacity:1;stroke-width:0.00242126;stroke-linecap:round;stroke-dasharray:none"
         d="m 231.68372,301.26172 c 0.002,-0.0172 0.0166,-0.14024 0.0316,-0.27344 0.25684,-2.27543 0.57076,-4.24888 0.93829,-5.89844 0.0412,-0.18476 0.0772,-0.34648 0.0801,-0.35937 l 0.005,-0.0234 0.069,-0.002 c 0.0684,-0.002 0.069,-0.002 0.0652,0.0156 -0.002,0.01 -0.0393,0.17083 -0.0826,0.35774 -0.39602,1.70839 -0.71398,3.60911 -0.96591,5.77408 -0.0564,0.48435 -0.0495,0.43967 -0.0648,0.42441 -0.0145,-0.0145 -0.0628,-0.0103 -0.0738,0.006 -0.004,0.006 -0.005,-0.003 -0.002,-0.0212 z"
         id="path11275"
         transform="scale(0.26458333)" /><path
         style="fill:#ffffff;fill-opacity:1;stroke-width:0.00242126;stroke-linecap:round;stroke-dasharray:none"
         d="m 232.74219,294.69909 c 0,-0.01 0.0774,-0.32947 0.14475,-0.59753 0.29499,-1.17455 0.65251,-2.31975 1.06463,-3.41015 0.11272,-0.29825 0.14161,-0.37247 0.25388,-0.65235 l 0.11125,-0.27734 0.0682,-0.002 c 0.0397,-0.001 0.0682,8.6e-4 0.0682,0.005 0,0.004 -0.007,0.0245 -0.0164,0.0452 -0.0471,0.1085 -0.24982,0.63537 -0.36779,0.95572 -0.43987,1.19445 -0.85147,2.54284 -1.14407,3.74798 l -0.046,0.18938 -0.0684,7e-5 c -0.0376,4e-5 -0.0684,-0.002 -0.0684,-0.004 z"
         id="path11276"
         transform="scale(0.26458333)" /><path
         style="fill:#ffffff;fill-opacity:1;stroke-width:0.00242126;stroke-linecap:round;stroke-dasharray:none"
         d="m 234.3226,289.74805 c 0.0784,-0.19311 0.30667,-0.72371 0.42945,-0.99805 0.51749,-1.15639 1.06798,-2.25967 1.95879,-3.92578 0.14473,-0.2707 0.3191,-0.59841 0.38748,-0.72824 l 0.12434,-0.23605 0.0756,-2.8e-4 0.0756,-2.8e-4 -0.0745,0.13086 c -1.01799,1.78819 -1.87967,3.49611 -2.52359,5.00196 -0.0919,0.21481 -0.26169,0.62265 -0.29523,0.70898 l -0.022,0.0566 h -0.0699 c -0.0528,0 -0.0689,-0.002 -0.066,-0.01 z"
         id="path11277"
         transform="scale(0.26458333)" /><path
         style="fill:#ffffff;fill-opacity:1;stroke-width:0.00242126;stroke-linecap:round;stroke-dasharray:none"
         d="m 237.24306,283.82617 c 0.009,-0.0183 0.0862,-0.16504 0.17105,-0.32617 0.89494,-1.69989 1.80185,-3.50064 2.46893,-4.90234 0.43798,-0.92028 1.06617,-2.30101 1.26806,-2.78711 l 0.0122,-0.0293 h 0.16406 0.16406 l -0.0105,0.0254 c -0.82565,1.98831 -1.72183,3.84292 -2.76437,5.7207 -0.23647,0.42592 -0.44139,0.78366 -0.79212,1.38282 -0.14589,0.24921 -0.32956,0.56474 -0.40817,0.70117 l -0.14291,0.24804 h -0.0735 -0.0735 z"
         id="path11278"
         transform="scale(0.26458333)" /><path
         style="fill:#ffffff;fill-opacity:1;stroke-width:0.00242126;stroke-linecap:round;stroke-dasharray:none"
         d="m 241.17483,275.75602 c 0.64317,-1.47956 1.31131,-3.22735 1.74643,-4.56852 0.0481,-0.14824 0.0963,-0.29678 0.10717,-0.33008 l 0.0197,-0.0605 h 0.10535 c 0.0967,0 0.10501,10e-4 0.10116,0.0137 -0.002,0.008 -0.034,0.11211 -0.0703,0.23242 -0.46526,1.53888 -0.97446,2.96928 -1.64784,4.6289 l -0.0428,0.10547 -0.16499,0.002 -0.16499,0.002 z"
         id="path11279"
         transform="scale(0.26458333)" /><path
         style="fill:#ffffff;fill-opacity:1;stroke-width:0.00242126;stroke-linecap:round;stroke-dasharray:none"
         d="m 243.05784,270.76389 c 0.006,-0.0184 0.0387,-0.12483 0.0734,-0.23655 0.53905,-1.73708 0.94876,-3.50824 1.20092,-5.1914 0.0196,-0.13106 0.0374,-0.24619 0.0394,-0.25586 0.004,-0.0171 0.006,-0.0176 0.10124,-0.0176 0.0662,0 0.0975,0.003 0.0975,0.009 0,0.016 -0.1022,0.61753 -0.1452,0.85461 -0.1733,0.95566 -0.37538,1.89092 -0.62056,2.87207 -0.16387,0.65578 -0.27766,1.07351 -0.53067,1.94824 l -0.0136,0.0469 -0.10642,0.002 -0.10641,0.002 z"
         id="path11280"
         transform="scale(0.26458333)" /><path
         style="fill:#ffffff;fill-opacity:1;stroke-width:0.00484252;stroke-linecap:round;stroke-dasharray:none"
         d="m 244.38288,265.02027 c 0.0959,-0.5674 0.23862,-2.01035 0.2963,-2.99683 0.0839,-1.43429 0.0933,-3.21586 0.0234,-4.39844 -0.1241,-2.09899 -0.44475,-3.95146 -0.96552,-5.57813 -0.0591,-0.18476 -0.11284,-0.34824 -0.11931,-0.36328 -0.0107,-0.0248 4.9e-4,-0.0273 0.12081,-0.0273 h 0.13257 l 0.0482,0.13672 c 0.0729,0.20689 0.21164,0.65341 0.29009,0.93359 0.93026,3.32253 1.08316,7.35044 0.44635,11.75781 -0.0341,0.23633 -0.0675,0.46133 -0.0742,0.5 l -0.0121,0.0703 -0.097,0.005 -0.097,0.005 z"
         id="path11281"
         transform="scale(0.26458333)" /><path
         style="fill:#ffffff;fill-opacity:1;stroke-width:0.00684836;stroke-linecap:round;stroke-dasharray:none"
         d="m 243.47981,251.2936 c -0.9714,-2.60923 -2.50499,-4.55265 -4.52787,-5.73786 -0.28968,-0.16972 -0.91848,-0.474 -1.23148,-0.59591 l -0.25412,-0.099 -0.007,-0.12305 c -0.005,-0.0857 0.002,-0.12305 0.0203,-0.12305 0.0148,0 0.16696,0.0559 0.33808,0.12414 2.06607,0.82434 3.70995,2.31443 4.96447,4.50002 0.31598,0.55048 0.73067,1.44464 0.96573,2.08231 0.0493,0.13369 0.0964,0.26047 0.10473,0.28174 0.0134,0.0342 0,0.0387 -0.1143,0.0386 l -0.12943,-6e-5 z"
         id="path11282"
         transform="scale(0.26458333)" /><path
         style="fill:#ffffff;fill-opacity:1;stroke-width:0.00684836;stroke-linecap:round;stroke-dasharray:none"
         d="m 240.18783,336.51231 c 2.45102,-5.18824 4.25046,-10.77784 5.20938,-16.18189 0.11034,-0.62181 0.27492,-1.67821 0.34427,-2.20971 0.0686,-0.52586 0.0608,-0.49718 0.13526,-0.49718 0.049,0 0.0638,0.0102 0.0638,0.0441 0,0.0242 -0.0404,0.32006 -0.0897,0.65738 -0.89895,6.14425 -2.80902,12.41462 -5.55157,18.2247 -0.20013,0.42397 -0.21137,0.44222 -0.27647,0.44877 l -0.0679,0.007 z"
         id="path11283"
         transform="scale(0.26458333)" /><path
         style="fill:#ffffff;fill-opacity:1;stroke-width:0.00684836;stroke-linecap:round;stroke-dasharray:none"
         d="m 245.80799,317.60604 c 0,-0.01 0.0147,-0.13143 0.0327,-0.27069 0.0748,-0.57837 0.17841,-1.70457 0.23171,-2.51815 0.0696,-1.06191 0.0756,-1.31739 0.0783,-3.32561 0.003,-2.12996 0.008,-2.30191 0.0901,-2.76975 0.20441,-1.17218 0.85049,-1.92676 2.26235,-2.64229 1.84355,-0.93431 4.80945,-1.79827 12.41922,-3.6177 1.75146,-0.41876 4.27009,-1.01339 4.29232,-1.01339 0.0105,0 0.0161,0.042 0.0124,0.0934 l -0.007,0.0934 -0.67397,0.16062 c -9.64643,2.29907 -13.51105,3.39004 -15.64005,4.41513 -1.49835,0.72144 -2.17089,1.43062 -2.38828,2.51836 -0.0799,0.39983 -0.094,0.68938 -0.11353,2.33124 -0.0188,1.57811 -0.0301,1.91647 -0.10039,3.00521 -0.058,0.8982 -0.15118,1.89805 -0.26461,2.83947 -0.0307,0.25522 -0.062,0.52122 -0.0695,0.5911 -0.0135,0.12675 -0.0138,0.12706 -0.0878,0.12706 -0.0408,0 -0.0742,-0.008 -0.0742,-0.0175 z"
         id="path11284"
         transform="scale(0.26458333)" /><path
         style="fill:#ffffff;fill-opacity:1;stroke-width:0.00684836;stroke-linecap:round;stroke-dasharray:none"
         d="m 265.23544,301.5345 0.007,-0.0968 6.06565,-1.43042 c 5.55971,-1.31111 13.70427,-3.2232 13.87297,-3.25694 l 0.0703,-0.014 v 0.0982 0.0983 l -0.24859,0.0582 c -0.13672,0.032 -1.44183,0.33652 -2.90024,0.6767 -3.85361,0.89887 -11.23645,2.6329 -14.82715,3.4825 -1.05734,0.25018 -1.95043,0.46079 -1.98463,0.46803 -0.0615,0.013 -0.0621,0.012 -0.0552,-0.0837 z"
         id="path11285"
         transform="scale(0.26458333)" /><path
         style="fill:#ffffff;fill-opacity:1;stroke-width:0.00684836;stroke-linecap:round;stroke-dasharray:none"
         d="m 285.25142,296.83241 1.2e-4,-0.10168 0.70146,-0.16236 c 0.3858,-0.0893 1.666,-0.38567 2.84488,-0.6586 11.26111,-2.60709 19.66681,-4.4662 26.5659,-5.87566 0.56192,-0.11479 1.03673,-0.20872 1.05514,-0.20872 0.0243,0 0.0335,0.0242 0.0335,0.0884 0,0.0486 -0.003,0.0884 -0.008,0.0884 -0.0736,0 -5.12723,1.06256 -7.65999,1.61057 -5.86847,1.26976 -16.31491,3.63037 -23.11908,5.22429 l -0.41432,0.0971 z"
         id="path11286"
         transform="scale(0.26458333)" /><path
         style="fill:#ffffff;fill-opacity:1;stroke-width:0.00684836;stroke-linecap:round;stroke-dasharray:none"
         d="m 316.45238,289.90812 v -0.0949 l 0.75683,-0.15133 c 5.35033,-1.06981 9.57544,-1.82345 13.33006,-2.37771 6.77776,-1.00054 11.52726,-1.25129 15.03707,-0.79388 0.47138,0.0614 0.44194,0.0501 0.44194,0.16937 v 0.0999 l -0.0829,-0.0129 c -0.13109,-0.0204 -0.80124,-0.0786 -1.17961,-0.1025 -1.46468,-0.0925 -4.4145,-0.0826 -6.39417,0.0216 -4.31055,0.2267 -9.58853,0.95948 -16.88217,2.34388 -1.55021,0.29424 -4.71526,0.91832 -4.97737,0.98143 -0.0457,0.011 -0.0497,0.004 -0.0497,-0.0829 z"
         id="path11287"
         transform="scale(0.26458333)" /><path
         style="fill:#ffffff;fill-opacity:1;stroke-width:0.00171209;stroke-linecap:round;stroke-dasharray:none"
         d="m 352.44583,290.19103 c -0.20411,-0.24744 -0.43985,-0.50401 -0.69133,-0.75241 -0.83592,-0.82567 -1.78169,-1.46092 -2.85807,-1.91968 -0.86148,-0.36716 -1.77909,-0.6132 -2.7631,-0.74087 -0.0659,-0.009 -0.11877,-0.0171 -0.1176,-0.019 10e-4,-0.002 0.003,-0.0405 0.003,-0.0858 8.6e-4,-0.0565 -8.6e-4,-0.0862 -0.005,-0.0947 -0.009,-0.0166 -0.0309,-0.0272 -0.0823,-0.0398 -0.0686,-0.0169 -0.0297,-0.0131 0.14055,0.0136 2.05763,0.32273 3.6999,0.93503 4.99284,1.86153 0.49873,0.35737 0.97192,0.78297 1.38299,1.24389 l 0.0451,0.0506 -10e-4,0.2681 -0.001,0.26809 z"
         id="path11288"
         transform="scale(0.26458333)" /><path
         style="fill:#ffffff;fill-opacity:1;stroke-width:0.00484252;stroke-linecap:round;stroke-dasharray:none"
         d="m 332.5,328.92633 v -0.12394 l 0.0898,-0.017 c 0.0494,-0.009 0.43438,-0.0841 0.85547,-0.16605 6.98028,-1.35843 12.54124,-2.13447 17.70313,-2.47049 1.28698,-0.0838 2.47988,-0.13784 3.99218,-0.18092 0.76548,-0.0218 3.50341,-0.0373 4.05079,-0.023 l 0.44921,0.0118 v 0.0737 0.0737 l -1.72265,-3.8e-4 c -1.67654,-3.6e-4 -2.35463,0.0109 -3.6836,0.061 -5.27179,0.19882 -10.77732,0.86527 -18,2.17891 -1.11533,0.20286 -3.54841,0.66206 -3.69921,0.69817 -0.0342,0.008 -0.0352,0.005 -0.0352,-0.11551 z"
         id="path11289"
         transform="scale(0.26458333)" /><path
         style="fill:#ffffff;fill-opacity:1;stroke-width:0.00484252;stroke-linecap:round;stroke-dasharray:none"
         d="m 367.04687,326.48367 c -2.06864,-0.16584 -5.89954,-0.35867 -7.12549,-0.35867 -0.12723,0 -0.24245,-0.004 -0.25604,-0.009 -0.0179,-0.007 -0.0247,-0.0306 -0.0247,-0.0859 v -0.0765 l 0.14454,5e-5 c 0.43317,1.4e-4 3.27801,0.0848 4.47265,0.13308 1.19272,0.0482 2.21327,0.10089 3.21485,0.16593 l 0.29296,0.019 v 0.13003 0.13002 l -0.0898,-0.002 c -0.0494,-0.001 -0.33242,-0.0216 -0.62891,-0.0454 z"
         id="path11290"
         transform="scale(0.26458333)" /><path
         style="fill:#ffffff;fill-opacity:1;stroke-width:0.00484252;stroke-linecap:round;stroke-dasharray:none"
         d="m 340.625,327.47117 c 0,-0.10255 0.003,-0.11182 0.0352,-0.11915 0.054,-0.0122 1.42647,-0.21667 1.98828,-0.2962 3.86426,-0.54704 7.28372,-0.87222 10.6875,-1.01636 1.73649,-0.0735 1.96641,-0.0775 4.46093,-0.0778 1.62191,-1.8e-4 2.61659,0.006 3.03125,0.0196 0.33946,0.0109 1.06016,0.0337 1.60157,0.0507 1.547,0.0484 2.57542,0.0899 3.67968,0.14832 0.62322,0.033 1.45939,0.0835 1.56641,0.0947 l 0.0898,0.009 v 0.12166 0.12167 l -0.0976,-0.007 c -0.0537,-0.004 -0.37539,-0.0272 -0.71485,-0.0525 -2.10098,-0.15636 -5.0204,-0.31062 -6.35156,-0.33561 -0.25781,-0.005 -0.57597,-0.0129 -0.70703,-0.0178 l -0.23828,-0.009 -0.002,-0.0413 c -0.002,-0.0368 -0.003,-0.0375 -0.009,-0.006 l -0.007,0.0352 -1.44813,3.4e-4 c -2.07244,4.9e-4 -3.32378,0.0279 -4.99501,0.10951 -3.62783,0.17711 -7.54594,0.59618 -11.83594,1.26593 -0.33085,0.0517 -0.63144,0.0982 -0.66796,0.10338 l -0.0664,0.009 z"
         id="path11291"
         transform="scale(0.26458333)" /><path
         style="fill:#ffffff;fill-opacity:1;stroke-width:0.0136967;stroke-linecap:round;stroke-dasharray:none"
         d="m 282.14617,338.95971 c 0.01,-0.0297 0.17493,-0.0774 0.36829,-0.10652 10.8111,-1.62705 21.54209,-3.70639 35.06487,-6.79453 4.45495,-1.01735 7.03112,-1.5914 9.72272,-2.1665 2.1664,-0.46288 5.01039,-1.04331 5.11199,-1.04331 0.0415,0 0.0598,0.0347 0.0508,0.0964 -0.0132,0.0903 -0.1359,0.12095 -1.93657,0.48433 -3.92904,0.79287 -5.87615,1.21067 -13.76649,2.95392 -13.17309,2.91039 -24.07593,5.02422 -32.93106,6.38462 -0.87856,0.13497 -1.62102,0.24541 -1.64991,0.24541 -0.0289,0 -0.0445,-0.0242 -0.0346,-0.0538 z"
         id="path11292"
         transform="scale(0.26458333)" /><path
         style="fill:#ffffff;fill-opacity:1;stroke-width:0.00484252;stroke-linecap:round;stroke-dasharray:none"
         d="m 270.10156,340.09978 c -1.46398,-0.0543 -1.92833,-0.20644 -3.02493,-0.99096 -1.17756,-0.84244 -1.98195,-1.84101 -2.47911,-3.07757 -0.35829,-0.89116 -0.52714,-1.91205 -0.47293,-2.85938 0.0577,-1.00845 0.30188,-1.93254 0.74373,-2.81476 0.10314,-0.20593 0.12064,-0.23211 0.15522,-0.23211 0.0214,0 0.039,0.003 0.039,0.006 0,0.004 -0.0528,0.11426 -0.11743,0.2461 -0.3544,0.72344 -0.57944,1.51133 -0.67427,2.3607 -0.0366,0.32738 -0.0364,1.05217 2.1e-4,1.38302 0.23082,2.08362 1.29976,3.8566 3.00243,4.97987 0.31518,0.20794 0.43331,0.2761 0.76563,0.44179 0.60679,0.30253 0.89676,0.39068 1.47642,0.44881 1.37559,0.13795 4.0709,-0.0197 7.75795,-0.45378 1.10148,-0.12968 2.82284,-0.35256 3.67522,-0.47587 0.17637,-0.0255 0.33038,-0.0464 0.34226,-0.0464 0.0152,0 0.0216,0.0209 0.0216,0.0703 0,0.0387 -0.006,0.0703 -0.0142,0.0703 -0.008,0 -0.13488,0.0176 -0.28241,0.039 -0.73917,0.10753 -2.57585,0.34425 -3.50811,0.45214 -1.84283,0.21328 -3.32646,0.34438 -4.79687,0.42387 -0.4198,0.0227 -2.23236,0.0425 -2.60938,0.0285 z"
         id="path11293"
         transform="scale(0.26458333)" /><path
         style="fill:#ffffff;fill-opacity:1;stroke-width:0.00484252;stroke-linecap:round;stroke-dasharray:none"
         d="m 265,330.11213 c 0,-0.007 0.0484,-0.0944 0.10763,-0.19403 0.70263,-1.18268 1.70351,-2.10388 2.96007,-2.7244 0.48696,-0.24047 0.85665,-0.37757 1.46871,-0.54466 1.67822,-0.45816 5.02117,-1.09928 12.95578,-2.4847 2.64635,-0.46207 5.68911,-1.00306 5.8164,-1.03414 0.0339,-0.008 0.0352,-0.005 0.0352,0.10124 0,0.10722 -0.001,0.11004 -0.043,0.11879 -0.0755,0.0158 -1.6407,0.29931 -2.45703,0.44512 -2.88515,0.51536 -5.43184,0.94622 -8.1875,1.3852 -1.79272,0.28559 -2.58646,0.41852 -3.58613,0.60058 -4.60576,0.83883 -6.7472,1.60524 -7.9297,2.83801 -0.33424,0.34844 -0.74382,0.91282 -0.9998,1.37767 -0.0555,0.10082 -0.0777,0.12774 -0.10546,0.12794 -0.0193,1.4e-4 -0.0352,-0.006 -0.0352,-0.0126 z"
         id="path11294"
         transform="scale(0.26458333)" /><path
         style="fill:#ffffff;fill-opacity:1;stroke-width:0.00484252;stroke-linecap:round;stroke-dasharray:none"
         d="m 288.34375,323.23497 c 0,-0.10066 0.003,-0.11001 0.0352,-0.11731 0.0193,-0.004 0.36211,-0.0681 0.76171,-0.14172 5.63661,-1.03798 12.89402,-2.52458 19.16797,-3.92637 l 0.41016,-0.0916 v 0.11309 c 0,0.10428 -0.003,0.11377 -0.0352,0.12182 -0.0193,0.005 -0.35156,0.079 -0.73828,0.16489 -6.14676,1.36523 -12.75119,2.71353 -18.64062,3.8055 -0.48985,0.0908 -0.90645,0.16873 -0.92578,0.17312 -0.0339,0.008 -0.0352,0.004 -0.0352,-0.10138 z"
         id="path11295"
         transform="scale(0.26458333)" /><path
         style="fill:#ffffff;fill-opacity:1;stroke-width:0.00484252;stroke-linecap:round;stroke-dasharray:none"
         d="m 308.71875,319.07409 v -0.11552 l 0.33203,-0.0747 c 6.69896,-1.50658 12.78505,-2.98571 18.49609,-4.49519 0.98855,-0.26129 1.53486,-0.40726 1.66016,-0.44362 l 0.0742,-0.0215 v 0.11246 0.11246 l -0.72266,0.19374 c -5.91837,1.58664 -12.7193,3.25111 -19.2539,4.71223 -0.29219,0.0653 -0.54356,0.12247 -0.5586,0.12697 -0.0243,0.007 -0.0273,-0.005 -0.0273,-0.10733 z"
         id="path11296"
         transform="scale(0.26458333)" /><path
         style="fill:#ffffff;fill-opacity:1;stroke-width:0.00484252;stroke-linecap:round;stroke-dasharray:none"
         d="m 329.28125,314.03362 v -0.10701 l 0.33203,-0.0898 c 5.60162,-1.5156 10.19905,-2.9045 14.03516,-4.24008 3.02545,-1.05334 5.00923,-1.87799 6.52734,-2.71339 l 0.10547,-0.058 v 0.13869 c 0,0.13481 -10e-4,0.13939 -0.043,0.16372 -0.28522,0.16618 -0.99347,0.51262 -1.49788,0.73269 -3.35117,1.46208 -8.5034,3.19168 -15.21464,5.10754 -1.41723,0.40458 -4.1874,1.17272 -4.22919,1.17272 -0.009,0 -0.0153,-0.0475 -0.0153,-0.107 z"
         id="path11297"
         transform="scale(0.26458333)" /><path
         style="fill:#ffffff;fill-opacity:1;stroke-width:0.00484252;stroke-linecap:round;stroke-dasharray:none"
         d="m 350.28144,306.95703 1.8e-4,-0.13672 0.0975,-0.0535 c 0.62387,-0.3422 1.39611,-0.87915 1.96466,-1.36606 0.24773,-0.21216 0.84382,-0.81696 1.05722,-1.07267 0.49271,-0.59038 0.98821,-1.33082 1.39017,-2.07737 0.42442,-0.78825 0.58168,-1.33103 0.66572,-2.29763 0.032,-0.36799 0.0264,-2.49451 -0.008,-2.90625 -0.0686,-0.82964 -0.18087,-1.39012 -0.41647,-2.0789 -0.0513,-0.14996 -0.0981,-0.28532 -0.10406,-0.3008 -0.01,-0.0255 -0.002,-0.0277 0.0875,-0.0234 l 0.0983,0.005 0.0452,0.13281 c 0.0847,0.24886 0.24319,0.7884 0.31442,1.07031 0.35618,1.40973 0.44466,2.80212 0.25915,4.07813 -0.25086,1.72547 -1.00155,3.29768 -2.22697,4.66406 -0.18883,0.21055 -0.63497,0.65432 -0.85002,0.84549 -0.49819,0.44287 -1.1252,0.90728 -1.74219,1.29039 -0.27255,0.16923 -0.60563,0.36412 -0.62232,0.36412 -0.006,0 -0.0104,-0.0615 -0.0103,-0.13672 z"
         id="path11298"
         transform="scale(0.26458333)" /><path
         style="fill:#ffffff;fill-opacity:1;stroke-width:0.00484252;stroke-linecap:round;stroke-dasharray:none"
         d="m 354.85323,294.48017 c -0.22418,-0.58909 -0.72575,-1.67416 -1.04836,-2.26796 -0.34943,-0.64317 -0.82396,-1.36603 -1.21395,-1.84924 l -0.0917,-0.11359 0.004,-0.25841 0.004,-0.25841 0.1393,0.16733 c 0.89088,1.07019 1.64652,2.49125 2.3422,4.4048 0.0562,0.15468 0.10701,0.29355 0.11283,0.30859 0.009,0.0243 -4.8e-4,0.0273 -0.0888,0.0271 l -0.0993,-3e-4 z"
         id="path11299"
         transform="scale(0.26458333)" /><path
         style="fill:#ffffff;fill-opacity:1;stroke-width:0.00484252;stroke-linecap:round;stroke-dasharray:none"
         d="m 281.21094,372.92069 c -5.79366,-0.0616 -8.51565,-0.25856 -9.62491,-0.69647 -1.20432,-0.47543 -2.84087,-2.04003 -3.77319,-3.60733 -0.63428,-1.06625 -0.8639,-2.11029 -0.69068,-3.14033 0.0257,-0.1529 0.0272,-0.15636 0.0707,-0.16134 0.0414,-0.005 0.0438,-0.002 0.0349,0.0391 -0.0303,0.1406 -0.0579,0.33407 -0.0737,0.51751 -0.0745,0.86387 0.38029,2.1456 1.20129,3.38601 0.50408,0.76159 0.96261,1.28171 1.70706,1.93636 0.48984,0.43076 0.90045,0.67696 1.46875,0.88066 1.04558,0.37478 2.65733,0.57884 5.45312,0.69042 1.73552,0.0693 3.53895,0.0947 6.7461,0.095 l 2.51953,2.7e-4 v 0.0385 0.0385 l -1.97266,-0.003 c -1.08496,-10e-4 -2.46484,-0.008 -3.0664,-0.0142 z"
         id="path11300"
         transform="scale(0.26458333)" /><path
         style="fill:#ffffff;fill-opacity:1;stroke-width:0.00968504;stroke-linecap:round;stroke-dasharray:none"
         d="m 267.16812,365.25781 c 0.009,-0.0301 0.0391,-0.14609 0.0673,-0.25781 0.21578,-0.85646 0.83188,-1.97424 1.71381,-3.10938 1.14533,-1.47415 1.96546,-2.17202 3.06659,-2.60943 0.35736,-0.14196 0.34785,-0.11356 -0.0347,0.1036 -1.97454,1.1209 -3.97773,3.49029 -4.61054,5.45339 -0.0702,0.21791 -0.13269,0.41377 -0.13878,0.43526 -0.006,0.0215 -0.0265,0.0391 -0.0454,0.0391 -0.0189,0 -0.0271,-0.0246 -0.0183,-0.0547 z"
         id="path11302"
         transform="scale(0.26458333)" /><path
         style="fill:#ffffff;fill-opacity:1;stroke-width:0.00968504;stroke-linecap:round;stroke-dasharray:none"
         d="m 274.10937,358.76775 c 0.0466,-0.0208 0.74272,-0.10287 1.32813,-0.15667 0.98365,-0.0904 2.2922,-0.15921 4.79687,-0.25231 3.77964,-0.14048 10.19477,-0.46459 17.9375,-0.90623 2.30898,-0.13171 2.14063,-0.12893 2.14063,-0.0354 0,0.0713 -0.01,0.074 -0.33594,0.0937 -5.23331,0.31526 -16.27168,0.90298 -20.61719,1.09773 -2.66486,0.11944 -5.34307,0.20064 -5.25,0.15918 z"
         id="path11303"
         transform="scale(0.26458333)" /><path
         style="fill:#ffffff;fill-opacity:1;stroke-width:0.00484252;stroke-linecap:round;stroke-dasharray:none"
         d="m 286.28125,372.89844 v -0.0391 l 0.58203,-1.4e-4 c 1.47345,-3.8e-4 7.3712,-0.0613 12.09766,-0.12501 3.81538,-0.0514 10.54049,-0.14772 13.10937,-0.18773 0.53281,-0.008 1.05488,-0.0151 1.16016,-0.0152 l 0.1914,-8e-5 v 0.0686 0.0686 l -0.36328,0.009 c -0.1998,0.005 -0.9539,0.0167 -1.67578,0.0256 -0.72187,0.009 -1.82929,0.0231 -2.46094,0.0314 -8.48142,0.11216 -18.01345,0.20211 -21.46484,0.20255 l -1.17578,1.5e-4 z"
         id="path11304"
         transform="scale(0.26458333)" /><path
         style="fill:#ffffff;fill-opacity:1;stroke-width:0.00684836;stroke-linecap:round;stroke-dasharray:none"
         d="m 313.42508,372.60453 v -0.0628 l 0.33497,-0.0145 c 0.18423,-0.008 0.50243,-0.0145 0.70711,-0.0145 h 0.37213 v 0.063 0.063 l -0.20226,0.0143 c -0.11125,0.008 -0.42945,0.0144 -0.70711,0.0144 h -0.50484 z"
         id="path11305"
         transform="scale(0.26458333)" /><path
         style="fill:#ffffff;fill-opacity:1;stroke-width:0.00684836;stroke-linecap:round;stroke-dasharray:none"
         d="m 300.31649,357.42243 c 0.007,-0.0491 -2.4e-4,-0.0665 -0.0314,-0.0736 -0.0711,-0.0162 0.23913,-0.0371 2.3898,-0.16137 5.33562,-0.30822 12.85278,-0.76736 19.53382,-1.19309 2.57153,-0.16386 7.20614,-0.46389 7.66769,-0.49637 0.17015,-0.012 0.35222,-0.0219 0.40461,-0.022 l 0.0952,-2.2e-4 -0.007,0.0829 -0.007,0.0829 -0.58558,0.0381 c -8.66787,0.56421 -18.34592,1.16395 -26.49381,1.6418 -1.54924,0.0908 -2.85262,0.16519 -2.89642,0.16519 -0.0753,0 -0.0791,-0.003 -0.0702,-0.0642 z"
         id="path11306"
         transform="scale(0.26458333)" /><path
         style="fill:#ffffff;fill-opacity:1;stroke-width:0.0136967;stroke-linecap:round;stroke-dasharray:none"
         d="m 330.39564,355.55165 c 0,-0.0723 0.12868,-0.0873 1.53575,-0.179 8.83715,-0.57618 20.06787,-1.39152 24.78188,-1.79913 10.63308,-0.91944 14.80178,-1.75255 17.76294,-3.54991 1.47083,-0.89275 3.16927,-2.44012 4.4449,-4.04952 1.10429,-1.39323 2.08403,-3.34488 2.49742,-4.97489 0.28424,-1.12075 0.40002,-2.59636 0.28929,-3.68717 -0.31573,-3.11048 -1.91986,-5.816 -4.68732,-7.90562 -0.92115,-0.69553 -1.9215,-1.2832 -2.8013,-1.64565 l -0.35859,-0.14773 0.29899,-8.1e-4 c 0.27761,-7.5e-4 0.33645,0.018 0.82266,0.2617 1.79312,0.89886 3.45547,2.19748 4.52922,3.53819 1.33309,1.66453 2.18485,3.68663 2.41732,5.73874 0.0678,0.59829 0.0304,2.26645 -0.0641,2.85703 -0.36914,2.30838 -1.45257,4.60723 -3.09295,6.56264 -0.70612,0.84173 -2.01975,2.11334 -2.92242,2.82893 -0.93241,0.73918 -2.39499,1.5433 -3.57973,1.96811 -3.87777,1.39048 -9.85271,2.06836 -31.33367,3.55495 -2.03236,0.14065 -10.46771,0.70801 -10.5265,0.70801 -0.008,0 -0.0138,-0.0355 -0.0138,-0.0789 z"
         id="path11307"
         transform="scale(0.26458333)" /><path
         style="fill:#ffffff;fill-opacity:1;stroke-width:0.00484252;stroke-linecap:round;stroke-dasharray:none"
         d="m 374.56952,327.67273 c -0.11485,-0.0511 -0.22622,-0.0651 -0.49921,-0.0626 l -0.26562,0.002 -0.28125,-0.0945 c -1.29874,-0.43621 -2.97389,-0.73122 -5.35547,-0.94316 l -0.40234,-0.0358 v -0.1289 l -10e-6,-0.12891 0.0742,1.2e-4 c 0.0976,1.5e-4 0.89352,0.0677 1.38672,0.11761 2.07514,0.21016 3.51414,0.5158 4.78125,1.01552 0.29496,0.11633 0.64573,0.26573 0.66276,0.28229 0.0162,0.0157 -0.0437,0.001 -0.10105,-0.0241 z"
         id="path11308"
         transform="scale(0.26458333)" /></g></g></svg>
