<?xml version="1.0" encoding="UTF-8" standalone="no"?>
<!-- Created with Inkscape (http://www.inkscape.org/) -->

<svg
   width="87.976952mm"
   height="80.489578mm"
   viewBox="0 0 87.976952 80.489578"
   version="1.1"
   id="svg1"
   xml:space="preserve"
   xmlns="http://www.w3.org/2000/svg"
   xmlns:svg="http://www.w3.org/2000/svg"><defs
     id="defs1" /><g
     id="layer1"
     transform="translate(-37.542981,-55.782857)"><g
       id="g10883"
       transform="translate(-30.691667,2.1166666)"><path
         style="fill:#c5c5c4"
         d="m 106.13944,134.10892 c -1.4021,-0.28715 -2.12934,-0.64459 -3.0349,-1.4917 -0.76946,-0.71979 -0.77902,-0.75994 -0.83018,-3.48545 -0.0538,-2.86727 -0.28823,-5.67636 -0.49638,-5.94844 -0.0771,-0.10081 -0.27387,-0.10504 -1.29762,-0.0279 -0.663698,0.05 -3.004313,0.095 -5.20137,0.10007 -4.161029,0.01 -4.959692,-0.0348 -6.782582,-0.37657 -1.428157,-0.26776 -3.417782,-0.86597 -3.828206,-1.151 -0.11443,-0.0795 -0.863426,-0.4917 -1.664437,-0.91606 -1.994622,-1.05671 -2.810886,-1.54055 -4.408188,-2.61298 -2.435947,-1.63549 -3.65997,-2.79695 -4.747387,-4.50475 -0.378882,-0.59503 -0.753817,-1.15678 -0.833189,-1.24832 -0.155259,-0.17907 -0.896103,-1.73854 -1.561653,-3.28727 -0.355644,-0.82758 -0.720914,-1.95128 -1.217343,-3.74498 -0.445353,-1.60916 -1.290332,-6.054469 -1.581909,-8.32219 -0.480562,-3.737553 -0.561515,-9.480543 -0.173616,-12.316837 0.457291,-3.343683 1.007286,-5.832233 1.621833,-7.338272 1.025414,-2.512929 1.92635,-4.13644 3.517357,-6.338374 2.224385,-3.078524 2.989862,-4.00752 4.239234,-5.144809 1.11139,-1.011687 2.703223,-2.261695 3.824135,-3.002954 0.532331,-0.35203 1.168978,-0.813425 1.414771,-1.025322 1.365549,-1.17723 3.906529,-2.568673 5.897929,-3.229712 1.593526,-0.528965 5.057992,-1.338976 10.194679,-2.383569 1.144302,-0.232704 3.181092,-0.702968 4.526192,-1.04503 1.34511,-0.342063 2.89928,-0.713419 3.45371,-0.825237 1.21666,-0.245375 3.6597,-0.577749 5.25237,-0.71458 3.24516,-0.278802 8.73185,0.434499 11.95924,1.554769 1.69021,0.586693 5.10324,2.13263 7.14018,3.234155 0.6637,0.358908 2.57364,1.343769 4.24432,2.188579 3.51642,1.778149 4.33976,2.238717 5.99501,3.353584 1.98574,1.337461 3.27421,2.532454 5.05824,4.691256 1.39888,1.692759 2.84072,4.073218 5.36966,8.865276 1.72907,3.276409 2.12382,4.207543 2.88852,6.813438 0.62322,2.123756 0.89946,3.962018 1.08385,7.212607 0.14627,2.578535 -0.026,4.798654 -0.55805,7.19108 -0.69554,3.127682 -2.13445,6.567812 -4.21513,10.077462 -2.98054,5.02752 -7.69616,8.57275 -13.87444,10.43089 -2.12551,0.63925 -4.79978,1.17714 -6.86581,1.38096 -0.78851,0.0778 -3.79161,0.21408 -6.1168,0.2776 l -0.70739,0.0193 0.005,3.24565 c 0.005,3.46878 0.0665,4.31507 0.40604,5.61748 0.28155,1.08004 0.33019,1.11528 1.46145,1.05873 0.76082,-0.038 1.01494,-0.0932 1.96486,-0.42638 0.60007,-0.21048 1.21799,-0.38263 1.37316,-0.38256 0.39333,1.8e-4 0.82577,0.23832 1.05764,0.58243 0.16498,0.24483 0.1908,0.36945 0.16195,0.78151 -0.0311,0.44454 -0.0651,0.51893 -0.3642,0.79795 -0.36481,0.34029 -0.9447,0.54864 -2.33415,0.83866 -1.85843,0.38791 -2.67029,0.40447 -3.73175,0.0761 -0.49303,-0.15253 -0.65517,-0.2543 -1.05513,-0.66227 -0.33115,-0.33779 -0.51037,-0.60309 -0.59886,-0.88653 -0.0695,-0.22246 -0.19952,-0.61046 -0.28905,-0.8622 -0.37346,-1.05017 -0.51201,-2.92431 -0.51201,-6.92588 v -2.83477 l -0.93624,0.0566 c -1.22174,0.0739 -5.69601,0.57498 -7.9685,0.89246 -3.42612,0.47866 -4.79569,0.64551 -6.44969,0.78572 -0.91544,0.0776 -1.69177,0.16551 -1.72517,0.19534 -0.0334,0.0298 -0.008,0.46507 0.0575,0.96719 0.1661,1.28272 0.28653,2.93619 0.37256,5.1153 l 0.0739,1.87212 0.24998,0.20843 c 0.13749,0.11463 0.5128,0.2977 0.83402,0.40682 0.51455,0.1748 0.68617,0.19319 1.44251,0.15459 0.56544,-0.0289 1.02627,-0.10368 1.35003,-0.2192 0.6235,-0.22248 0.92375,-0.2195 1.33469,0.0133 0.41667,0.23601 0.64267,0.61959 0.64267,1.09076 0,0.82879 -0.47803,1.23171 -1.6783,1.41458 -1.04431,0.15911 -2.36371,0.21478 -2.82955,0.11938 z"
         id="path10886" /><path
         style="fill:#aaaaaa"
         d="m 105.64011,133.92851 c -1.23205,-0.28954 -2.54338,-1.15798 -3.04754,-2.01827 -0.21236,-0.36237 -0.21394,-0.37887 -0.24732,-2.59105 -0.0476,-3.15553 -0.30923,-6.11884 -0.55437,-6.27947 -0.0571,-0.0374 -0.17871,-0.0512 -0.27025,-0.0306 -0.0915,0.0206 -1.22973,0.0818 -2.529301,0.13607 -2.65249,0.11076 -7.683812,0.0624 -8.913705,-0.0857 -1.896096,-0.22832 -4.668088,-0.9542 -5.409422,-1.41652 -0.205974,-0.12846 -1.017766,-0.57354 -1.803982,-0.98907 -1.803269,-0.95308 -2.613162,-1.43012 -4.021548,-2.36878 -1.575792,-1.05022 -2.311299,-1.62367 -3.283252,-2.55983 -0.674158,-0.64933 -0.992296,-1.04336 -1.581918,-1.95929 -0.405928,-0.63058 -0.862971,-1.31016 -1.01565,-1.51018 -0.152679,-0.20002 -0.277598,-0.40778 -0.277598,-0.46168 0,-0.0539 -0.145047,-0.39745 -0.322328,-0.76343 -0.17728,-0.36598 -0.425997,-0.92757 -0.552704,-1.24797 -0.126708,-0.32041 -0.332134,-0.78853 -0.456503,-1.04028 -0.199121,-0.40306 -0.826022,-2.47075 -1.206022,-3.9778 -0.438811,-1.74028 -1.150459,-5.584088 -1.412935,-7.631649 -0.351942,-2.745473 -0.532883,-7.353001 -0.388913,-9.903402 0.147177,-2.607215 0.701774,-6.092731 1.330804,-8.363798 0.364673,-1.316627 1.741088,-4.325256 2.574369,-5.627172 1.1003,-1.719106 3.227967,-4.627019 4.200446,-5.740811 1.219666,-1.396898 3.461195,-3.30736 5.219513,-4.448607 0.52515,-0.340851 1.161797,-0.800732 1.414772,-1.021956 0.691204,-0.604452 2.293214,-1.644543 3.393604,-2.203265 1.704806,-0.865615 3.678574,-1.50913 6.419546,-2.092986 0.851878,-0.181459 2.054441,-0.445053 2.672364,-0.585764 0.617922,-0.140711 2.219937,-0.480577 3.560033,-0.755258 1.3401,-0.274682 3.60581,-0.794825 5.03492,-1.155874 2.88926,-0.729939 3.76931,-0.90381 6.13532,-1.212159 2.90767,-0.378941 5.12937,-0.365114 8.26963,0.05147 3.39384,0.450219 5.47834,1.033593 8.54118,2.390358 1.72154,0.762596 2.34025,1.069561 8.11413,4.025693 4.06444,2.080923 4.83017,2.506764 6.41558,3.567855 1.58419,1.060276 2.43067,1.779565 3.82529,3.25053 2.09748,2.212285 3.54752,4.452281 6.51222,10.059955 1.58761,3.002944 1.90455,3.687091 2.46742,5.3262 1.06834,3.111076 1.40236,4.895116 1.63567,8.736295 0.32827,5.404439 -0.77404,10.058805 -3.66647,15.481265 -1.56264,2.92948 -2.65762,4.48254 -4.37195,6.20094 -1.88755,1.89202 -3.55639,3.10387 -5.93961,4.31313 -2.13674,1.0842 -3.59656,1.61877 -6.26776,2.29517 -1.50341,0.3807 -3.27267,0.7078 -4.75198,0.87853 -1.06281,0.12267 -4.22454,0.28271 -6.26114,0.31694 l -1.08188,0.0182 0.006,3.24565 c 0.006,3.48601 0.0669,4.3147 0.41436,5.65909 0.2955,1.14342 0.32361,1.16617 1.43383,1.16072 0.83492,-0.004 0.95655,-0.0273 1.89098,-0.36146 1.16895,-0.41798 1.73547,-0.4999 2.1117,-0.30534 0.47145,0.24379 0.73311,0.85828 0.59069,1.38718 -0.16895,0.62746 -0.82851,0.97237 -2.53594,1.32615 -1.79336,0.37158 -2.69529,0.41582 -3.54184,0.17373 -0.7504,-0.2146 -1.00463,-0.36049 -1.38887,-0.79701 -0.35235,-0.40028 -0.8451,-1.63842 -1.01182,-2.54236 -0.15946,-0.86462 -0.27651,-3.34676 -0.28781,-6.10311 l -0.0113,-2.76002 -0.91545,0.0239 c -1.16361,0.0303 -5.30364,0.49245 -9.11279,1.01717 -2.90616,0.40033 -4.72358,0.60839 -6.36647,0.72883 -0.97454,0.0714 -0.88804,-0.14794 -0.68033,1.72545 0.14387,1.29765 0.26055,3.02358 0.34882,5.15975 0.0612,1.48093 0.0679,1.49304 1.03776,1.86704 0.58403,0.22523 0.70912,0.24349 1.50497,0.21967 0.622,-0.0186 1.00868,-0.0762 1.36443,-0.20332 0.27305,-0.0975 0.62316,-0.17734 0.77803,-0.17734 0.89474,0 1.47385,0.87429 1.11559,1.68421 -0.22346,0.50516 -0.59199,0.71552 -1.49485,0.8533 -1.40847,0.21493 -2.47126,0.21881 -3.35026,0.0122 z m 8.94635,-24.02136 c 3.05093,-0.21505 6.88529,-0.79597 12.44167,-1.88496 9.4143,-1.84509 11.08905,-2.30423 14.52222,-3.9813 2.7332,-1.33514 4.55362,-2.61074 6.20244,-4.346157 1.64285,-1.729124 2.81802,-3.426239 3.90473,-5.638979 0.74665,-1.520323 1.81052,-4.135982 1.92274,-4.727295 0.0723,-0.380939 -0.0167,-1.008343 -0.33315,-2.348566 -0.0432,-0.183088 -0.14046,-0.632486 -0.21606,-0.998662 -0.20675,-1.001376 -1.07349,-3.546904 -1.54434,-4.535592 -1.10206,-2.314091 -4.11604,-7.808226 -5.09043,-9.279239 -1.20323,-1.816503 -3.03891,-3.882875 -4.50116,-5.066814 -0.83894,-0.679268 -2.51172,-1.790219 -3.67676,-2.441874 -0.41367,-0.231376 -1.74313,-0.916295 -2.95438,-1.522042 -1.21124,-0.605747 -2.83891,-1.440027 -3.61704,-1.853956 -2.94761,-1.568004 -5.95639,-2.98062 -7.69802,-3.6142 -2.71166,-0.986467 -7.20799,-1.671956 -10.36112,-1.579606 -1.62229,0.04751 -4.1596,0.345742 -5.86714,0.689605 -0.57215,0.11522 -2.12632,0.485744 -3.45371,0.823387 -2.48747,0.632729 -6.48018,1.496961 -7.659817,1.657986 -0.429757,0.05866 -0.746248,0.150898 -0.884577,0.25779 -0.37456,0.289437 -2.098195,2.989095 -3.506855,5.492643 -2.077995,3.693126 -3.606661,7.25584 -4.545328,10.593358 -1.261866,4.486683 -1.857819,9.219039 -1.595194,12.667155 0.34968,4.591097 1.484781,7.994966 3.855197,11.560717 1.881626,2.830481 3.552079,4.500391 5.994556,5.992631 3.390795,2.07161 8.516298,3.69371 12.877608,4.07547 1.13816,0.0996 4.42271,0.10445 5.78392,0.008 z m -5.79208,-22.636627 c -0.88884,-0.08517 -1.71994,-0.376275 -2.04222,-0.71532 -0.41477,-0.43636 -0.61272,-0.926874 -0.61272,-1.518361 0,-1.301722 0.78382,-2.016671 2.52751,-2.30544 2.08597,-0.345453 3.53607,0.09775 4.13094,1.262581 0.2551,0.499509 0.25777,1.041693 0.008,1.699953 -0.54632,1.442089 -1.50084,1.817193 -4.01191,1.576587 z m 13.06875,-0.288827 c -1.61808,-0.308219 -2.91653,-0.977897 -4.03798,-2.082609 -0.67255,-0.662504 -0.8097,-0.850401 -1.18456,-1.622826 -0.48389,-0.9971 -0.72488,-1.800165 -0.84737,-2.823771 -0.0469,-0.392095 -0.14646,-1.000105 -0.22119,-1.351135 -0.13544,-0.636107 -0.13522,-0.63957 0.0634,-1.038877 0.12506,-0.251387 0.30783,-0.46317 0.4906,-0.568482 0.283,-0.163072 0.49496,-0.169968 7.46088,-0.242755 6.96638,-0.07279 7.17725,-0.07043 7.43965,0.08322 0.54677,0.320169 0.61027,0.494891 0.63919,1.758611 0.0381,1.662881 -0.21629,2.926346 -0.83377,4.141835 -0.48932,0.963221 -1.64352,2.097862 -2.68039,2.634988 -1.81455,0.939975 -4.6027,1.432917 -6.2885,1.111799 z m 17.27378,0.04491 c -0.81455,-0.07771 -1.56595,-0.28576 -1.96123,-0.543042 -0.22808,-0.148457 -0.35813,-0.339307 -0.56174,-0.824382 -0.14573,-0.347162 -0.26475,-0.772494 -0.2645,-0.945184 0.001,-0.830251 0.44357,-1.470245 1.23353,-1.784725 0.43224,-0.172071 0.60895,-0.188167 2.09488,-0.190808 l 1.62283,-0.0029 0.62416,0.298871 c 0.81315,0.389365 1.10671,0.647048 1.38492,1.215693 0.28542,0.583381 0.2948,1.081727 0.0307,1.634151 -0.34999,0.732236 -1.17356,1.097795 -2.62238,1.163996 -0.50349,0.02301 -1.21504,0.01325 -1.58122,-0.02168 z m -1.87575,-6.803447 c -1.5473,-0.395985 -2.41085,-1.383082 -2.40971,-2.754485 6.4e-4,-0.774656 0.10415,-1.078423 0.60515,-1.775985 0.5981,-0.832755 0.97923,-1.027635 2.01202,-1.028789 0.98004,-0.0011 1.45236,0.14149 1.9496,0.58855 0.94845,0.852743 1.36082,2.480445 0.88221,3.482277 -0.18498,0.387197 -0.92537,1.150049 -1.30848,1.348163 -0.39077,0.20208 -1.22506,0.269694 -1.73079,0.140269 z M 107.09649,79.49728 c -0.46249,-0.205556 -0.7906,-0.704434 -0.7906,-1.202064 0,-0.124753 0.20742,-0.637251 0.46093,-1.138883 0.67687,-1.33934 1.43815,-2.057991 2.47147,-2.333069 0.86708,-0.230821 1.5448,-0.117505 2.26636,0.378943 0.59653,0.410423 1.84245,2.149583 1.93104,2.695503 0.14392,0.88684 -0.75953,1.656938 -1.63584,1.39439 -0.40823,-0.12231 -0.74329,-0.471284 -1.07103,-1.115529 -0.37183,-0.730914 -0.53038,-0.912829 -0.79557,-0.912829 -0.34096,0 -0.67268,0.379339 -0.96426,1.102689 -0.14284,0.354334 -0.36043,0.740331 -0.48354,0.85777 -0.40462,0.385962 -0.91098,0.485517 -1.38896,0.273079 z"
         id="path10885" /><path
         style="fill:#e56ea5"
         d="m 105.96766,133.87369 c -0.39201,-0.0757 -0.83159,-0.17909 -0.97686,-0.22973 -0.37455,-0.13057 -1.36189,-0.78338 -1.81875,-1.20252 -0.65384,-0.59987 -0.69195,-0.75842 -0.69798,-2.90373 -0.008,-2.68202 -0.3168,-6.33551 -0.5566,-6.57531 -0.0603,-0.0603 -0.61699,-0.0562 -1.82307,0.0136 -2.309629,0.1337 -8.173608,0.13624 -9.516009,0.004 -0.571361,-0.0562 -1.434615,-0.1735 -1.918342,-0.26061 -1.099544,-0.19799 -3.450634,-0.86763 -3.783789,-1.0777 -0.137318,-0.0866 -0.642892,-0.37051 -1.123498,-0.63094 -0.480606,-0.26043 -1.397787,-0.75868 -2.038179,-1.10722 -1.339418,-0.72898 -4.018355,-2.48874 -4.994068,-3.28053 -1.09317,-0.88711 -2.099097,-2.00524 -2.746322,-3.05265 -0.320404,-0.51851 -0.702009,-1.08752 -0.84801,-1.26446 -0.146002,-0.17695 -0.290283,-0.40514 -0.320624,-0.5071 -0.03034,-0.10195 -0.201306,-0.49397 -0.379919,-0.87113 -0.178614,-0.37717 -0.413176,-0.92069 -0.52125,-1.20781 -0.108073,-0.28713 -0.312028,-0.75091 -0.453233,-1.03064 -0.141204,-0.27972 -0.310204,-0.72863 -0.375556,-0.99757 -0.06535,-0.26894 -0.252607,-0.94438 -0.416123,-1.50097 -0.627058,-2.13447 -1.521677,-6.68107 -1.839595,-9.349135 -0.313388,-2.630044 -0.399683,-4.513279 -0.356074,-7.770693 0.03047,-2.276137 0.08066,-3.443495 0.177568,-4.130035 0.227205,-1.609653 0.631186,-3.906061 0.849136,-4.826868 0.113756,-0.480607 0.246948,-1.042354 0.295982,-1.248328 0.161819,-0.67975 1.591287,-3.965986 2.135822,-4.910091 0.734924,-1.274196 3.299533,-4.835794 4.483396,-6.226308 1.219354,-1.432202 3.582566,-3.460531 5.432946,-4.663061 0.480606,-0.312337 1.079804,-0.745246 1.33155,-0.962018 1.38157,-1.189638 3.93902,-2.593981 5.908752,-3.244606 1.612635,-0.532672 5.002327,-1.323866 10.23629,-2.389271 1.121419,-0.228271 3.218609,-0.711535 4.660419,-1.073921 3.17234,-0.797333 3.89989,-0.944438 5.99198,-1.211535 2.67084,-0.340985 3.96923,-0.409184 5.60384,-0.294344 3.60028,0.252939 6.67545,0.821565 9.04321,1.672171 1.7436,0.626383 4.61967,1.942503 6.99063,3.198995 0.89256,0.473009 2.8774,1.496264 4.41076,2.273899 3.11595,1.580234 4.00169,2.0746 5.45103,3.04243 1.74039,1.16218 2.6765,1.9537 3.95562,3.344652 2.39984,2.609646 3.67509,4.652748 7.53199,12.067172 1.20468,2.315841 2.19551,5.332972 2.61269,7.955772 0.34778,2.186518 0.54365,5.618795 0.41953,7.351604 -0.27834,3.885793 -1.22302,7.189829 -3.15432,11.032349 -1.99794,3.9751 -3.47998,6.04551 -5.81921,8.12942 -3.46668,3.0883 -7.94562,5.13709 -13.41076,6.13445 -2.37132,0.43276 -3.48985,0.53338 -7.02543,0.632 -1.71324,0.0478 -2.85633,0.11236 -2.90824,0.16427 -0.12697,0.12697 -0.11538,5.11049 0.0154,6.61915 0.10957,1.26411 0.40686,2.75508 0.63875,3.2035 0.20278,0.39214 0.38563,0.44339 1.40923,0.39499 0.8179,-0.0387 1.02865,-0.0831 1.87831,-0.39626 1.13935,-0.41989 1.54222,-0.48177 1.90732,-0.29297 0.77862,0.40264 0.76924,1.61614 -0.0153,1.98473 -0.66318,0.31156 -2.87999,0.78566 -4.01414,0.8585 -0.66446,0.0427 -0.82884,0.0226 -1.45639,-0.17775 -0.60517,-0.19322 -0.76839,-0.28762 -1.12959,-0.65331 -0.36749,-0.37205 -0.46065,-0.54068 -0.71888,-1.30127 -0.16318,-0.48061 -0.33914,-1.11726 -0.39103,-1.41478 -0.14115,-0.80925 -0.26249,-3.82968 -0.25575,-6.36647 0.003,-1.23584 0.004,-2.29956 0.002,-2.3638 -0.008,-0.26503 -4.36526,0.1485 -10.40641,0.9877 -2.60403,0.36173 -3.75248,0.49124 -6.35227,0.71632 -0.4544,0.0393 -0.66566,0.0931 -0.69812,0.17771 -0.0256,0.0667 0.0149,0.63315 0.0901,1.25874 0.17387,1.44742 0.28389,2.93096 0.37995,5.12377 0.089,2.03193 0.0598,1.96739 1.07975,2.38248 0.5298,0.2156 0.71071,0.2472 1.41054,0.24633 0.48338,-5.9e-4 0.98491,-0.0536 1.26051,-0.13328 1.01032,-0.29202 1.18719,-0.3122 1.51698,-0.17307 0.81848,0.34528 0.8608,1.60147 0.0678,2.01156 -0.62431,0.32285 -2.88671,0.491 -3.9203,0.29138 z m -3.90609,-13.01344 c 4.5144,-0.31412 5.32972,-0.39572 8.82152,-0.88295 2.35151,-0.32811 5.62153,-0.72762 7.86447,-0.96082 0.6408,-0.0666 2.6631,-0.15828 4.49398,-0.20369 7.83177,-0.19422 9.67197,-0.41222 13.81483,-1.63655 4.69051,-1.38619 8.69777,-4.12098 11.36696,-7.75749 1.0661,-1.45246 2.91267,-4.88598 3.72054,-6.91798 1.57409,-3.959247 2.01906,-6.884757 1.77177,-11.648929 -0.0948,-1.825902 -0.17064,-2.436122 -0.46068,-3.705504 -0.0627,-0.274632 -0.15755,-0.739463 -0.21068,-1.032958 -0.13455,-0.743399 -0.68125,-2.492044 -1.16973,-3.741461 -0.70758,-1.809804 -4.4534,-8.736182 -5.72173,-10.580016 -1.6993,-2.47037 -3.64371,-4.437963 -5.82626,-5.895716 -1.83908,-1.228351 -2.87633,-1.783208 -11.29305,-6.041003 -5.11753,-2.588822 -7.96204,-3.434952 -13.02422,-3.874193 -2.13672,-0.1854 -4.49368,-0.0419 -7.53158,0.458555 -1.37492,0.226499 -1.96426,0.359077 -4.91009,1.10457 -1.09853,0.278002 -2.6527,0.640751 -3.45371,0.806109 -0.801008,0.165358 -1.868328,0.390086 -2.37182,0.499396 -0.503493,0.10931 -1.158865,0.224854 -1.456383,0.256764 -0.297518,0.03191 -0.643832,0.110104 -0.769586,0.173764 -0.125754,0.06366 -0.930926,0.265413 -1.78927,0.44834 -2.232807,0.475846 -3.751715,0.888786 -4.17146,1.13408 -0.200115,0.116945 -1.080186,0.575169 -1.955714,1.018276 -2.27045,1.149081 -3.827757,2.10944 -5.752963,3.547735 -0.274632,0.205174 -0.798242,0.587999 -1.163577,0.850722 -0.753483,0.541851 -2.771506,2.466822 -3.12851,2.984253 -0.130086,0.188543 -0.409594,0.544317 -0.621129,0.790607 -0.211534,0.246291 -0.608534,0.781238 -0.882221,1.188772 -0.273688,0.407534 -0.619787,0.894382 -0.76911,1.081884 -1.0477,1.31558 -2.929952,4.703865 -3.306871,5.952775 -0.09072,0.300607 -0.238635,0.789982 -0.328694,1.0875 -0.44395,1.466631 -0.940479,3.880484 -1.215428,5.908753 -0.126083,0.930104 -0.152024,1.68218 -0.150699,4.369148 0.002,4.131752 0.154192,6.159029 0.710933,9.472342 0.540668,3.217655 1.371558,6.775695 1.820603,7.796195 0.130915,0.29752 0.319008,0.80155 0.417984,1.12006 0.09898,0.31851 0.383623,0.93882 0.632548,1.37846 0.248926,0.43964 0.452592,0.82755 0.452592,0.86201 0,0.0345 0.09678,0.18956 0.21507,0.34464 0.118289,0.15509 0.264494,0.4462 0.324901,0.64692 0.127953,0.42515 0.742273,1.41208 1.1917,1.91452 0.171962,0.19224 0.413557,0.49933 0.53688,0.68242 0.479708,0.71219 2.553586,2.28711 4.73892,3.59879 1.362184,0.81761 3.666434,2.0234 4.393924,2.29929 0.297519,0.11284 0.746917,0.29899 0.998663,0.41367 0.739091,0.3367 2.356696,0.65253 4.285926,0.83682 0.886966,0.0847 9.126311,-0.0282 10.860451,-0.14888 z M 81.515648,104.65738 c -0.428786,-0.0907 -0.76849,-0.47932 -0.820233,-0.93839 -0.05881,-0.52178 0.0852,-0.82202 0.592039,-1.23434 0.710016,-0.57761 1.050536,-0.92573 1.050536,-1.07398 0,-0.0792 -0.191297,-0.26249 -0.436914,-0.41863 -0.409848,-0.26055 -1.341882,-0.96275 -2.392629,-1.802612 -0.550014,-0.439627 -1.553365,-1.540586 -2.010232,-2.205789 -0.531023,-0.773175 -0.967896,-1.774537 -1.242075,-2.846975 -0.236662,-0.925691 -0.252486,-1.077094 -0.217421,-2.080237 0.04766,-1.36349 0.330895,-2.393418 1.052772,-3.828206 0.520234,-1.034004 1.586091,-2.596296 2.413034,-3.536929 1.030259,-1.171902 2.027443,-2.467644 2.206576,-2.867228 0.374586,-0.835573 1.007309,-1.143689 1.686623,-0.821333 0.372045,0.176547 0.631004,0.704861 0.549071,1.120186 -0.09197,0.466223 -0.268346,0.814373 -0.5978,1.180026 -0.337958,0.37509 -1.915832,2.272671 -2.698781,3.245604 -2.269102,2.819704 -3.003044,5.087703 -2.358941,7.289503 0.363665,1.243152 0.735448,1.889902 1.703972,2.964213 0.539725,0.598677 1.797624,1.63002 2.313385,1.896731 0.141488,0.07317 0.458762,0.306415 0.705053,0.518332 0.246291,0.211916 0.734086,0.530242 1.083988,0.707391 0.672283,0.340363 0.941595,0.600293 1.027581,0.991783 0.106944,0.48691 -0.08969,0.86575 -0.916406,1.76553 -0.433935,0.47229 -0.788971,0.88021 -0.788971,0.9065 0,0.0263 -0.245743,0.26488 -0.546096,0.53022 -0.577147,0.50985 -0.896094,0.63635 -1.358131,0.53863 z M 108.79438,87.270523 c -0.88884,-0.08517 -1.71994,-0.376275 -2.04222,-0.71532 -0.41477,-0.43636 -0.61272,-0.926874 -0.61272,-1.518361 0,-1.314225 0.7808,-2.01608 2.56309,-2.303938 2.09065,-0.337664 3.50062,0.0965 4.09536,1.261079 0.2551,0.499509 0.25777,1.041693 0.008,1.699953 -0.54632,1.442089 -1.50084,1.817193 -4.01191,1.576587 z m 30.13448,-0.288889 c -0.93444,-0.120591 -1.45251,-0.273255 -1.82332,-0.537295 -0.28438,-0.202501 -0.75676,-1.283534 -0.7561,-1.730343 0.001,-0.831205 0.44416,-1.471507 1.23353,-1.783198 0.43014,-0.169845 0.61617,-0.186789 2.09488,-0.190809 l 1.62283,-0.0044 0.62416,0.298871 c 0.79921,0.382689 1.10074,0.642103 1.36669,1.175805 0.40673,0.816197 0.20393,1.846611 -0.4484,2.278304 -0.78961,0.522539 -2.2553,0.70717 -3.91427,0.493076 z m -16.78194,-0.1312 c -0.69934,-0.09115 -1.53041,-0.349302 -2.27237,-0.705857 -2.28513,-1.098141 -3.58378,-3.012847 -3.91447,-5.771437 -0.0473,-0.394224 -0.14758,-0.982208 -0.22294,-1.30663 -0.1312,-0.564859 -0.13027,-0.60343 0.0219,-0.91007 0.0874,-0.176116 0.26463,-0.397528 0.39381,-0.492026 0.22755,-0.166459 0.36633,-0.173487 4.45237,-0.225487 2.31963,-0.02952 5.57561,-0.05761 7.23552,-0.06242 l 3.01801,-0.0087 0.30566,0.280113 0.30565,0.280113 0.0237,1.113853 c 0.0265,1.250713 -0.10837,2.240631 -0.44104,3.236011 -0.29178,0.873021 -0.63207,1.43008 -1.31405,2.151143 -1.02468,1.08339 -2.0671,1.635152 -4.0224,2.129092 -1.39266,0.351806 -2.44919,0.43834 -3.56933,0.292342 z m 15.12344,-6.791367 c -1.06127,-0.2716 -1.87185,-0.921163 -2.13385,-1.709972 -0.1717,-0.516936 -0.13404,-1.561258 0.0714,-1.97999 0.2597,-0.529318 0.76769,-1.120373 1.14441,-1.33155 0.32702,-0.183311 0.47013,-0.208055 1.20338,-0.208055 0.74454,0 0.8826,0.02474 1.31044,0.234832 1.1687,0.573894 1.83252,2.473732 1.26341,3.615803 -0.24814,0.497938 -0.99421,1.216928 -1.38739,1.337015 -0.47183,0.144113 -1.01232,0.159506 -1.4718,0.04192 z m -30.20905,-0.757769 c -0.32798,-0.180918 -0.58898,-0.612306 -0.58898,-0.973504 0,-0.137108 0.19661,-0.63968 0.43692,-1.116827 0.46763,-0.928526 1.03807,-1.594942 1.67826,-1.960627 0.72045,-0.41153 1.75009,-0.483726 2.42041,-0.169713 0.43299,0.202834 1.29851,1.080726 1.6429,1.666377 0.14916,0.253661 0.35485,0.600091 0.45709,0.769843 0.22653,0.376152 0.23797,0.718534 0.0365,1.094116 -0.21076,0.392981 -0.62644,0.607636 -1.08497,0.560278 -0.50454,-0.05211 -0.73279,-0.253064 -1.15519,-1.017048 -0.54777,-0.990715 -0.76216,-1.171482 -1.20592,-1.016789 -0.32699,0.11399 -0.59437,0.4687 -0.85602,1.135612 -0.29064,0.740787 -0.64324,1.09736 -1.13538,1.148159 -0.25338,0.02615 -0.44564,-0.0095 -0.64567,-0.119877 z"
         id="path10884" /><path
         style="fill:#0d0d0d"
         d="m 105.96766,133.87369 c -0.39201,-0.0757 -0.83159,-0.17909 -0.97686,-0.22973 -0.37455,-0.13057 -1.36189,-0.78338 -1.81875,-1.20252 -0.65384,-0.59987 -0.69195,-0.75842 -0.69798,-2.90373 -0.008,-2.68202 -0.3168,-6.33551 -0.5566,-6.57531 -0.0603,-0.0603 -0.61699,-0.0562 -1.82307,0.0136 -2.309629,0.1337 -8.173608,0.13624 -9.516009,0.004 -0.571361,-0.0562 -1.434615,-0.1735 -1.918342,-0.26061 -1.099544,-0.19799 -3.450634,-0.86763 -3.783789,-1.0777 -0.137318,-0.0866 -0.642892,-0.37051 -1.123498,-0.63094 -0.480606,-0.26043 -1.397787,-0.75868 -2.038179,-1.10722 -1.339418,-0.72898 -4.018355,-2.48874 -4.994068,-3.28053 -1.09317,-0.88711 -2.099097,-2.00524 -2.746322,-3.05265 -0.320404,-0.51851 -0.702009,-1.08752 -0.84801,-1.26446 -0.146002,-0.17695 -0.290283,-0.40514 -0.320624,-0.5071 -0.03034,-0.10195 -0.201306,-0.49397 -0.379919,-0.87113 -0.178614,-0.37717 -0.413176,-0.92069 -0.52125,-1.20781 -0.108073,-0.28713 -0.312028,-0.75091 -0.453233,-1.03064 -0.141204,-0.27972 -0.310204,-0.72863 -0.375556,-0.99757 -0.06535,-0.26894 -0.252607,-0.94438 -0.416123,-1.50097 -0.627058,-2.13447 -1.521677,-6.68107 -1.839595,-9.349135 -0.313388,-2.630044 -0.399683,-4.513279 -0.356074,-7.770693 0.03047,-2.276137 0.08066,-3.443495 0.177568,-4.130035 0.227205,-1.609653 0.631186,-3.906061 0.849136,-4.826868 0.113756,-0.480607 0.246948,-1.042354 0.295982,-1.248328 0.161819,-0.67975 1.591287,-3.965986 2.135822,-4.910091 0.734924,-1.274196 3.299533,-4.835794 4.483396,-6.226308 1.219354,-1.432202 3.582566,-3.460531 5.432946,-4.663061 0.480606,-0.312337 1.079804,-0.745246 1.33155,-0.962018 1.38157,-1.189638 3.93902,-2.593981 5.908752,-3.244606 1.612635,-0.532672 5.002327,-1.323866 10.23629,-2.389271 1.121419,-0.228271 3.218609,-0.711535 4.660419,-1.073921 3.17234,-0.797333 3.89989,-0.944438 5.99198,-1.211535 2.67084,-0.340985 3.96923,-0.409184 5.60384,-0.294344 3.60028,0.252939 6.67545,0.821565 9.04321,1.672171 1.7436,0.626383 4.61967,1.942503 6.99063,3.198995 0.89256,0.473009 2.8774,1.496264 4.41076,2.273899 3.11595,1.580234 4.00169,2.0746 5.45103,3.04243 1.74039,1.16218 2.6765,1.9537 3.95562,3.344652 2.39984,2.609646 3.67509,4.652748 7.53199,12.067172 1.20468,2.315841 2.19551,5.332972 2.61269,7.955772 0.34778,2.186518 0.54365,5.618795 0.41953,7.351604 -0.27834,3.885793 -1.22302,7.189829 -3.15432,11.032349 -1.99794,3.9751 -3.47998,6.04551 -5.81921,8.12942 -3.46668,3.0883 -7.94562,5.13709 -13.41076,6.13445 -2.37132,0.43276 -3.48985,0.53338 -7.02543,0.632 -1.71324,0.0478 -2.85633,0.11236 -2.90824,0.16427 -0.12697,0.12697 -0.11538,5.11049 0.0154,6.61915 0.10957,1.26411 0.40686,2.75508 0.63875,3.2035 0.20278,0.39214 0.38563,0.44339 1.40923,0.39499 0.8179,-0.0387 1.02865,-0.0831 1.87831,-0.39626 1.13935,-0.41989 1.54222,-0.48177 1.90732,-0.29297 0.77862,0.40264 0.76924,1.61614 -0.0153,1.98473 -0.66318,0.31156 -2.87999,0.78566 -4.01414,0.8585 -0.66446,0.0427 -0.82884,0.0226 -1.45639,-0.17775 -0.60517,-0.19322 -0.76839,-0.28762 -1.12959,-0.65331 -0.36749,-0.37205 -0.46065,-0.54068 -0.71888,-1.30127 -0.16318,-0.48061 -0.33914,-1.11726 -0.39103,-1.41478 -0.14115,-0.80925 -0.26249,-3.82968 -0.25575,-6.36647 0.003,-1.23584 0.004,-2.29956 0.002,-2.3638 -0.008,-0.26503 -4.36526,0.1485 -10.40641,0.9877 -2.60403,0.36173 -3.75248,0.49124 -6.35227,0.71632 -0.4544,0.0393 -0.66566,0.0931 -0.69812,0.17771 -0.0256,0.0667 0.0149,0.63315 0.0901,1.25874 0.17387,1.44742 0.28389,2.93096 0.37995,5.12377 0.089,2.03193 0.0598,1.96739 1.07975,2.38248 0.5298,0.2156 0.71071,0.2472 1.41054,0.24633 0.48338,-5.9e-4 0.98491,-0.0536 1.26051,-0.13328 1.01032,-0.29202 1.18719,-0.3122 1.51698,-0.17307 0.81848,0.34528 0.8608,1.60147 0.0678,2.01156 -0.62431,0.32285 -2.88671,0.491 -3.9203,0.29138 z m -3.90609,-13.01344 c 4.5144,-0.31412 5.32972,-0.39572 8.82152,-0.88295 2.35151,-0.32811 5.62153,-0.72762 7.86447,-0.96082 0.6408,-0.0666 2.6631,-0.15828 4.49398,-0.20369 7.83177,-0.19422 9.67197,-0.41222 13.81483,-1.63655 4.69051,-1.38619 8.69777,-4.12098 11.36696,-7.75749 1.0661,-1.45246 2.91267,-4.88598 3.72054,-6.91798 1.57409,-3.959247 2.01906,-6.884757 1.77177,-11.648929 -0.0948,-1.825902 -0.17064,-2.436122 -0.46068,-3.705504 -0.0627,-0.274632 -0.15755,-0.739463 -0.21068,-1.032958 -0.13455,-0.743399 -0.68125,-2.492044 -1.16973,-3.741461 -0.70758,-1.809804 -4.4534,-8.736182 -5.72173,-10.580016 -1.6993,-2.47037 -3.64371,-4.437963 -5.82626,-5.895716 -1.83908,-1.228351 -2.87633,-1.783208 -11.29305,-6.041003 -5.11753,-2.588822 -7.96204,-3.434952 -13.02422,-3.874193 -2.13672,-0.1854 -4.49368,-0.0419 -7.53158,0.458555 -1.37492,0.226499 -1.96426,0.359077 -4.91009,1.10457 -1.09853,0.278002 -2.6527,0.640751 -3.45371,0.806109 -0.801008,0.165358 -1.868328,0.390086 -2.37182,0.499396 -0.503493,0.10931 -1.158865,0.224854 -1.456383,0.256764 -0.297518,0.03191 -0.643832,0.110104 -0.769586,0.173764 -0.125754,0.06366 -0.930926,0.265413 -1.78927,0.44834 -2.232807,0.475846 -3.751715,0.888786 -4.17146,1.13408 -0.200115,0.116945 -1.080186,0.575169 -1.955714,1.018276 -2.27045,1.149081 -3.827757,2.10944 -5.752963,3.547735 -0.274632,0.205174 -0.798242,0.587999 -1.163577,0.850722 -0.753483,0.541851 -2.771506,2.466822 -3.12851,2.984253 -0.130086,0.188543 -0.409594,0.544317 -0.621129,0.790607 -0.211534,0.246291 -0.608534,0.781238 -0.882221,1.188772 -0.273688,0.407534 -0.619787,0.894382 -0.76911,1.081884 -1.0477,1.31558 -2.929952,4.703865 -3.306871,5.952775 -0.09072,0.300607 -0.238635,0.789982 -0.328694,1.0875 -0.44395,1.466631 -0.940479,3.880484 -1.215428,5.908753 -0.126083,0.930104 -0.152024,1.68218 -0.150699,4.369148 0.002,4.131752 0.154192,6.159029 0.710933,9.472342 0.540668,3.217655 1.371558,6.775695 1.820603,7.796195 0.130915,0.29752 0.319008,0.80155 0.417984,1.12006 0.09898,0.31851 0.383623,0.93882 0.632548,1.37846 0.248926,0.43964 0.452592,0.82755 0.452592,0.86201 0,0.0345 0.09678,0.18956 0.21507,0.34464 0.118289,0.15509 0.264494,0.4462 0.324901,0.64692 0.127953,0.42515 0.742273,1.41208 1.1917,1.91452 0.171962,0.19224 0.413557,0.49933 0.53688,0.68242 0.479708,0.71219 2.553586,2.28711 4.73892,3.59879 1.362184,0.81761 3.666434,2.0234 4.393924,2.29929 0.297519,0.11284 0.746917,0.29899 0.998663,0.41367 0.739091,0.3367 2.356696,0.65253 4.285926,0.83682 0.886966,0.0847 9.126311,-0.0282 10.860451,-0.14888 z M 81.515648,104.65738 c -0.428786,-0.0907 -0.76849,-0.47932 -0.820233,-0.93839 -0.05881,-0.52178 0.0852,-0.82202 0.592039,-1.23434 0.710016,-0.57761 1.050536,-0.92573 1.050536,-1.07398 0,-0.0792 -0.191297,-0.26249 -0.436914,-0.41863 -0.409848,-0.26055 -1.341882,-0.96275 -2.392629,-1.802612 -0.550014,-0.439627 -1.553365,-1.540586 -2.010232,-2.205789 -0.531023,-0.773175 -0.967896,-1.774537 -1.242075,-2.846975 -0.236662,-0.925691 -0.252486,-1.077094 -0.217421,-2.080237 0.04766,-1.36349 0.330895,-2.393418 1.052772,-3.828206 0.520234,-1.034004 1.586091,-2.596296 2.413034,-3.536929 1.030259,-1.171902 2.027443,-2.467644 2.206576,-2.867228 0.374586,-0.835573 1.007309,-1.143689 1.686623,-0.821333 0.372045,0.176547 0.631004,0.704861 0.549071,1.120186 -0.09197,0.466223 -0.268346,0.814373 -0.5978,1.180026 -0.337958,0.37509 -1.915832,2.272671 -2.698781,3.245604 -2.269102,2.819704 -3.003044,5.087703 -2.358941,7.289503 0.363665,1.243152 0.735448,1.889902 1.703972,2.964213 0.539725,0.598677 1.797624,1.63002 2.313385,1.896731 0.141488,0.07317 0.458762,0.306415 0.705053,0.518332 0.246291,0.211916 0.734086,0.530242 1.083988,0.707391 0.672283,0.340363 0.941595,0.600293 1.027581,0.991783 0.106944,0.48691 -0.08969,0.86575 -0.916406,1.76553 -0.433935,0.47229 -0.788971,0.88021 -0.788971,0.9065 0,0.0263 -0.245743,0.26488 -0.546096,0.53022 -0.577147,0.50985 -0.896094,0.63635 -1.358131,0.53863 z M 122.14692,86.850434 c -0.69934,-0.09115 -1.53041,-0.349302 -2.27237,-0.705857 -2.28513,-1.098141 -3.58378,-3.012847 -3.91447,-5.771437 -0.0473,-0.394224 -0.14758,-0.982208 -0.22294,-1.30663 -0.1312,-0.564859 -0.13027,-0.60343 0.0219,-0.91007 0.0874,-0.176116 0.26463,-0.397528 0.39381,-0.492026 0.22755,-0.166459 0.36633,-0.173487 4.45237,-0.225487 2.31963,-0.02952 5.57561,-0.05761 7.23552,-0.06242 l 3.01801,-0.0087 0.30566,0.280113 0.30565,0.280113 0.0237,1.113853 c 0.0265,1.250713 -0.10837,2.240631 -0.44104,3.236011 -0.29178,0.873021 -0.63207,1.43008 -1.31405,2.151143 -1.02468,1.08339 -2.0671,1.635152 -4.0224,2.129092 -1.39266,0.351806 -2.44919,0.43834 -3.56933,0.292342 z m 2.80066,-0.743121 c 0.86211,-0.109577 1.64561,-0.322164 2.51175,-0.681509 0.90883,-0.377062 1.10008,-0.539799 1.10008,-0.936082 0,-0.317361 -0.38262,-0.819084 -1.20597,-1.581365 -0.59501,-0.55087 -0.85885,-0.694292 -2.09895,-1.140984 -0.76476,-0.275472 -0.99796,-0.326401 -1.30557,-0.285125 -0.20597,0.02764 -0.63665,0.08462 -0.95705,0.126622 -0.64012,0.08392 -1.91342,0.528324 -2.47261,0.862998 -0.42412,0.253827 -1.34998,1.139373 -1.57211,1.503641 -0.20032,0.328509 -0.20264,0.732798 -0.005,0.911455 0.50929,0.460907 1.90665,0.924015 3.31001,1.096995 0.56636,0.06981 1.11434,0.162905 1.21773,0.206874 0.10339,0.04397 0.3565,0.05863 0.56247,0.03259 0.20598,-0.02604 0.61793,-0.07829 0.91544,-0.11611 z m 12.32278,-6.048246 c -1.06127,-0.2716 -1.87185,-0.921163 -2.13385,-1.709972 -0.1717,-0.516936 -0.13404,-1.561258 0.0714,-1.97999 0.2597,-0.529318 0.76769,-1.120373 1.14441,-1.33155 0.32702,-0.183311 0.47013,-0.208055 1.20338,-0.208055 0.74454,0 0.8826,0.02474 1.31044,0.234832 1.1687,0.573894 1.83252,2.473732 1.26341,3.615803 -0.24814,0.497938 -0.99421,1.216928 -1.38739,1.337015 -0.47183,0.144113 -1.01232,0.159506 -1.4718,0.04192 z m -30.20905,-0.757769 c -0.32798,-0.180918 -0.58898,-0.612306 -0.58898,-0.973504 0,-0.137108 0.19661,-0.63968 0.43692,-1.116827 0.46763,-0.928526 1.03807,-1.594942 1.67826,-1.960627 0.72045,-0.41153 1.75009,-0.483726 2.42041,-0.169713 0.43299,0.202834 1.29851,1.080726 1.6429,1.666377 0.14916,0.253661 0.35485,0.600091 0.45709,0.769843 0.22653,0.376152 0.23797,0.718534 0.0365,1.094116 -0.21076,0.392981 -0.62644,0.607636 -1.08497,0.560278 -0.50454,-0.05211 -0.73279,-0.253064 -1.15519,-1.017048 -0.54777,-0.990715 -0.76216,-1.171482 -1.20592,-1.016789 -0.32699,0.11399 -0.59437,0.4687 -0.85602,1.135612 -0.29064,0.740787 -0.64324,1.09736 -1.13538,1.148159 -0.25338,0.02615 -0.44564,-0.0095 -0.64567,-0.119877 z"
         id="path10883" /></g></g></svg>
