<?xml version="1.0" encoding="UTF-8" standalone="no"?>
<!-- Created with Inkscape (http://www.inkscape.org/) -->

<svg
   width="104.37867mm"
   height="111.75675mm"
   viewBox="0 0 104.37867 111.75675"
   version="1.1"
   id="svg1"
   xml:space="preserve"
   xmlns="http://www.w3.org/2000/svg"
   xmlns:svg="http://www.w3.org/2000/svg"><defs
     id="defs1"><clipPath
       clipPathUnits="userSpaceOnUse"
       id="clipPath10853"><rect
         style="fill:#d6d6d6;fill-opacity:1;stroke-width:0.264583"
         id="rect10854"
         width="62.706249"
         height="55.827084"
         x="145.65312"
         y="32.543751" /></clipPath></defs><g
     id="layer1"
     transform="translate(-54.489803,-167.49434)"><g
       id="g10883"><path
         style="fill:#a5a5a6"
         d="m 101.86458,139.36201 c 0,-10.80827 0,-10.80827 1.52136,-10.73057 0.83674,0.0427 4.61697,0.20473 8.40051,0.35999 13.50365,0.55413 25.78767,1.41409 37.81885,2.64758 10.05258,1.03062 9.80692,1.06986 5.78911,-0.92468 -16.17401,-8.0292 -10.73418,-34.449746 7.11028,-34.533696 1.20585,-0.006 1.14645,0.0984 1.6714,-2.92772 0.23861,-1.37545 0.77253,-3.27474 1.18649,-4.22062 0.61473,-1.40464 1.85408,-7.61977 1.85408,-9.29791 0,-0.60315 -7.12381,2.57971 -9.00009,4.02118 -0.65718,0.50488 -2.14546,1.32318 -3.30729,1.81844 -2.88214,1.22858 -2.80486,1.12496 -2.48068,3.326 1.80896,12.281976 -9.5081,22.720096 -21.80767,20.113986 -4.64977,-0.98523 -7.8287,-3.35859 -11.70621,-8.73977 -0.54464,-0.755853 -0.54464,-0.755853 -4.33332,1.0347 -5.93953,2.80705 -6.01292,2.78703 -6.40674,-1.747483 -0.33833,-3.895473 -0.88796,-5.106103 -2.7382,-6.031223 -2.13968,-1.06984 -1.78139,-2.72088 0.45638,-2.103 2.63294,0.72699 3.75076,2.46274 4.20836,6.534773 0.16762,1.49159 0.4003,2.711973 0.51708,2.711973 0.56421,0 6.85671,-3.182463 6.85671,-3.467813 0,-0.18007 -0.19286,-1.348713 -0.42859,-2.596983 -3.16102,-16.73893 16.49084,-28.56966 29.08514,-17.50973 1.89062,1.66028 1.71675,1.66412 5.15686,-0.1138 2.24661,-1.1611 3.21491,-1.50959 4.68833,-1.68733 1.5677,-0.1891 8.64975,-3.24496 9.63055,-4.15551 0.0607,-0.0564 -0.26925,-1.32282 -0.73328,-2.81432 -3.73016,-11.98946 -1.61138,-22.61609 5.95118,-29.847831 5.94882,-5.688592 11.8586,-6.880125 12.67008,-2.55455 0.1488,0.793202 -4.53832,26.147671 -5.32976,28.830681 -0.24627,0.8349 0.47823,0.53884 13.16836,-5.38105 15.87051,-7.40351 16.68822,-7.52313 17.09142,-2.50013 0.99969,12.45407 -14.28082,23.96389 -29.73462,22.39715 -1.69294,-0.17163 -3.12073,-0.26941 -3.17286,-0.21728 -0.41387,0.41387 -1.93738,9.86862 -1.79095,11.11449 0.12561,1.06874 -0.0169,2.30621 -0.55777,4.84306 -0.72648,3.407523 -0.72648,3.407523 0.29029,4.203503 14.12017,11.054093 7.8592,33.265153 -9.46248,33.568523 -3.028,0.053 -2.24255,0.30797 3.35207,1.088 26.71541,3.72478 27.3419,9.75622 1.4552,14.00982 -13.63856,2.24104 -11.00168,2.09767 -40.4151,2.19744 -26.52448,0.09 -26.52448,0.09 -26.52448,-10.71829 z m 64.88771,-16.98968 c 7.05167,-2.63837 6.21016,-14.11831 -1.1646,-15.88748 -5.04928,-1.21131 -9.57575,2.1697 -9.95239,7.43385 -0.45833,6.40571 5.16388,10.68097 11.11699,8.45363 z M 137.38791,98.934747 c 3.9652,-1.35108 6.06838,-5.964363 4.72918,-10.373363 -2.83031,-9.3182 -16.22014,-6.78868 -15.58996,2.94516 0.38808,5.994233 5.26996,9.333186 10.86078,7.428203 z M 173.6064,77.126044 c 0.99658,-5.31151 3.11376,-16.26526 4.70485,-24.34167 3.40141,-17.265671 3.3313,-16.769778 2.41217,-17.061496 -2.46038,-0.780895 -8.6563,3.79781 -11.58841,8.563696 -5.08029,8.25755 -5.00664,15.18735 0.31048,29.21348 0.79525,2.0978 0.87187,3.9814 0.26587,6.53641 -0.42838,1.80612 -1.15858,5.72922 -1.1669,6.26935 -0.004,0.27605 1.6726,0.56629 2.87932,0.49838 0.27525,-0.0155 0.837,-2.50639 2.18262,-9.67815 z m -9.46305,0.14689 c 3.73327,-0.76141 3.72393,-0.75453 3.1822,-2.3444 -0.52702,-1.54674 -0.46116,-1.55033 -4.39399,0.23956 -5.57135,2.53559 -5.08051,3.38816 1.21179,2.10484 z m 15.37644,-3.21442 c 1.09824,-0.26371 2.1272,-0.69916 2.52802,-1.06984 0.46059,-0.42597 0.99225,-0.62513 1.66877,-0.62513 2.92336,0 3.91481,-0.70161 2.98243,-2.11053 -1.57622,-2.38183 -1.33724,-2.72032 3.32004,-4.70249 4.16567,-1.77294 5.23554,-1.60383 5.2475,0.82943 0.009,1.73642 2.1648,1.41137 2.93648,-0.44267 0.37093,-0.8912 0.97357,-1.24666 2.11359,-1.24666 1.74778,0 5.7938,-5.04521 5.7938,-7.22461 0,-1.76503 -0.45821,-2.00764 -2.3282,-1.23272 -8.13113,3.36952 -25.8578,11.88337 -25.93542,12.45639 -0.047,0.34713 -0.31491,1.54396 -0.59531,2.65961 -0.65725,2.61501 -0.66953,3.47897 -0.0468,3.29255 0.25466,-0.0762 1.29645,-0.33874 2.3151,-0.58333 z m 1.36392,-3.50174 c -0.6421,-0.70952 -0.56333,-2.04411 0.15016,-2.54385 1.29763,-0.9089 2.85155,-0.16409 2.85155,1.36678 0,1.39675 -2.06875,2.20797 -3.00171,1.17707 z m 14.55209,-6.87917 c -0.51647,-0.57069 -0.57923,-1.97988 -0.10567,-2.37289 1.23777,-1.02727 2.93098,-0.29621 2.93098,1.26546 0,1.46317 -1.84788,2.18748 -2.82531,1.10743 z"
         id="path10852"
         clip-path="url(#clipPath10853)"
         transform="translate(-49.67552,134.17683)" /><path
         style="fill:#35b5cd"
         d="m 116.83229,278.44117 c -0.9944,-1.63516 -1.5789,-1.81562 -5.88683,-1.81756 -5.37105,-0.002 -5.17762,0.35285 -3.50088,-6.42975 0.49626,-2.00743 0.89753,-3.79337 0.8917,-3.96875 -0.006,-0.17537 -1.04763,-0.79511 -2.3151,-1.3772 -15.908552,-7.30591 -11.077153,-34.17073 6.16216,-34.26445 1.86309,-0.0101 1.94905,-0.11999 2.50097,-3.19658 0.27189,-1.5156 0.79763,-3.41048 1.1683,-4.21084 0.71021,-1.5335 2.12814,-9.21257 1.77221,-9.59774 -0.26805,-0.29008 -7.4702,3.02883 -8.71902,4.01792 -0.95418,0.75572 -2.94338,1.77888 -5.36924,2.7617 -0.97386,0.39455 -0.97386,0.39455 -0.82218,3.80513 0.82793,18.61589 -22.411881,26.67136 -32.533227,11.27679 -1.318834,-2.00594 -1.293994,-2.00334 -4.451404,-0.46589 -6.853243,3.33708 -6.707442,3.37097 -7.117064,-1.65468 -0.320993,-3.93827 -1.459155,-5.9099 -3.411598,-5.9099 -0.410825,0 -0.853429,-0.95196 -0.667671,-1.43604 0.353113,-0.9202 2.961751,-0.17372 4.261281,1.21939 0.797778,0.85522 1.356209,2.54601 1.541034,4.66587 0.310401,3.56015 0.0514,3.46939 4.259025,1.49234 3.533624,-1.66035 3.549442,-1.67494 3.242906,-2.99187 -4.088797,-17.56607 15.013742,-30.37895 28.525225,-19.13307 2.02572,1.68604 2.21499,1.68655 5.316983,0.0143 2.00041,-1.07839 2.88975,-1.39908 4.38941,-1.58277 1.54007,-0.18865 10.2151,-3.89111 10.2151,-4.35976 0,-0.0253 -0.40247,-1.28163 -0.89437,-2.79173 -5.06685,-15.55478 3.2983,-34.89251 15.09387,-34.89251 4.05195,0 4.06253,0.32741 0.58372,18.06471 -3.14602,16.04052 -3.42773,14.52339 2.21078,11.90562 2.51325,-1.16682 8.47128,-3.93543 13.24008,-6.15246 10.36227,-4.81747 11.30441,-4.91925 12.07955,-1.3049 2.64659,12.34059 -14.61117,25.28931 -30.74272,23.06667 -1.24469,-0.1715 -1.8579,-0.15948 -2.01147,0.0394 -0.47768,0.61869 -1.88662,9.13082 -1.89332,11.43848 -0.004,1.3503 -0.22503,3.29338 -0.52237,4.59036 -0.78294,3.41517 -0.78915,3.39026 1.22203,4.90167 13.55178,10.18427 6.41276,31.99582 -10.67394,32.61163 -2.92583,0.10545 -3.51978,0.1963 -3.62702,0.55484 -0.2687,0.89836 -1.47316,6.46973 -1.47316,6.8143 0,0.28361 0.64015,0.36256 2.97657,0.36712 3.96465,0.008 5.43773,0.67592 6.64843,3.01566 0.82811,1.60038 -0.73178,2.45523 -1.66875,0.9145 z m -1.17727,-21.42347 c 9.99191,-1.74002 7.89105,-17.17806 -2.25769,-16.59056 -10.21817,0.59152 -10.01664,16.06028 0.21954,16.85116 0.20636,0.0159 1.12353,-0.10133 2.03815,-0.2606 z M 87.626208,233.21665 c 8.226649,-2.77818 6.637149,-15.70882 -2.007031,-16.32731 -5.129271,-0.367 -8.883549,3.06542 -8.834895,8.07747 0.06209,6.39565 5.063429,10.20127 10.841926,8.24984 z m 36.885622,-23.0052 c 1.13481,-6.03911 3.34486,-17.43199 4.91122,-25.31751 3.36206,-16.92559 3.38247,-16.61389 -0.97543,-14.89616 -8.2742,3.26138 -14.10262,14.11687 -12.97298,24.16229 0.38566,3.42949 0.94525,5.30336 4.10563,13.74831 0.77487,2.07057 0.84195,3.55852 0.26141,5.79889 -0.31602,1.21958 -1.44064,6.88466 -1.44064,7.25702 0,0.0885 2.59857,0.27885 3.41281,0.24992 0.62467,-0.0222 0.66723,-0.19574 2.69798,-11.00276 z m -9.48422,2.1089 c 3.75653,-1.81768 3.77962,-1.8496 2.83854,-3.92354 -0.64414,-1.41956 -0.59879,-1.42675 -5.21258,0.82568 -2.42547,1.18411 -3.3496,1.76255 -3.27074,2.04729 0.96757,3.49368 0.69899,3.44369 5.64478,1.05057 z m 23.10952,-1.41575 c 9.39711,-2.022 16.18015,-8.31916 18.39022,-17.07289 1.41655,-5.61074 1.3804,-5.60623 -14.88117,1.85667 -15.81277,7.25694 -13.94308,5.62116 -15.06619,13.1813 -0.39075,2.63027 4.6585,3.51931 11.55714,2.03492 z m -0.12561,-5.99317 c -2.15219,-2.35635 -1.88753,-2.86446 2.49994,-4.79944 4.1796,-1.8433 5.24832,-1.40922 4.79792,1.94876 -0.37059,2.76294 -5.53534,4.78039 -7.29786,2.85068 z m -6.02731,-0.26426 c -0.70802,-0.27512 -1.00406,-1.12378 -0.63352,-1.81614 0.67946,-1.26958 2.48584,-0.84218 2.3455,0.55495 -0.0992,0.98748 -0.89936,1.57695 -1.71198,1.26119 z m 14.19809,-7.13572 c -0.8938,-0.8938 -0.46042,-2.11667 0.75014,-2.11667 1.33154,0 1.86046,1.32306 0.88267,2.20795 -0.63241,0.57232 -0.98915,0.55238 -1.63281,-0.0913 z"
         id="path10844" /><path
         style="fill:#424944"
         d="m 116.83229,278.44117 c -0.9944,-1.63516 -1.5789,-1.81562 -5.88683,-1.81756 -5.37105,-0.002 -5.17762,0.35285 -3.50088,-6.42975 0.49626,-2.00743 0.89753,-3.79337 0.8917,-3.96875 -0.006,-0.17537 -1.04763,-0.79511 -2.3151,-1.3772 -15.908552,-7.30591 -11.077153,-34.17073 6.16216,-34.26445 1.86309,-0.0101 1.94905,-0.11999 2.50097,-3.19658 0.27189,-1.5156 0.79763,-3.41048 1.1683,-4.21084 0.71021,-1.5335 2.12814,-9.21257 1.77221,-9.59774 -0.26805,-0.29008 -7.4702,3.02883 -8.71902,4.01792 -0.95418,0.75572 -2.94338,1.77888 -5.36924,2.7617 -0.97386,0.39455 -0.97386,0.39455 -0.82218,3.80513 0.82793,18.61589 -22.411881,26.67136 -32.533227,11.27679 -1.318834,-2.00594 -1.293994,-2.00334 -4.451404,-0.46589 -6.853243,3.33708 -6.707442,3.37097 -7.117064,-1.65468 -0.320993,-3.93827 -1.459155,-5.9099 -3.411598,-5.9099 -0.410825,0 -0.853429,-0.95196 -0.667671,-1.43604 0.353113,-0.9202 2.961751,-0.17372 4.261281,1.21939 0.797778,0.85522 1.356209,2.54601 1.541034,4.66587 0.310401,3.56015 0.0514,3.46939 4.259025,1.49234 3.533624,-1.66035 3.549442,-1.67494 3.242906,-2.99187 -4.088797,-17.56607 15.013742,-30.37895 28.525225,-19.13307 2.02572,1.68604 2.21499,1.68655 5.316983,0.0143 2.00041,-1.07839 2.88975,-1.39908 4.38941,-1.58277 1.54007,-0.18865 10.2151,-3.89111 10.2151,-4.35976 0,-0.0253 -0.40247,-1.28163 -0.89437,-2.79173 -5.06685,-15.55478 3.2983,-34.89251 15.09387,-34.89251 4.05195,0 4.06253,0.32741 0.58372,18.06471 -3.14602,16.04052 -3.42773,14.52339 2.21078,11.90562 2.51325,-1.16682 8.47128,-3.93543 13.24008,-6.15246 10.36227,-4.81747 11.30441,-4.91925 12.07955,-1.3049 2.64659,12.34059 -14.61117,25.28931 -30.74272,23.06667 -1.24469,-0.1715 -1.8579,-0.15948 -2.01147,0.0394 -0.47768,0.61869 -1.88662,9.13082 -1.89332,11.43848 -0.004,1.3503 -0.22503,3.29338 -0.52237,4.59036 -0.78294,3.41517 -0.78915,3.39026 1.22203,4.90167 13.55178,10.18427 6.41276,31.99582 -10.67394,32.61163 -2.92583,0.10545 -3.51978,0.1963 -3.62702,0.55484 -0.2687,0.89836 -1.47316,6.46973 -1.47316,6.8143 0,0.28361 0.64015,0.36256 2.97657,0.36712 3.96465,0.008 5.43773,0.67592 6.64843,3.01566 0.82811,1.60038 -0.73178,2.45523 -1.66875,0.9145 z m 0.88189,-13.98364 c 13.17296,-3.36907 16.4797,-20.77335 5.51925,-29.04924 -2.19026,-1.6538 -2.71364,-4.04726 -1.53124,-7.00238 1.17808,-2.9443 0.60654,-5.07118 -1.44906,-5.39249 -2.23561,-0.34943 -3.03466,0.75293 -3.95353,5.45428 -0.71125,3.63911 -0.75549,3.70417 -2.51884,3.70417 -7.02365,0 -14.138323,5.85939 -15.622873,12.86645 -2.48046,11.70769 8.208323,22.32154 19.556293,19.41921 z m -7.02226,-5.96551 c -8.39011,-2.66397 -9.10917,-15.01545 -1.10359,-18.95658 8.22023,-4.04681 16.82363,4.05043 13.80404,12.99192 -1.66125,4.91926 -7.44219,7.63422 -12.70045,5.96466 z m 4.9631,-1.47432 c 9.99191,-1.74002 7.89105,-17.17806 -2.25769,-16.59056 -10.21817,0.59152 -10.01664,16.06028 0.21954,16.85116 0.20636,0.0159 1.12353,-0.10133 2.03815,-0.2606 z M 87.880595,241.44999 c 8.530282,-1.61773 14.495545,-10.22681 12.911985,-18.63457 -0.60287,-3.20082 -0.17678,-3.69153 4.42051,-5.09094 2.46532,-0.75044 3.72332,-2.95969 2.75338,-4.83536 -0.86312,-1.66909 -2.13611,-1.69821 -5.11066,-0.11694 -1.54218,0.81982 -4.831753,2.20177 -5.241073,2.20177 -0.0752,0 -0.95132,-0.76506 -1.94693,-1.70013 -11.397327,-10.70429 -30.098957,0.40341 -26.219289,15.57276 2.223533,8.69394 10.218939,14.161 18.432077,12.60341 z m -4.657851,-6.13977 c -12.136154,-2.01192 -10.717966,-20.1879 1.576211,-20.20125 12.248482,-0.0133 13.891472,18.26589 1.81789,20.22498 -0.927079,0.15043 -1.74513,0.26049 -1.81789,0.24457 -0.07276,-0.0159 -0.782056,-0.13665 -1.576211,-0.2683 z m 4.403464,-2.09357 c 8.226649,-2.77818 6.637149,-15.70882 -2.007031,-16.32731 -5.129271,-0.367 -8.883549,3.06542 -8.834895,8.07747 0.06209,6.39565 5.063429,10.20127 10.841926,8.24984 z m 36.885622,-23.0052 c 1.13481,-6.03911 3.34486,-17.43199 4.91122,-25.31751 3.36206,-16.92559 3.38247,-16.61389 -0.97543,-14.89616 -8.2742,3.26138 -14.10262,14.11687 -12.97298,24.16229 0.38566,3.42949 0.94525,5.30336 4.10563,13.74831 0.77487,2.07057 0.84195,3.55852 0.26141,5.79889 -0.31602,1.21958 -1.44064,6.88466 -1.44064,7.25702 0,0.0885 2.59857,0.27885 3.41281,0.24992 0.62467,-0.0222 0.66723,-0.19574 2.69798,-11.00276 z m -9.48422,2.1089 c 3.75653,-1.81768 3.77962,-1.8496 2.83854,-3.92354 -0.64414,-1.41956 -0.59879,-1.42675 -5.21258,0.82568 -2.42547,1.18411 -3.3496,1.76255 -3.27074,2.04729 0.96757,3.49368 0.69899,3.44369 5.64478,1.05057 z m 23.10952,-1.41575 c 9.39711,-2.022 16.18015,-8.31916 18.39022,-17.07289 1.41655,-5.61074 1.3804,-5.60623 -14.88117,1.85667 -15.81277,7.25694 -13.94308,5.62116 -15.06619,13.1813 -0.39075,2.63027 4.6585,3.51931 11.55714,2.03492 z m -0.12561,-5.99317 c -2.15219,-2.35635 -1.88753,-2.86446 2.49994,-4.79944 4.1796,-1.8433 5.24832,-1.40922 4.79792,1.94876 -0.37059,2.76294 -5.53534,4.78039 -7.29786,2.85068 z m -6.02731,-0.26426 c -0.70802,-0.27512 -1.00406,-1.12378 -0.63352,-1.81614 0.67946,-1.26958 2.48584,-0.84218 2.3455,0.55495 -0.0992,0.98748 -0.89936,1.57695 -1.71198,1.26119 z m 14.19809,-7.13572 c -0.8938,-0.8938 -0.46042,-2.11667 0.75014,-2.11667 1.33154,0 1.86046,1.32306 0.88267,2.20795 -0.63241,0.57232 -0.98915,0.55238 -1.63281,-0.0913 z"
         id="path10843" /><path
         style="fill:#d6d6d6;fill-opacity:1"
         d="m 452.75,834.28375 c -3.42132,-0.51829 -3.42385,-0.8046 -0.1448,-16.39623 3.94343,-18.75071 3.64914,-24.61536 -2.02665,-40.38752 -15.39184,-42.77159 -16.42778,-67.94386 -3.82733,-93 6.76939,-13.46102 14.78743,-23.37176 26.17951,-32.3593 8.90224,-7.02324 17.22897,-10.64069 21.83309,-9.48513 2.32549,0.58366 2.40311,0.85971 1.75113,6.22758 -0.37522,3.08927 -4.89856,27.21685 -10.05188,53.61685 -5.15332,26.4 -12.55614,64.65 -16.45071,85 -3.89457,20.35 -7.75315,39.3625 -8.57463,42.25 -1.58754,5.58019 -1.63082,5.60278 -8.68773,4.53375 z"
         id="path10854"
         transform="scale(0.26458333)" /><path
         style="fill:#d6d6d6;fill-opacity:1"
         d="m 415.19036,799.75 c 0.47067,-1.64791 22.64346,-12.75 25.46393,-12.75 1.63581,0 2.49707,0.92858 3.40067,3.66652 1.63505,4.95425 0.54372,5.62762 -13.36279,8.24517 -12.9347,2.43464 -16.00518,2.60068 -15.50181,0.83831 z"
         id="path10855"
         transform="scale(0.26458333)" /><path
         style="fill:#d6d6d6;fill-opacity:1"
         d="m 481,786.56205 c 0,-2.91368 2.66334,-15.17036 3.96064,-18.22683 1.15816,-2.72867 11.39999,-8.32203 41.16892,-22.48354 C 558.09055,730.64737 584.75322,719 587.59727,719 c 1.69903,0 2.54431,0.71591 3.00297,2.54337 1.80894,7.20739 -12.30652,27.27305 -20.42731,29.0382 -5.54491,1.20525 -7.8093,2.58773 -9.55845,5.83571 -1.90494,3.53725 -5.6576,5.88714 -7.97895,4.99635 -0.76349,-0.29298 -1.62837,-2.32355 -1.92195,-4.51238 -0.99397,-7.41058 -3.94528,-8.43407 -14.17325,-4.91513 -10.64529,3.66252 -20.56444,8.97269 -21.79161,11.66603 -0.98843,2.16936 -0.7516,3.24271 1.66342,7.53892 2.50589,4.45786 2.6504,5.17495 1.31253,6.51283 -0.8506,0.8506 -4.53174,1.83583 -8.47766,2.26898 -4.51609,0.49574 -7.99159,1.50194 -9.86063,2.85476 C 497.24635,784.37661 483.67639,789 481.2701,789 481.12154,789 481,787.90292 481,786.56205 Z m 24.54545,-13.0166 c 3.11461,-3.11461 3.11461,-5.9763 0,-9.09091 -2.71534,-2.71534 -4.59023,-3.02654 -7.86119,-1.30484 -2.91581,1.53476 -3.65071,2.79096 -3.66895,6.27156 -0.0332,6.34227 6.85,8.80433 11.53014,4.12419 z M 560,748 c 3.98294,-3.98294 1.35317,-11 -4.12245,-11 -4.76796,0 -6.87755,1.62959 -6.87755,5.31267 0,6.9066 6.44729,10.24004 11,5.68733 z"
         id="path10856"
         transform="scale(0.26458333)" /><path
         style="fill:#d6d6d6;fill-opacity:1;stroke-width:0.03125"
         d="m 421.50655,800.79333 0.009,-0.2751 0.39063,-0.0572 c 3.01909,-0.4424 11.09719,-1.9293 14.62753,-2.69243 3.72539,-0.80529 5.6915,-1.43639 6.83098,-2.19266 0.35723,-0.2371 0.77665,-0.65387 0.94121,-0.93528 0.45909,-0.78508 0.44825,-1.68969 -0.04,-3.33943 -0.18871,-0.63761 -0.33122,-1.05654 -0.5383,-1.58244 -0.7741,-1.96592 -1.60696,-2.71966 -3.00384,-2.71847 -0.49511,4.2e-4 -0.99138,0.125 -2.17694,0.5465 -3.19462,1.13575 -9.96128,4.30758 -15.75,7.3827 -0.53281,0.28305 -1.04257,0.55636 -1.13281,0.60737 l -0.16406,0.0927 v -0.62173 -0.62173 l 1.55469,-0.76898 c 2.42449,-1.19921 4.67565,-2.2443 9.72656,-4.51549 5.07834,-2.28352 7.21436,-3.03916 8.59098,-3.03916 0.91603,0 1.49669,0.31702 1.99276,1.08796 0.32133,0.49939 0.65118,1.31703 1.27565,3.16204 0.83661,2.47181 1.01401,3.18869 0.97511,3.94037 -0.0292,0.56312 -0.18582,0.93411 -0.56156,1.3297 -0.86158,0.90711 -2.72949,1.54404 -7.53857,2.57053 -6.55756,1.39969 -11.59236,2.33088 -15.04687,2.78291 -0.40391,0.0529 -0.78768,0.10427 -0.85282,0.11425 l -0.11845,0.0182 z"
         id="path10857"
         transform="scale(0.26458333)" /><path
         style="fill:#d6d6d6;fill-opacity:1;stroke-width:0.03125"
         d="m 454.45709,790.87109 c -0.11928,-0.59675 -0.50292,-2.11595 -0.7211,-2.85547 -0.29388,-0.99612 -0.73311,-2.26639 -1.36152,-3.9375 -4.16238,-11.0689 -7.28736,-20.44936 -9.54646,-28.65625 -0.16559,-0.60156 -0.30808,-1.11836 -0.31665,-1.14843 -0.0141,-0.0496 0.0149,-0.0547 0.31255,-0.0547 0.2855,0 0.33023,0.007 0.34433,0.0547 0.009,0.0301 0.14478,0.52578 0.30193,1.10156 1.79227,6.56659 4.02001,13.52446 7.01385,21.90625 1.79665,5.03004 2.77253,8.14437 3.48114,11.10937 0.27354,1.14454 0.61031,2.78626 0.59121,2.88205 -0.005,0.0262 -0.0499,-0.15452 -0.0993,-0.40158 z"
         id="path10858"
         transform="scale(0.26458333)" /><path
         style="fill:#d6d6d6;fill-opacity:1;stroke-width:0.03125"
         d="m 442.47219,754.11719 c -0.0701,-0.21806 -0.58602,-2.20544 -0.93899,-3.61719 -2.10136,-8.40476 -3.35369,-15.72597 -3.89149,-22.75 -0.16308,-2.13004 -0.23193,-3.65747 -0.25669,-5.69531 l -0.0197,-1.61719 h 0.34497 0.34498 l 0.0192,0.96094 c 0.0597,2.99475 0.14598,4.7812 0.34885,7.22656 0.60476,7.28964 2.076,15.44024 4.37449,24.23437 0.16172,0.61875 0.30853,1.17413 0.32623,1.23417 0.0177,0.0601 0.0322,0.11278 0.0322,0.11719 0,0.004 -0.14657,0.008 -0.3257,0.008 h -0.3257 z"
         id="path10859"
         transform="scale(0.26458333)" /><path
         style="fill:#d6d6d6;fill-opacity:1;stroke-width:0.03125"
         d="m 437.38493,719.00781 c 0.0197,-1.42961 0.0426,-2.04364 0.13211,-3.53906 0.41598,-6.95025 1.75449,-13.72289 4.01447,-20.3125 0.19158,-0.55859 0.36366,-1.06133 0.3824,-1.11719 l 0.0341,-0.10156 h 0.35132 0.35131 l -0.1104,0.30469 c -0.21339,0.5889 -0.78982,2.31216 -1.00612,3.00781 -1.76136,5.66482 -2.82854,11.35823 -3.25093,17.34375 -0.1086,1.53899 -0.14741,2.47934 -0.20924,5.07031 l -0.0185,0.77344 h -0.34511 -0.34512 z"
         id="path10860"
         transform="scale(0.26458333)" /><path
         style="fill:#d6d6d6;fill-opacity:1;stroke-width:0.03125"
         d="m 441.96875,693.9093 c 0,-0.0468 0.62709,-1.71268 0.97752,-2.5968 1.97042,-4.97123 4.50156,-10.01886 7.71468,-15.38472 1.67446,-2.79631 3.02292,-4.79872 4.8548,-7.2092 0.55354,-0.72837 1.78883,-2.27645 2.26884,-2.84335 l 0.34418,-0.40648 h 0.45308 c 0.35427,0 0.44792,0.009 0.42941,0.0391 -0.013,0.0215 -0.21506,0.2711 -0.44895,0.55469 -3.78572,4.59004 -7.27558,9.85248 -10.38265,15.65625 -2.18591,4.08311 -3.85367,7.72299 -5.24414,11.44531 l -0.28892,0.77344 h -0.33893 c -0.1864,0 -0.33892,-0.0127 -0.33892,-0.0282 z"
         id="path10861"
         transform="scale(0.26458333)" /><path
         style="fill:#d6d6d6;fill-opacity:1;stroke-width:0.03125"
         d="m 458.36496,665.18216 c 0.91716,-1.07541 2.14357,-2.44361 3.13232,-3.49446 0.7022,-0.7463 3.38367,-3.42676 4.11324,-4.11168 6.38475,-5.99402 13.14571,-10.80206 18.93635,-13.46653 0.5147,-0.23683 1.89939,-0.82824 1.93919,-0.82824 0.008,0 0.0139,0.1378 0.0139,0.30622 v 0.30622 l -0.11719,0.0415 c -0.89794,0.31823 -3.22473,1.43787 -4.67969,2.25186 -3.85262,2.15536 -7.83692,5.01349 -12.17187,8.73143 -3.58332,3.0733 -6.88172,6.35593 -9.77667,9.72993 l -0.70384,0.82031 h -0.4651 -0.4651 z"
         id="path10862"
         transform="scale(0.26458333)" /><path
         style="fill:#d6d6d6;fill-opacity:1;stroke-width:0.03125"
         d="m 499.70312,775.95036 c -0.73036,-0.0723 -1.30941,-0.20052 -1.83002,-0.40529 -2.06538,-0.81234 -3.4134,-2.58931 -3.76688,-4.96553 -0.10242,-0.68855 -0.0858,-2.15083 0.0341,-3.00142 0.28825,-2.04443 1.11629,-3.09843 3.40651,-4.33611 2.05404,-1.11004 3.50699,-1.38339 4.92188,-0.92596 0.53006,0.17136 1.30942,0.62149 1.90625,1.10097 0.693,0.55675 1.56773,1.43215 2.08139,2.08298 0.25904,0.32821 0.59175,0.82858 0.77734,1.16904 0.83096,1.52443 0.83096,3.13749 0,4.66191 -0.5482,1.00568 -1.58254,2.20364 -2.56415,2.96976 -1.08516,0.84694 -2.3501,1.40354 -3.60834,1.58775 -0.33199,0.0486 -1.12656,0.0848 -1.35812,0.0619 z m 1.24815,-0.43512 c 1.92368,-0.22503 3.80566,-1.21354 4.97307,-2.61213 0.61778,-0.74012 1.06849,-1.66639 1.25294,-2.57499 0.082,-0.40388 0.0817,-1.69373 -5.6e-4,-2.1875 -0.19407,-1.16549 -0.60681,-2.17323 -1.23513,-3.01562 -0.23591,-0.31629 -0.77615,-0.86996 -1.08222,-1.10912 -0.91677,-0.71636 -1.9681,-1.15016 -3.1398,-1.29553 -0.38678,-0.048 -1.25373,-0.0402 -1.67891,0.0151 -0.83033,0.10798 -1.6377,0.3582 -2.42357,0.75112 -1.40455,0.70225 -2.17886,1.44588 -2.72705,2.61898 -0.42907,0.91818 -0.64033,1.93063 -0.63978,3.06612 4.2e-4,0.87797 0.11452,1.6052 0.3751,2.39082 0.7526,2.26895 2.36941,3.64577 4.64026,3.95149 0.42786,0.0576 1.19904,0.0582 1.68565,0.001 z"
         id="path10863"
         transform="scale(0.26458333)" /><path
         style="fill:#d6d6d6;fill-opacity:1;stroke-width:0.03125"
         d="m 504.72135,780.73721 c 0.0235,-0.0231 1.23835,-0.26659 1.8824,-0.37731 0.81203,-0.1396 1.49971,-0.23638 2.6577,-0.374 3.37881,-0.40156 6.16885,-1.04755 7.69167,-1.78089 0.49854,-0.24008 0.72246,-0.40357 1.02007,-0.7448 0.2797,-0.32069 0.44487,-0.59324 0.5319,-0.87771 0.0919,-0.30032 0.0697,-0.84848 -0.0508,-1.25431 -0.21917,-0.7382 -0.79392,-1.9254 -1.86843,-3.85944 -1.33286,-2.39903 -1.80004,-3.34269 -2.09635,-4.23438 -0.24212,-0.72862 -0.32327,-1.46942 -0.22593,-2.0625 0.10925,-0.6656 0.48278,-1.58372 0.83228,-2.04569 2.1871,-2.89091 12.02398,-7.94867 21.98228,-11.30249 1.269,-0.42738 3.39516,-1.07369 3.53213,-1.07369 0.0359,0 0.0124,0.34649 -0.0243,0.35848 -0.0215,0.007 -0.33438,0.0984 -0.69532,0.20317 -2.47756,0.71884 -5.55805,1.88307 -10.03125,3.79117 -8.03003,3.42529 -11.33976,5.11126 -13.32812,6.78927 -0.36876,0.31121 -0.97981,0.9528 -1.19784,1.25772 -0.98082,1.37171 -1.02064,2.88235 -0.12999,4.93123 0.47646,1.09605 1.05144,2.08583 2.63061,4.52833 0.41458,0.64124 0.67468,1.10808 0.86185,1.54688 0.53644,1.25761 0.5926,2.25019 0.17675,3.12344 -0.26752,0.56176 -0.67998,1.01184 -1.31013,1.42962 -1.30834,0.86741 -3.41057,1.4307 -6.39063,1.71234 -0.98406,0.093 -1.99385,0.14117 -3.60937,0.17217 -1.55405,0.0298 -2.14293,0.0589 -2.5545,0.12635 -0.1906,0.0312 -0.3082,0.0382 -0.28665,0.017 z"
         id="path10864"
         transform="scale(0.26458333)" /><path
         style="fill:#d6d6d6;fill-opacity:1;stroke-width:0.03125"
         d="m 486.34454,765.99298 8e-4,-0.69611 0.33514,-0.20007 c 5.66197,-3.38006 21.31327,-11.24682 41.36639,-20.79185 3.34014,-1.58987 9.15769,-4.33324 11.5625,-5.45251 0.49844,-0.23199 0.93086,-0.43481 0.96094,-0.45072 0.0504,-0.0267 0.0546,-0.004 0.054,0.29249 l -7.2e-4,0.32141 -1.74147,0.81116 c -4.69067,2.18486 -10.00354,4.69429 -15.86648,7.49424 -21.44544,10.24165 -31.54319,15.50826 -35.78301,18.66307 -0.25878,0.19256 -0.56463,0.42996 -0.67968,0.52755 l -0.20918,0.17746 z"
         id="path10865"
         transform="scale(0.26458333)" /><path
         style="fill:#d6d6d6;fill-opacity:1;stroke-width:0.03125"
         d="m 540.63168,738.68892 0.009,-0.31864 0.46875,-0.21911 c 4.20797,-1.96693 11.25451,-5.21245 15.57813,-7.17502 3.68405,-1.67225 9.16239,-4.1324 9.20218,-4.1324 0.009,0 0.0166,0.1554 0.0166,0.34534 v 0.34535 l -0.11719,0.0485 c -0.29124,0.12044 -5.85281,2.59652 -7.69531,3.42605 -5.06509,2.28038 -10.45592,4.74654 -15.82813,7.24093 -0.85937,0.39902 -1.58058,0.73273 -1.60269,0.74158 -0.0315,0.0126 -0.0383,-0.0526 -0.0312,-0.30254 z"
         id="path10867"
         transform="scale(0.26458333)" /><path
         style="fill:#d6d6d6;fill-opacity:1;stroke-width:0.03125"
         d="m 554.65625,750.03055 c -0.57277,-0.0775 -1.21746,-0.27914 -1.76421,-0.55177 -2.14296,-1.06857 -3.54823,-3.33165 -3.82898,-6.16628 -0.0451,-0.45581 -0.0462,-1.52299 -0.002,-1.89063 0.21535,-1.78611 0.98034,-2.93102 2.42319,-3.62661 0.61025,-0.2942 1.52614,-0.5604 2.14063,-0.62217 0.14597,-0.0147 0.12225,-0.004 -0.15735,0.0737 -0.66517,0.18374 -1.32741,0.46683 -1.90515,0.8144 -0.5958,0.35843 -1.12236,0.76779 -1.36317,1.05973 -0.39617,0.48029 -0.69887,1.29506 -0.84571,2.27636 -0.0781,0.52186 -0.0768,1.91904 0.002,2.49337 0.24822,1.80291 0.80339,3.14985 1.67075,4.05351 1.78031,1.85483 4.4641,2.33929 6.91084,1.24751 1.0911,-0.48687 2.00805,-1.25672 2.65543,-2.22944 0.67313,-1.0114 1.00089,-2.11761 1.00089,-3.37806 0,-2.07298 -0.83205,-3.92726 -2.3125,-5.15357 -0.51826,-0.4293 -1.29772,-0.85618 -1.97225,-1.08014 -0.38323,-0.12724 -1.0781,-0.28503 -1.28168,-0.29105 -0.058,-0.002 -0.1406,-0.0139 -0.18357,-0.0271 -0.12223,-0.0375 0.50889,-0.002 0.89062,0.0495 1.09447,0.14888 2.10014,0.60821 2.9739,1.35829 1.50865,1.29511 2.36013,3.475 2.16561,5.54427 -0.1453,1.54585 -0.80613,2.92668 -1.93672,4.04688 -1.02723,1.01778 -2.22652,1.68508 -3.48575,1.93949 -0.27022,0.0546 -0.47327,0.071 -0.96704,0.0782 -0.34375,0.005 -0.7164,-0.003 -0.82812,-0.0184 z"
         id="path10869"
         transform="scale(0.26458333)" /><path
         style="fill:#d6d6d6;fill-opacity:1;stroke-width:0.03125"
         d="m 553.51444,762.27776 c -0.82379,-0.0867 -1.67592,-0.49967 -2.17181,-1.05256 -0.71087,-0.79258 -1.06063,-1.89031 -1.06168,-3.33219 -4e-4,-0.55219 -0.052,-1.52802 -0.10998,-2.08051 -0.35535,-3.38551 -1.56393,-4.99325 -4.03035,-5.36147 -0.50885,-0.076 -1.60202,-0.0769 -2.25,-0.002 -0.86396,0.10003 -1.92451,0.30163 -2.82046,0.53614 -0.22783,0.0596 -0.42202,0.10842 -0.43154,0.10842 -0.01,0 -0.013,-0.0804 -0.008,-0.17857 l 0.01,-0.17857 0.48438,-0.1191 c 1.03425,-0.25431 2.11512,-0.44391 2.98437,-0.52349 0.44853,-0.0411 1.37488,-0.0403 1.75905,0.001 1.16725,0.12686 2.08427,0.54318 2.79858,1.27052 0.99388,1.01201 1.6002,2.6113 1.98786,5.24337 0.23376,1.58717 0.51445,2.61735 0.97069,3.5625 0.55121,1.14192 0.97406,1.43112 2.0932,1.43164 1.04777,4.8e-4 2.1676,-0.40111 3.34375,-1.19915 1.46123,-0.99148 2.62528,-2.29684 3.59314,-4.02936 0.54673,-0.97867 1.02245,-1.641 1.62248,-2.2589 0.96348,-0.99219 1.93227,-1.61146 3.58907,-2.29419 0.0267,-0.011 0.0389,0.017 0.0386,0.0888 l -4.7e-4,0.1049 -0.28859,0.0894 c -1.69502,0.52484 -2.99573,1.66628 -3.88714,3.41118 -0.12278,0.24033 -0.28229,0.57759 -0.35447,0.74946 -0.21881,0.52107 -0.54248,1.1649 -0.80214,1.59557 -1.50871,2.50244 -3.84775,4.1882 -6.13097,4.41865 -0.36396,0.0367 -0.56301,0.0363 -0.92756,-0.002 z"
         id="path10870"
         transform="scale(0.26458333)" /><path
         style="fill:#d6d6d6;fill-opacity:1;stroke-width:0.03125"
         d="m 565.91208,751.90094 c 0.01,-0.0962 0.0204,-0.10294 0.38479,-0.23658 0.85888,-0.31498 1.96678,-0.62751 3.41696,-0.9639 0.49255,-0.11425 1.07836,-0.27106 1.30179,-0.34846 1.35495,-0.46938 3.02259,-1.48314 4.68546,-2.84829 1.41373,-1.1606 3.19397,-2.91697 4.69165,-4.62871 2.40318,-2.74668 4.97949,-6.37112 6.64113,-9.343 l 0.20051,-0.35863 0.008,0.75676 0.008,0.75676 -0.28698,0.46124 c -2.49322,4.00729 -5.94488,8.28813 -9.13601,11.33075 -3.07391,2.93086 -5.72612,4.66739 -7.71278,5.04993 -0.25718,0.0495 -0.55542,0.0723 -1.25,0.0956 -1.17705,0.0394 -1.78488,0.1096 -2.60727,0.30109 -0.17603,0.041 -0.32809,0.0745 -0.33792,0.0745 -0.01,0 -0.0135,-0.0446 -0.008,-0.0991 z"
         id="path10871"
         transform="scale(0.26458333)" /><path
         style="fill:#d6d6d6;fill-opacity:1;stroke-width:0.03125"
         d="m 587.25,733.9123 v -0.75786 l 0.28252,-0.52253 c 2.00838,-3.71466 3.11405,-6.92675 3.23482,-9.39754 0.073,-1.49293 -0.45367,-3.07345 -1.22938,-3.68952 -0.24086,-0.19129 -0.61904,-0.37127 -0.95984,-0.4568 -0.23982,-0.0602 -0.3641,-0.0706 -0.84375,-0.0708 -0.56127,-2.2e-4 -0.56355,6e-5 -1.04687,0.12945 -2.71694,0.72734 -9.17512,3.31092 -18.90196,7.5617 -0.88752,0.38785 -1.67343,0.73116 -1.74648,0.76291 l -0.13281,0.0577 v -0.35048 -0.35048 l 1.47656,-0.65404 c 6.56215,-2.90666 14.12949,-6.15183 16.16406,-6.93176 1.4879,-0.57036 2.57758,-0.89743 3.53125,-1.0599 0.58295,-0.0993 1.41246,-0.0994 1.8125,-2.1e-4 1.44454,0.3582 2.11511,1.66099 2.29593,4.46056 0.0512,0.79212 0.0437,2.18206 -0.014,2.61733 -0.25572,1.9278 -1.05487,4.1505 -2.45869,6.83848 -0.41715,0.79874 -1.21426,2.20595 -1.42177,2.50998 -0.0358,0.0525 -0.0421,-0.0513 -0.0421,-0.69621 z"
         id="path10872"
         transform="scale(0.26458333)" /><path
         style="fill:#d6d6d6;fill-opacity:1;stroke-width:0.0883883"
         d="m 481.0277,789.17458 c -0.60017,-0.26075 -0.82712,-1.39856 -0.64257,-3.22161 0.22481,-2.2208 0.61924,-4.153 2.03964,-9.99167 0.87386,-3.59207 1.74083,-7.43575 1.95077,-8.6487 0.10416,-0.60181 0.14043,-0.67296 0.49343,-0.96803 0.20955,-0.17516 0.62011,-0.4705 0.91236,-0.65632 l 0.53136,-0.33784 v 0.63221 0.63222 l -0.57246,0.60683 c -0.31484,0.33375 -0.64742,0.75622 -0.73906,0.93882 -1.03944,2.07123 -3.65422,13.59028 -3.97778,17.52353 -0.0756,0.91872 -0.002,2.90561 0.11908,3.20408 0.0818,0.20211 0.21362,0.19631 1.51194,-0.0666 3.32627,-0.67349 11.81991,-3.54871 15.33101,-5.18976 0.46484,-0.21726 1.16361,-0.59929 1.55282,-0.84897 0.76504,-0.49074 2.03641,-1.1153 2.46338,-1.21012 0.19687,-0.0437 0.1172,0.0327 -0.30936,0.29659 -0.31599,0.19552 -0.90632,0.63748 -1.31185,0.98215 -1.21798,1.03519 -2.84782,1.90232 -5.26906,2.80331 -1.66097,0.61808 -2.81136,0.94272 -7.16348,2.02147 -2.23622,0.55429 -4.60263,1.14819 -5.25868,1.31977 -1.35792,0.35515 -1.27552,0.3463 -1.66149,0.17861 z"
         id="path10873"
         transform="scale(0.26458333)" /><path
         style="fill:#d6d6d6;fill-opacity:1;stroke-width:0.0441942"
         d="m 415.38104,801.32735 c -0.37103,-0.0446 -1.09626,-0.2024 -1.18434,-0.25769 -0.0316,-0.0198 -0.14626,-0.35246 -0.2549,-0.7392 -0.14949,-0.53221 -0.1872,-0.72649 -0.1551,-0.79907 0.11469,-0.25929 1.02482,-1.09075 1.83741,-1.67859 1.13389,-0.82028 2.92631,-1.89194 5.00409,-2.99185 0.44311,-0.23456 0.81656,-0.42648 0.82989,-0.42648 0.0133,0 0.0187,0.27086 0.0119,0.60191 l -0.0123,0.60191 -0.95018,0.52884 c -3.45465,1.92278 -5.26415,3.15565 -5.36229,3.6535 -0.0799,0.40527 0.0384,0.68473 0.36334,0.85823 0.37783,0.20175 0.60484,0.23022 1.81697,0.22784 1.16243,-0.002 1.65867,-0.0419 3.30863,-0.26412 0.4464,-0.0601 0.81929,-0.10932 0.82864,-0.10932 0.009,0 0.017,0.11687 0.017,0.25971 v 0.25971 l -0.40879,0.0504 c -1.39488,0.17209 -2.32415,0.23255 -3.81175,0.24801 -0.85074,0.009 -1.69595,-0.002 -1.87825,-0.0238 z"
         id="path10874"
         transform="scale(0.26458333)" /><path
         style="fill:#d6d6d6;fill-opacity:1;stroke-width:0.0441942"
         d="m 457.14453,835.18026 c -3.96592,-0.22092 -7.51205,-1.01735 -7.81795,-1.75586 -0.26035,-0.62856 2.40146,-15.21154 4.22084,-23.12422 1.01311,-4.40611 1.42909,-7.00631 1.60493,-10.03208 l 0.0347,-0.59662 0.006,0.46404 c 0.0138,1.02324 -0.19424,3.59627 -0.45978,5.68556 -0.43917,3.4553 -1.06044,6.87486 -2.47182,13.60519 -1.36842,6.52544 -1.88624,9.32423 -2.05996,11.13393 -0.0756,0.78764 -0.0316,1.95858 0.0876,2.3299 0.18708,0.58287 0.55019,0.94385 1.14721,1.1405 0.41109,0.1354 1.94336,0.38765 4.06447,0.66913 0.99716,0.13232 2.43468,0.16387 2.92799,0.0643 1.00842,-0.20363 1.58571,-0.77525 2.11007,-2.08938 0.26818,-0.67211 0.76528,-2.30531 1.06636,-3.50352 0.79281,-3.15516 3.60861,-16.84803 6.15717,-29.94155 l 0.45591,-2.3423 0.24886,-0.0131 c 0.22058,-0.0117 0.24668,-0.004 0.22978,0.0663 -0.0105,0.0437 -0.29803,1.56105 -0.63898,3.3719 -4.57086,24.27731 -6.67758,33.74884 -7.73113,34.75821 l -0.1298,0.12435 -1.18385,0.0118 c -0.65112,0.006 -1.49211,-0.005 -1.86887,-0.0264 z"
         id="path10875"
         transform="scale(0.26458333)" /><path
         style="fill:#d6d6d6;fill-opacity:1;stroke-width:0.0441942"
         d="m 468.23727,796.83827 c 0,-0.0148 0.41684,-2.18747 0.92631,-4.82821 0.50947,-2.64074 1.71354,-8.89814 2.67572,-13.90534 1.39192,-7.24362 4.97176,-25.81215 5.31023,-27.54402 l 0.0712,-0.3646 h 0.21844 c 0.21507,0 0.21804,0.002 0.19268,0.12153 -0.0732,0.34528 -3.15022,16.29886 -4.50706,23.36767 -1.96252,10.22433 -4.40143,23.04914 -4.40143,23.14456 0,0.0194 -0.10938,0.0353 -0.24307,0.0353 -0.13369,0 -0.24307,-0.0121 -0.24307,-0.0269 z"
         id="path10876"
         transform="scale(0.26458333)" /><path
         style="fill:#d6d6d6;fill-opacity:1;stroke-width:0.0441942"
         d="m 477.27949,749.89779 c 0.0326,-0.16407 1.23265,-6.35402 2.66677,-13.75544 2.71684,-14.02141 5.06632,-26.11363 5.107,-26.28448 0.0209,-0.0876 0.0515,-0.0994 0.25772,-0.0994 h 0.23405 l -0.76258,3.87804 c -1.58548,8.06287 -4.43657,22.67775 -6.17943,31.67617 -0.49903,2.57652 -0.91784,4.72933 -0.9307,4.78402 -0.0203,0.0862 -0.0518,0.0994 -0.23774,0.0994 h -0.21437 z"
         id="path10877"
         transform="scale(0.26458333)" /><path
         style="fill:#d6d6d6;fill-opacity:1;stroke-width:0.0441942"
         d="m 485.09435,709.6369 c 0.19974,-0.92931 4.67115,-24.06041 6.05917,-31.34472 0.50253,-2.63729 0.91919,-4.801 0.92592,-4.80826 0.007,-0.007 0.13991,-0.007 0.29596,0 l 0.28373,0.0132 -0.19606,1.01647 c -0.51127,2.65078 -2.63952,13.50447 -4.67304,23.8317 l -2.24735,11.41315 h -0.23723 c -0.23566,0 -0.23705,-8e-4 -0.2111,-0.12153 z"
         id="path10879"
         transform="scale(0.26458333)" /><path
         style="fill:#d6d6d6;fill-opacity:1;stroke-width:0.0441942"
         d="m 492.08463,673.39767 c 0.0326,-0.13684 1.10236,-5.83506 1.873,-9.97683 2.47035,-13.27681 2.88479,-15.88912 2.89222,-18.2301 0.003,-0.94054 -0.003,-1.01109 -0.10345,-1.30338 -0.15287,-0.44312 -0.4676,-0.75174 -0.96046,-0.94181 -0.44028,-0.16978 -1.27787,-0.38346 -1.78347,-0.45497 -0.85469,-0.12088 -2.38186,-0.0394 -3.51343,0.1874 -1.06347,0.21318 -2.55694,0.64971 -3.65345,1.06787 l -0.29469,0.11238 -0.0147,-0.28804 -0.0147,-0.28804 0.15468,-0.066 c 0.40051,-0.1709 2.17533,-0.73674 2.81311,-0.89687 1.84356,-0.46286 3.55734,-0.59667 4.85904,-0.3794 0.77926,0.13007 1.82156,0.46707 2.17009,0.70163 0.84018,0.56546 0.99598,1.98166 0.6062,5.51025 -0.41511,3.75782 -1.69174,11.08195 -4.08271,23.42281 -0.19543,1.00868 -0.35532,1.84892 -0.35532,1.86721 0,0.0183 -0.13735,0.0332 -0.30522,0.0332 -0.26825,0 -0.30299,-0.009 -0.2868,-0.0773 z"
         id="path10880"
         transform="scale(0.26458333)" /><path
         style="fill:#ff8080;fill-opacity:1;stroke-width:0.0434017"
         id="path10881"
         d="m 186.21813,224.78177 a 1.9062124,1.2045668 0 0 1 -1.90331,1.20456 1.9062124,1.2045668 0 0 1 -1.9091,-1.2009 1.9062124,1.2045668 0 0 1 1.89751,-1.20822 1.9062124,1.2045668 0 0 1 1.91487,1.19724"
         transform="matrix(0.99784202,-0.06566046,-0.22346131,0.9747128,0,0)" /><path
         style="fill:#ff8080;fill-opacity:1;stroke-width:0.0434017"
         id="path10881-6"
         d="m 132.80154,253.21996 a 1.9062124,1.2045668 0 0 1 -1.90332,1.20456 1.9062124,1.2045668 0 0 1 -1.9091,-1.2009 1.9062124,1.2045668 0 0 1 1.89751,-1.20822 1.9062124,1.2045668 0 0 1 1.91487,1.19723"
         transform="matrix(0.91855111,-0.39530224,0.11506953,0.99335744,0,0)" /><path
         style="fill:#ef81b2;fill-opacity:1;stroke-width:0.25"
         d="m 559.625,760.01366 c -0.79519,-0.32546 -1.38454,-1.12875 -1.54256,-2.10248 -0.48814,-3.00808 4.66541,-7.60316 8.82424,-7.86798 1.98342,-0.12629 2.59576,0.0274 3.42916,0.86082 1.11611,1.11611 0.82266,3.18823 -0.74201,5.23962 -0.93322,1.22352 -3.5385,3.03688 -5.20424,3.62235 -1.41011,0.49561 -3.84905,0.62239 -4.76459,0.24767 z"
         id="path10882"
         transform="scale(0.26458333)" /><path
         style="fill:#ef81b2;fill-opacity:1;stroke-width:0.25"
         d="m 501.2347,786.40876 c -3.23534,-0.87245 -4.00131,-3.20277 -1.80081,-5.47862 3.40366,-3.52022 11.03103,-3.92607 12.62338,-0.67169 0.63495,1.2977 0.24603,2.42252 -1.32649,3.83635 -2.36829,2.1293 -6.47232,3.12935 -9.49608,2.31396 z"
         id="path10883"
         transform="scale(0.26458333)" /></g></g></svg>
